<?xml version="1.0" standalone="no"?>
<!DOCTYPE svg PUBLIC "-//W3C//DTD SVG 1.1//EN" "http://www.w3.org/Graphics/SVG/1.1/DTD/svg11.dtd" >
<svg xmlns="http://www.w3.org/2000/svg" xmlns:xlink="http://www.w3.org/1999/xlink" version="1.1">
<metadata>
Created by FontForge 20230101 at Tue Mar  7 05:24:16 2023
 By Unknown
Copyright (c) 2023 by Pangram Pangram. All rights reserved.
</metadata>
<defs>
<font id="PPEditorialOld-Ultrabold" horiz-adv-x="940" >
  <font-face 
    font-family="PP Editorial Old Ultrabold"
    font-weight="800"
    font-stretch="normal"
    units-per-em="1000"
    panose-1="0 0 0 0 0 0 0 0 0 0"
    ascent="800"
    descent="-200"
    x-height="542"
    cap-height="805"
    bbox="-114 -350 1850 1091"
    underline-thickness="55"
    underline-position="-125"
    unicode-range="U+0020-FB02"
  />
<missing-glyph horiz-adv-x="520" 
d="M426 820v-1040h-329v1040h329zM174 -148h172v34h-106l73 49h33v34h-172v-34h72l-72 -49v-34zM174 -7h172v118h-172v-118zM174 173h172v118h-104v-59h36v24h34v-49h-104v84h-34v-118zM174 314h172v104h-34v-69h-138v-35zM174 373h104v73h68v34h-172v-34h68v-39h-68v-34z
M174 508h172v35h-68v73h-104v-108zM174 643h172v35h-68v38h68v34h-171v-34h67v-38h-68v-35zM208 28v48h104v-48h-104zM208 543v38h34v-38h-34z" />
    <glyph glyph-name="f_f" unicode="ff" horiz-adv-x="771" 
d="M136 0q-15 0 -61.5 -2t-71.5 -2q-17 0 -17 9q0 10 17 10q52 0 74.5 25.5t22.5 99.5v328q0 45 -45 45h-36q-17 0 -17 9q0 11 17 11q97 0 115 40q39 92 115.5 146t162.5 54q104 0 174 -55q54 55 108.5 87.5t92.5 32.5q34 0 51.5 -21.5t17.5 -51.5q0 -34 -18.5 -58
t-49.5 -24q-22 0 -69 20t-61 20q-20 0 -27 -12t-7 -47v-91q0 -26 11 -34t31 -8q17 0 55 6.5t45 6.5q18 0 18 -15q0 -16 -21 -16h-93q-46 0 -46 -45v-328q0 -74 29 -99.5t96 -25.5q22 0 22 -9q0 -10 -22 -10q-32 0 -92 2t-80 2h-97q-16 0 -60 -2q-8 -2 -17 -2h-32h-25
q-9 0 -12 1q-10 0 -47.5 1.5t-53.5 1.5h-97zM280 140q0 -64 21.5 -91.5t70.5 -32.5q38 6 55 33t17 91l1 328q0 45 -46 45h-74q-45 0 -45 -45v-328zM280 573q0 -26 16 -33t61 -7h7q42 0 69 9q33 16 33 83q0 111 -85 111q-41 0 -71 -31.5t-30 -99.5v-32z" />
    <glyph glyph-name="f_f_i" unicode="ffi" horiz-adv-x="1060" 
d="M480 0q-16 0 -60 -2q-8 -2 -17 -2h-32h-25q-9 0 -12 1q-10 0 -47.5 1.5t-53.5 1.5h-97q-15 0 -61.5 -2t-71.5 -2q-17 0 -17 9q0 10 17 10q52 0 74.5 25.5t22.5 99.5v328q0 45 -45 45h-36q-17 0 -17 9q0 11 17 11q97 0 115 40q39 92 115.5 146t162.5 54q108 0 181 -61
q68 58 147.5 92t144.5 34q33 0 50.5 -21.5t17.5 -51.5q0 -35 -20 -58.5t-57 -23.5q-49 0 -125.5 15.5t-84.5 15.5q-24 0 -33 -13.5t-9 -48.5v-79q0 -22 11 -28.5t31 -6.5h118q29 0 87 10.5t85 10.5q24 0 24 -26q0 -21 -5 -113t-5 -139v-141q0 -73 22.5 -99t73.5 -26
q17 0 17 -9q0 -10 -17 -10q-24 0 -70 2t-62 2h-114q-13 0 -50.5 -2t-58.5 -2h-1h-1q-21 0 -62 2t-55 2h-112zM280 140q0 -64 21.5 -91.5t70.5 -32.5q38 6 55 33t17 91l1 328q0 45 -46 45h-74q-45 0 -45 -45v-328zM280 573q0 -26 16 -33t61 -7h7q42 0 69 9q33 16 33 83
q0 111 -85 111q-41 0 -71 -31.5t-30 -99.5v-32zM624 140q0 -73 20 -99t65 -26h1h1q42 0 60.5 25.5t19.5 99.5v306q0 35 -12 51t-47 16h-62q-46 0 -46 -45v-328z" />
    <glyph glyph-name="f_i" unicode="fi" horiz-adv-x="717" 
d="M137 0q-15 0 -61.5 -2t-72.5 -2q-17 0 -17 9q0 10 17 10q53 0 75.5 25.5t22.5 99.5l1 328q0 45 -46 45h-35q-18 0 -18 9q0 11 18 11q91 0 115 43q61 111 182.5 186.5t223.5 75.5q33 0 50.5 -21.5t17.5 -51.5q0 -35 -20 -58.5t-57 -23.5q-49 0 -125.5 15.5t-84.5 15.5
q-24 0 -33 -13.5t-9 -48.5v-79q0 -22 11 -28.5t31 -6.5h118q29 0 87 10.5t85 10.5q24 0 24 -26q0 -21 -5 -113t-5 -139v-141q0 -73 22.5 -99t73.5 -26q17 0 17 -9q0 -10 -17 -10q-24 0 -70 2t-62 2h-114q-13 0 -50.5 -2t-58.5 -2h-1h-1q-21 0 -62 2t-55 2h-112zM281 140
q0 -73 20 -99t65 -26h1h1q42 0 60.5 25.5t19.5 99.5v306q0 35 -12 51t-47 16h-62q-46 0 -46 -45v-328z" />
    <glyph glyph-name="f_l" unicode="fl" horiz-adv-x="746" 
d="M137 0q-15 0 -61.5 -2t-72.5 -2q-17 0 -17 9q0 10 17 10q53 0 75.5 25.5t22.5 99.5l1 328q0 45 -46 45h-35q-18 0 -18 9q0 11 18 11q91 0 115 43q148 254 503 254q23 0 23 -20q0 -25 -4.5 -131.5t-4.5 -211.5v-327q0 -74 20.5 -99.5t67.5 -25.5q15 0 15 -9q0 -10 -16 -10
q-22 0 -64 2t-56 2h-114q-14 0 -56.5 -2t-65.5 -2h-6h-5q-23 0 -67.5 2t-59.5 2h-109zM281 140q0 -73 21.5 -99t70.5 -26h6h5q48 0 68.5 25.5t20.5 99.5v472q0 76 -21.5 107t-65.5 31q-54 0 -79.5 -41t-25.5 -98v-38q0 -26 11 -34t31 -8q17 0 55 6.5t45 6.5q18 0 18 -15
q0 -16 -21 -16h-93q-46 0 -46 -45v-328z" />
    <glyph glyph-name=".notdef" horiz-adv-x="520" 
d="M426 820v-1040h-329v1040h329zM174 -148h172v34h-106l73 49h33v34h-172v-34h72l-72 -49v-34zM174 -7h172v118h-172v-118zM174 173h172v118h-104v-59h36v24h34v-49h-104v84h-34v-118zM174 314h172v104h-34v-69h-138v-35zM174 373h104v73h68v34h-172v-34h68v-39h-68v-34z
M174 508h172v35h-68v73h-104v-108zM174 643h172v35h-68v38h68v34h-171v-34h67v-38h-68v-35zM208 28v48h104v-48h-104zM208 543v38h34v-38h-34z" />
    <glyph glyph-name=".null" horiz-adv-x="0" 
 />
    <glyph glyph-name="nonmarkingreturn" horiz-adv-x="333" 
 />
    <glyph glyph-name="space" unicode=" " horiz-adv-x="218" 
 />
    <glyph glyph-name="space" unicode="&#xa0;" horiz-adv-x="218" 
 />
    <glyph glyph-name="space" unicode="&#xa0;" horiz-adv-x="218" 
 />
    <glyph glyph-name="exclam" unicode="!" horiz-adv-x="276" 
d="M52 723q0 47 23.5 72t62.5 25t63 -25t24 -72q0 -44 -18.5 -113.5t-37.5 -166t-20 -204.5q0 -19 -9 -19q-11 0 -11 19q0 108 -19.5 204.5t-38.5 166.5t-19 113zM54 68q0 35 24.5 59.5t59.5 24.5q34 0 59 -25t25 -59q0 -35 -24.5 -59.5t-59.5 -24.5t-59.5 24.5t-24.5 59.5z
" />
    <glyph glyph-name="quotedbl" unicode="&#x22;" horiz-adv-x="374" 
d="M51 756q0 30 16 47t44 17t44 -17t16 -47q0 -26 -23 -102.5t-26 -121.5q0 -9 -5 -12t-10 0.5t-5 11.5q-3 45 -27 121.5t-24 102.5zM204 756q0 30 16 47t44 17t44 -17t16 -47q0 -26 -23 -102.5t-26 -121.5q0 -9 -5 -12t-10 0.5t-5 11.5q-3 45 -27 121.5t-24 102.5z" />
    <glyph glyph-name="numbersign" unicode="#" horiz-adv-x="754" 
d="M352 793q6 23 21 23q17 0 9 -23l-49 -170q-5 -17 2.5 -27t25.5 -10h141q39 0 50 37l49 170q3 10 9.5 16.5t12.5 6.5q17 0 9 -23l-50 -170q-10 -37 29 -37h102q17 0 17 -15q0 -14 -17 -14h-111q-39 0 -50 -38l-64 -218q-11 -37 28 -37h127q17 0 17 -15q0 -14 -17 -14h-135
q-39 0 -50 -38l-56 -191q-6 -22 -22 -22q-15 0 -9 22l56 191q11 38 -28 38h-141q-39 0 -50 -38l-56 -191q-6 -22 -21 -22t-9 22l56 191q11 38 -28 38h-110q-16 0 -16 14q0 15 16 15h118q39 0 50 37l64 218q11 38 -28 38h-134q-16 0 -16 14q0 15 16 15h143q39 0 50 37z
M238 301q-5 -17 2.5 -27t25.5 -10h141q39 0 50 37l64 218q11 38 -28 38h-141q-39 0 -50 -38z" />
    <glyph glyph-name="dollar" unicode="$" horiz-adv-x="586" 
d="M83 -16q-15 0 -15 19q0 6 -12 298q0 12 7 12t10 -14q32 -142 78.5 -211t117.5 -82q25 -2 25 22l2 230q0 30 -22 47q-55 41 -83 62.5t-60.5 51.5t-46.5 51t-24 48.5t-10 57.5q0 91 60 142.5t159 60.5q24 0 24 25v39q0 15 11 15q10 0 10 -14q0 -7 -0.5 -20.5t-0.5 -19.5
q0 -24 24 -25t60 -3.5t43 -2.5q15 0 27.5 3t18.5 3q9 0 12.5 -4t3.5 -18q0 -129 12 -230q3 -21 -5 -21q-9 0 -13 17q-33 108 -68 164t-91 69q-25 5 -25 -20l-1 -171q-2 -24 20 -41q123 -92 169 -153t46 -143q0 -105 -58 -168t-151 -74q-24 -2 -24 -26q0 -6 0.5 -18t0.5 -18
q0 -15 -11 -15q-10 0 -10 14v37q0 24 -24 25q-29 1 -74.5 4.5t-55.5 3.5q-16 0 -32 -4.5t-24 -4.5zM179 689q0 -52 97 -124q9 -7 14.5 -4.5t4.5 14.5l-1 161q0 25 -25 23q-90 -10 -90 -70zM311 252l1 -224q0 -24 25 -21q41 8 60.5 33.5t19.5 55.5q0 80 -88 165q-9 8 -14 5.5
t-4 -14.5z" />
    <glyph glyph-name="percent" unicode="%" horiz-adv-x="867" 
d="M179 -16q-9 1 -8 8.5t10 21.5q265 414 467 749q17 27 -10 21q-4 -1 -26 -7.5t-38 -10.5t-39 -8t-39 -4q-62 0 -152 23q-20 5 -18 -4q1 -7 12 -21q43 -63 43 -143q0 -88 -49.5 -148.5t-115.5 -60.5q-67 0 -116.5 60.5t-49.5 148.5q0 89 49.5 150t116.5 61
q36 0 130.5 -22.5t149.5 -22.5q29 0 74 10.5t79 20.5t38 10q10 0 11 -8.5t-7 -21.5q-252 -394 -489 -786q-10 -16 -23 -16zM168 609q0 -190 48 -190q47 0 47 190q0 192 -47 192q-48 0 -48 -192zM485 194q0 89 50 150t117 61q66 0 115.5 -61t49.5 -150q0 -88 -49.5 -149
t-115.5 -61q-67 0 -117 61t-50 149zM604 194q0 -191 48 -191q46 0 46 191q0 192 -46 192q-48 0 -48 -192z" />
    <glyph glyph-name="ampersand" unicode="&#x26;" horiz-adv-x="886" 
d="M313 -16q-116 0 -197.5 55t-81.5 148q0 45 15.5 79t48 58t56.5 36t68 29q25 10 12 32q-55 102 -55 185q0 75 39 127t95.5 74.5t123.5 22.5q87 0 157 -40t70 -91q0 -39 -22.5 -57.5t-56.5 -18.5t-58 19t-24 56q0 55 -18 79t-58 24q-35 0 -60.5 -28.5t-25.5 -71.5
q0 -108 177 -358q64 -93 97 -132q16 -19 29 3q33 66 33 130q0 31 -19.5 80.5t-19.5 72.5q0 28 18.5 40.5t38.5 12.5q44 0 65 -28t21 -65q0 -17 -2 -33t-7.5 -33t-9 -29t-14 -30.5t-15 -27t-18.5 -28t-17.5 -24.5t-19.5 -26.5t-18 -24.5q-15 -20 4 -38q43 -33 77 -33
q36 0 64.5 35.5t39.5 107.5q1 15 7 15t6 -15q-6 -126 -55 -207t-146 -81q-66 0 -122 48q-19 17 -39 2q-72 -51 -183 -51zM214 272q0 -97 65.5 -166.5t147.5 -69.5q30 0 54 13q22 13 3 30q-64 60 -155 193q-34 48 -59 89q-14 20 -31 2q-25 -37 -25 -91z" />
    <glyph glyph-name="quotesingle" unicode="'" horiz-adv-x="221" 
d="M51 756q0 30 16 47t44 17t44 -17t16 -47q0 -26 -23 -102.5t-26 -121.5q0 -9 -5 -12t-10 0.5t-5 11.5q-3 45 -27 121.5t-24 102.5z" />
    <glyph glyph-name="parenleft" unicode="(" horiz-adv-x="410" 
d="M368 -236q-44 0 -88 32q-84 61 -148 208.5t-64 279.5q0 199 83.5 352.5t192.5 217.5q10 5 15 5q8 0 -3 -14q-2 -2 -7 -8q-75 -84 -127.5 -213t-52.5 -252q0 -143 59.5 -268.5t136.5 -196.5q33 -30 46.5 -48t13.5 -41q0 -22 -16 -38t-41 -16z" />
    <glyph glyph-name="parenright" unicode=")" horiz-adv-x="410" 
d="M42 859q44 0 88 -32q84 -61 148 -208.5t64 -279.5q0 -199 -83.5 -352.5t-192.5 -217.5q-10 -5 -15 -5q-8 0 3 14q2 2 7 8q75 84 127.5 213t52.5 252q0 143 -59.5 268.5t-136.5 196.5q-33 30 -46.5 48t-13.5 41q0 22 16 38t41 16z" />
    <glyph glyph-name="asterisk" unicode="*" horiz-adv-x="501" 
d="M251 379q-23 0 -42 17t-19 44q0 24 24 60t30 55q4 16 -8.5 21t-23.5 -6q-14 -14 -33 -51t-39 -50q-15 -8 -31 -8q-35 0 -53 30q-8 14 -8 31q0 35 31 53q19 11 58 8t68 1q17 4 16 17.5t-18 18.5q-19 5 -64.5 3t-59.5 10q-31 17 -31 53q0 17 8 30q18 31 53 31q15 0 31 -9
q21 -13 39.5 -51.5t32.5 -53.5q10 -11 23 -4t9 23q-6 18 -30 53.5t-24 61.5q0 28 19 45t42 17t41.5 -17t18.5 -45q0 -24 -23 -59.5t-28 -54.5q-4 -16 8 -23.5t22 3.5q14 15 33 54t39 51q15 9 30 9q35 0 53 -31q9 -14 9 -30q0 -36 -32 -53q-20 -12 -58.5 -10t-64.5 -3
q-18 -5 -18.5 -18.5t16.5 -17.5q20 -4 67 -1t58 -8q32 -19 32 -53q0 -15 -9 -31q-18 -30 -53 -30q-17 0 -30 8q-20 12 -39 49.5t-34 51.5q-11 11 -22 5.5t-7 -20.5q5 -20 28 -56t23 -59q0 -27 -18.5 -44t-41.5 -17z" />
    <glyph glyph-name="plus" unicode="+" horiz-adv-x="480" 
d="M60 286q-11 0 -15.5 7t0 14t15.5 7h141q25 0 25 25v141q0 11 7 15.5t14 0t7 -15.5v-141q0 -25 25 -25h141q11 0 15.5 -7t0 -14t-15.5 -7h-141q-25 0 -25 -25v-141q0 -11 -7 -15.5t-14 0t-7 15.5v141q0 25 -25 25h-141z" />
    <glyph glyph-name="comma" unicode="," horiz-adv-x="283" 
d="M122 -21q-41 0 -63 25t-22 59q0 39 26 65t73 26q46 0 76 -33.5t30 -87.5q0 -67 -38.5 -132.5t-95.5 -82.5q-25 -7 -40 7t-15 29q0 9 8 12q58 19 107 57t49 78q0 24 -15 24q-5 0 -13.5 -11.5t-25 -23t-41.5 -11.5z" />
    <glyph glyph-name="hyphen" unicode="-" horiz-adv-x="394" 
d="M57 262q-17 0 -17 13q0 16 17 16h280q17 0 17 -15q0 -14 -17 -14h-280z" />
    <glyph glyph-name="period" unicode="." horiz-adv-x="268" 
d="M134 -16q-35 0 -59.5 24.5t-24.5 59.5t24.5 59.5t59.5 24.5q34 0 59 -25t25 -59q0 -35 -24.5 -59.5t-59.5 -24.5z" />
    <glyph glyph-name="slash" unicode="/" horiz-adv-x="280" 
d="M262 816q5 14 19 14q16 0 11 -14l-266 -801q-6 -19 -20 -19q-16 0 -10 19z" />
    <glyph glyph-name="zero" unicode="0" horiz-adv-x="695" 
d="M347 -15q-141 0 -223.5 119t-82.5 298q0 178 82.5 296t223.5 118t224 -118t83 -296q0 -179 -83 -298t-224 -119zM256 402q0 -206 20.5 -302t70.5 -96q51 0 71.5 96t20.5 302q0 205 -20.5 300t-71.5 95q-50 0 -70.5 -95t-20.5 -300z" />
    <glyph glyph-name="one" unicode="1" horiz-adv-x="441" 
d="M325 140q0 -73 23.5 -99t77.5 -26q18 0 18 -9q0 -10 -18 -10q-25 0 -73.5 2t-65.5 2h-109q-18 0 -70.5 -2t-82.5 -2q-19 0 -19 9q0 10 19 10q60 0 85.5 25.5t26.5 99.5v451q0 51 -9 72.5t-31 21.5q-32 0 -95 -33q-26 -13 -30 -3t18 19q43 22 114.5 55.5t94.5 44.5
q21 9 45 23t38 21.5t24 7.5q25 0 25 -29q0 -38 -3 -123t-3 -130v-398z" />
    <glyph glyph-name="two" unicode="2" horiz-adv-x="593" 
d="M395 153q69 0 106 27t57 111q4 18 14 18q12 0 7 -17q-7 -41 -27 -124q-20 -81 -20 -145q0 -28 -26 -28q-16 0 -69 2.5t-90 2.5h-187q-32 0 -70 -2t-49 -2q-25 0 -29.5 14.5t16.5 34.5q89 90 137 142t97.5 116.5t70 117.5t20.5 106q0 68 -31 103.5t-85 35.5
q-67 0 -112 -47.5t-45 -132.5q0 -14 -9 -14q-10 0 -10 14q0 148 81.5 239t204.5 91q96 0 150 -50.5t54 -130.5q0 -46 -22.5 -93.5t-68 -97.5t-85 -87t-103 -91.5t-93.5 -82.5q-15 -15 -11 -22.5t21 -7.5h206z" />
    <glyph glyph-name="three" unicode="3" horiz-adv-x="575" 
d="M11 89q0 29 20 47t51 18q20 0 36 -9.5t24 -19.5t20 -29q6 -9 16 -35t21.5 -41.5t28.5 -15.5q40 0 68.5 51.5t28.5 162.5q0 95 -50 142.5t-127 47.5q-22 0 -22 13q0 12 22 15q96 13 133.5 43t37.5 105q0 117 -110 117q-53 0 -92.5 -27t-45.5 -72q-3 -21 -10 -21
q-11 0 -9 20q9 94 73.5 154.5t170.5 60.5q94 0 154.5 -47.5t60.5 -132.5q0 -31 -13.5 -56t-32 -41.5t-51 -32.5t-56.5 -24t-63 -20q-14 -4 -19 -11t2 -13t25 -8q98 -11 165.5 -58t67.5 -139q0 -117 -92 -183t-227 -66q-85 0 -145.5 26.5t-60.5 78.5z" />
    <glyph glyph-name="four" unicode="4" horiz-adv-x="663" 
d="M127 344q-15 -17 -10.5 -27t27.5 -10h128q46 0 46 46v119q0 32 32 32h124q32 0 32 -32v-136q0 -29 29 -29h48q32 0 32 -32v-83q0 -31 -32 -31h-48q-27 0 -29 -27q1 -70 24 -94.5t75 -24.5q17 0 17 -9q0 -10 -17 -10q-25 0 -72.5 2t-63.5 2h-111q-17 0 -69.5 -2t-80.5 -2
q-20 0 -20 9q0 10 19 10q58 0 84 24.5t27 95.5q-2 26 -29 26h-113q-27 0 -66.5 -3.5t-56.5 -3.5q-19 0 -33 11t-14 32q0 20 19 44q103 139 179 265t112 207q46 101 126 101q37 0 59 -21t22 -56q0 -27 -30.5 -58t-77 -64.5t-128.5 -107t-160 -163.5z" />
    <glyph glyph-name="five" unicode="5" horiz-adv-x="581" 
d="M217 -16q-45 0 -89 10t-78 35t-34 60q0 29 19.5 47t50.5 18q64 0 82 -65q13 -45 26 -65t35 -20q42 0 69.5 67.5t27.5 187.5q0 97 -29 149t-76 52q-26 0 -45 -11t-28 -23t-26 -39q-6 -6 -15 -7.5t-15.5 8.5t-2.5 27l81 320q2 7 4.5 17.5t3.5 15.5t3.5 12.5t4.5 11t5 7t7 5
t9 1.5q11 0 34.5 -2.5t36.5 -2.5h176q20 0 43.5 2.5t27.5 2.5q18 0 18 -33t-22.5 -79.5t-48.5 -46.5h-251q-31 0 -47 -11t-23 -42l-22 -95q-6 -26 4 -30.5t24 9.5q42 37 74 48t73 11q43 0 82.5 -14t75 -42.5t57 -79t21.5 -117.5q0 -78 -28 -138t-75.5 -94t-103 -50.5
t-116.5 -16.5z" />
    <glyph glyph-name="six" unicode="6" horiz-adv-x="657" 
d="M346 -16q-147 0 -226 89t-79 245q0 220 137.5 359t389.5 143q21 2 21 -6q0 -6 -22 -12q-111 -25 -193 -122.5t-115 -211.5q-5 -22 -3 -23t9 21q45 92 149 92q102 0 157 -71t55 -187q0 -134 -72.5 -225t-207.5 -91zM248 293q0 -290 96 -290q43 0 59 55t16 205
q0 54 -3.5 94t-13 74t-27 51.5t-42.5 17.5q-39 0 -62 -53t-23 -154z" />
    <glyph glyph-name="seven" unicode="7" horiz-adv-x="595" 
d="M241 -16q-41 0 -60.5 29t3.5 73l267 488q25 45 25 55q0 19 -30 19h-242q-30 0 -48.5 -3.5t-36.5 -16t-27.5 -40t-13.5 -71.5q-2 -15 -10 -15q-6 0 -6 14q0 7 3.5 70.5t4.5 125.5q0 15 -1.5 37.5t-1.5 29.5q0 27 25 27q17 0 70.5 -2.5t89.5 -2.5h152q27 0 64 2t50 2
q21 0 21 -15q0 -9 -13 -50l-213 -700q-16 -56 -72 -56z" />
    <glyph glyph-name="eight" unicode="8" horiz-adv-x="630" 
d="M324 816q110 0 178.5 -43.5t68.5 -126.5q0 -30 -13 -55.5t-38 -44.5t-47 -31.5t-53 -26.5q-42 -20 -6 -48q97 -76 136 -124t39 -114q0 -94 -79.5 -156t-203.5 -62q-118 0 -199 44t-81 124q0 92 155 190q40 23 5 54q-58 52 -92.5 102.5t-34.5 110.5q0 90 75.5 148.5
t189.5 58.5zM176 199q0 -67 40.5 -127t95.5 -60q45 0 69.5 28t24.5 80q0 55 -31.5 98t-109.5 111q-36 30 -56 -12q-33 -73 -33 -118zM237 680q0 -85 104 -181q22 -20 46 -2q23 21 33 52t10 88q0 70 -34 110.5t-76 40.5q-37 0 -60 -27.5t-23 -80.5z" />
    <glyph glyph-name="nine" unicode="9" horiz-adv-x="692" 
d="M346 816q147 0 226 -89t79 -245q0 -220 -137.5 -359t-389.5 -143q-21 -2 -21 6q0 6 22 12q111 25 193 122.5t115 211.5q5 22 3.5 23t-9.5 -21q-45 -92 -149 -92q-102 0 -157 71t-55 187q0 134 72.5 225t207.5 91zM273 537q0 -54 3.5 -94t13 -74t27 -51.5t42.5 -17.5
q39 0 62 53t23 154q0 290 -96 290q-43 0 -59 -55t-16 -205z" />
    <glyph glyph-name="colon" unicode=":" horiz-adv-x="268" 
d="M134 -16q-35 0 -59.5 24.5t-24.5 59.5t24.5 59.5t59.5 24.5q34 0 59 -25t25 -59q0 -35 -24.5 -59.5t-59.5 -24.5zM50 474q0 35 24.5 59.5t59.5 24.5q34 0 59 -25t25 -59q0 -35 -24.5 -59.5t-59.5 -24.5t-59.5 24.5t-24.5 59.5z" />
    <glyph glyph-name="semicolon" unicode=";" horiz-adv-x="283" 
d="M134 393q-35 0 -59.5 24.5t-24.5 59.5t24.5 59.5t59.5 24.5q34 0 59 -24.5t25 -59.5t-24.5 -59.5t-59.5 -24.5zM34 63q0 39 26 65t73 26q46 0 76 -33.5t30 -87.5q0 -67 -38.5 -132.5t-95.5 -82.5q-25 -7 -40 7t-15 29q0 9 8 12q58 19 107 57t49 78q0 24 -15 24
q-5 0 -13.5 -11.5t-25 -23t-41.5 -11.5q-41 0 -63 25t-22 59z" />
    <glyph glyph-name="less" unicode="&#x3c;" horiz-adv-x="400" 
d="M59 273q-20 8 -20 30q0 21 20 29l282 99q16 6 16 -10t-16 -22l-236 -82q-15 -6 -15 -14q0 -9 15 -15l236 -82q16 -6 16 -22t-16 -10z" />
    <glyph glyph-name="equal" unicode="=" horiz-adv-x="440" 
d="M60 206q-15 0 -15 14t15 14h320q15 0 15 -14t-15 -14h-320zM60 366q-15 0 -15 14t15 14h320q15 0 15 -14t-15 -14h-320z" />
    <glyph glyph-name="greater" unicode="&#x3e;" horiz-adv-x="400" 
d="M59 174q-16 -6 -16 10t16 22l236 82q15 6 15 15q0 8 -15 14l-236 82q-16 6 -16 22t16 10l282 -99q20 -8 20 -29q0 -22 -20 -30z" />
    <glyph glyph-name="question" unicode="?" horiz-adv-x="465" 
d="M205 220q-7 0 -24 20q-59 62 -83.5 97.5t-24.5 69.5q0 39 25.5 74t95.5 81q55 37 85.5 59.5t59.5 55t29 58.5q0 20 -20.5 36.5t-58.5 16.5q-21 0 -43 -19t-39 -41.5t-41.5 -41.5t-48.5 -19q-31 0 -50 27t-19 62q0 74 115 72q281 -5 281 -200q0 -50 -31 -94.5t-106 -100.5
q-63 -47 -90 -78t-27 -65q0 -23 14 -51q8 -19 1 -19zM114 68q0 35 24.5 59.5t59.5 24.5q34 0 59 -25t25 -59q0 -35 -24.5 -59.5t-59.5 -24.5t-59.5 24.5t-24.5 59.5z" />
    <glyph glyph-name="at" unicode="@" horiz-adv-x="1117" 
d="M542 -238q-226 0 -359.5 119.5t-133.5 330.5q0 240 161 404.5t398 164.5q133 0 230 -56.5t142.5 -145t45.5 -194.5q0 -102 -43 -194t-119 -149t-165 -57q-61 0 -94 29t-33 85q0 38 25 108q5 15 -5 15t-15 -14q-38 -99 -83 -158.5t-108 -59.5q-54 0 -86 44t-32 119
q0 89 43.5 181t112.5 151.5t138 59.5q82 0 91 -101q0 -48 17 -3l10 27q10 27 40 27q26 0 48.5 14.5t39 29.5t26.5 15q25 0 11 -39q-53 -133 -82 -217q-53 -157 -53 -203q0 -51 53 -51q80 0 149.5 106.5t69.5 234.5q0 68 -23 133t-67.5 120t-119 89t-167.5 34
q-146 0 -261.5 -78.5t-176.5 -204t-61 -271.5q0 -198 120.5 -311.5t326.5 -113.5q176 0 297.5 85t183.5 217q14 28 39 29q21 1 21 -18q0 -7 -4 -16q-61 -140 -205.5 -228.5t-342.5 -88.5zM425 166q0 -56 30 -56q36 0 86 66.5t75 150.5q13 48 13 78q0 67 -40 67
q-34 0 -73 -52t-65 -124.5t-26 -129.5z" />
    <glyph glyph-name="A" unicode="A" horiz-adv-x="830" 
d="M-10 5q0 10 17 10q58 0 92 24t58 94l232 666q6 17 24 17h28q18 0 24 -17l241 -667q24 -69 52 -93t70 -24q12 0 12 -9q0 -10 -12 -10q-22 0 -69 2t-57 2h-79q-17 0 -101 -2t-122 -2q-22 0 -22 9q0 10 21 10q50 0 73 9t30.5 35.5t-10.5 74.5l-23 76q-14 47 -63 47h-140
q-49 0 -65 -46l-26 -78q-23 -73 -5 -95.5t88 -22.5q21 0 21 -9q0 -10 -21 -10q-22 0 -67.5 2t-70.5 2q-15 0 -54.5 -2t-58.5 -2q-17 0 -17 9zM241 320q-8 -22 1 -34t32 -12h124q48 0 34 46l-76 241q-16 45 -31 0z" />
    <glyph glyph-name="B" unicode="B" horiz-adv-x="744" 
d="M180 0q-14 0 -80 -2t-97 -2q-17 0 -17 9q0 10 17 10q58 0 82 25.5t24 99.5v520q1 74 -23 99.5t-83 25.5q-17 0 -17 10q1 10 18 10q25 0 92 -2.5t85 -2.5h236q131 0 199 -50t68 -148q0 -80 -47 -128t-114 -55q-13 -1 -13 -8q0 -8 13 -8q90 -5 142.5 -55.5t52.5 -130.5
q0 -110 -82 -163.5t-228 -53.5h-228zM317 78q0 -35 14 -47t45 -12q137 0 137 198q0 91 -41 141t-104 50q-30 0 -40.5 -10.5t-10.5 -49.5v-270zM317 463q0 -27 10.5 -35.5t38.5 -8.5q55 0 86 46.5t31 125.5q0 80 -31.5 135t-82.5 55q-26 0 -39 -9t-13 -40v-269z" />
    <glyph glyph-name="C" unicode="C" horiz-adv-x="721" 
d="M28 383q0 193 109.5 313t290.5 120q43 0 90.5 -5t52.5 -5q22 0 39.5 4.5t20.5 4.5q7 0 9.5 -4t2.5 -18q0 -1 -0.5 -42.5t0 -66t3 -69t8.5 -83.5q3 -19 -7 -19q-2 0 -3.5 0.5t-2.5 2t-1.5 3t-1.5 5t-2 5.5q-15 39 -21 53t-20 47.5t-22 47t-22.5 38t-26 35t-27 23.5
t-32.5 18t-36 5q-82 0 -126 -107.5t-44 -266.5q0 -160 53 -254t143 -94q81 0 133 69t70 192q3 13 9 13q7 0 6 -14q-7 -72 -28 -133t-55.5 -110.5t-89.5 -78t-124 -28.5q-163 0 -255.5 112t-92.5 287z" />
    <glyph glyph-name="D" unicode="D" horiz-adv-x="829" 
d="M180 0q-14 0 -80 -2t-97 -2q-17 0 -17 9q0 10 17 10q58 0 82 25.5t24 99.5v520q1 74 -23 99.5t-83 25.5q-17 0 -17 10q1 10 18 10q25 0 92 -2.5t85 -2.5h213q62 0 118 -11t111 -39t94.5 -72t64 -115t24.5 -162q0 -92 -25 -163.5t-64.5 -115.5t-94.5 -72t-110.5 -39
t-116.5 -11h-215zM323 99q0 -48 12 -64t43 -16q94 0 149 105t55 265q0 172 -62.5 282t-147.5 110q-25 0 -37 -13t-12 -55v-614z" />
    <glyph glyph-name="E" unicode="E" horiz-adv-x="672" 
d="M597 -4q-16 0 -56 2t-76 2h-285q-14 0 -80 -2t-97 -2q-17 0 -17 9q0 10 17 10q58 0 82 25.5t24 99.5v520q1 74 -23 99.5t-83 25.5q-17 0 -17 10q1 10 18 10q25 0 92 -2.5t85 -2.5h327q23 0 51.5 2t37.5 2q26 0 26 -28q0 -8 -5 -52.5t-6 -66.5q0 -42 8 -93q3 -19 -7 -19
q-8 0 -12 16q-30 113 -72.5 168t-103.5 55h-34q-68 0 -68 -74v-239q0 -22 9.5 -35t26.5 -13h33q67 -1 90 23t23 82q0 17 9 17t9 -17q0 -19 -2.5 -56t-2.5 -57q0 -15 2 -55t2 -60q0 -17 -8 -17q-9 0 -9 17q0 58 -23 82t-90 24h-20q-49 0 -49 -36v-281q0 -38 14.5 -55.5
t54.5 -17.5h32q60 0 107 51.5t110 179.5q8 18 15 18q11 0 6 -16q-9 -32 -26 -115q-13 -68 -13 -110q0 -28 -26 -28z" />
    <glyph glyph-name="F" unicode="F" horiz-adv-x="667" 
d="M626 804q26 0 26 -28q0 -3 -6 -48.5t-5 -71.5q0 -38 7 -92q2 -19 -7 -19q-7 0 -11 16q-30 113 -72.5 168t-103.5 55h-63q-36 0 -52 -23t-16 -51v-259q0 -23 13 -35.5t36 -12.5h38q67 -1 89.5 22.5t23.5 82.5q0 17 9 17q8 0 8 -17q0 -19 -2 -56t-2 -57q0 -14 2 -54.5
t2 -60.5q0 -17 -8 -17q-10 0 -10 17q0 58 -22.5 82t-89.5 24h-38q-49 0 -49 -49v-197q0 -74 27.5 -99.5t96.5 -26.5q20 0 20 -9q0 -10 -20 -10q-36 0 -114 2.5t-94 2.5h-59q-14 0 -80 -2t-97 -2q-17 0 -17 9q0 10 17 10q58 0 82 25.5t24 99.5v520q1 74 -23 99.5t-83 25.5
q-17 0 -17 10q1 10 18 10q25 0 92 -2.5t85 -2.5h356q23 0 51.5 2t37.5 2z" />
    <glyph glyph-name="G" unicode="G" horiz-adv-x="831" 
d="M421 -16q-183 0 -288 113t-105 289q0 197 113 313.5t313 116.5q43 0 89.5 -5t54.5 -5q22 0 38 4.5t22 4.5q13 0 12 -22q0 -4 -0.5 -57t2 -103.5t9.5 -100.5q3 -19 -6 -19q-2 0 -3.5 0.5t-2 1t-1.5 2t-1.5 3l-1.5 4.5t-2 5q-19 49 -34.5 82.5t-36.5 71.5t-41.5 60.5
t-47.5 37.5t-57 15q-76 0 -131.5 -111.5t-55.5 -264.5q0 -81 11.5 -154t34 -133t60.5 -96t86 -36q36 0 58.5 19.5t22.5 60.5v200q1 75 -28.5 100.5t-101.5 25.5q-21 0 -21 9q0 10 21 10q38 0 119.5 -2t99.5 -2h84q11 0 45 2t53 2q12 0 12 -9q0 -10 -12 -10q-38 0 -54.5 -26
t-17.5 -100v-88q0 -41 9.5 -70t9.5 -31q1 -23 -49 -48t-128.5 -42.5t-151.5 -17.5z" />
    <glyph glyph-name="H" unicode="H" horiz-adv-x="890" 
d="M566 660q1 74 -17 99.5t-61 25.5q-12 0 -12 10t13 9q23 0 71 -2t59 -2h90q14 0 80.5 2t97.5 2q17 0 17 -9q0 -10 -17 -10q-58 0 -82 -25.5t-24 -99.5v-520q-1 -74 23 -99.5t82 -25.5q17 0 17 -10t-17 -10q-26 0 -93 2.5t-84 2.5h-90q-11 0 -60 -2t-71 -2q-13 0 -13 9
q0 10 13 10q43 0 60.5 25.5t17.5 99.5v230q0 23 -13 35.5t-36 12.5h-145q-23 0 -36 -12.5t-13 -35.5v-230q0 -74 17.5 -99.5t60.5 -25.5q13 0 13 -10t-13 -9q-23 0 -72 2t-59 2h-90q-14 0 -80 -2t-97 -2q-17 0 -17 9q0 10 17 10q58 0 82 25.5t24 99.5v520q1 74 -23 99.5
t-83 25.5q-17 0 -17 10q1 10 18 10q25 0 92 -2.5t85 -2.5h90q11 0 60 2t71 2q12 0 12 -9q0 -10 -12 -10q-43 0 -61 -25.5t-18 -99.5v-176q0 -49 49 -49h145q49 0 49 49v176z" />
    <glyph glyph-name="I" unicode="I" horiz-adv-x="432" 
d="M109 660q1 74 -23 99.5t-83 25.5q-17 0 -17 10q1 10 18 10q25 0 92 -2.5t85 -2.5h71q14 0 80.5 2t97.5 2q17 0 17 -9q0 -10 -17 -10q-59 0 -83 -25.5t-24 -99.5v-520q0 -74 24 -99.5t82 -25.5q17 0 17 -10t-17 -10q-26 0 -93 2.5t-85 2.5h-71q-14 0 -80 -2t-97 -2
q-17 0 -17 9q0 10 17 10q58 0 82 25.5t24 99.5v520z" />
    <glyph glyph-name="J" unicode="J" horiz-adv-x="440" 
d="M132 660q1 74 -28 99.5t-100 26.5q-20 0 -20 9q0 10 21 10q37 0 117.5 -2.5t97.5 -2.5h68q12 0 66.5 2t79.5 2q14 0 14 -9q0 -10 -14 -10q-48 0 -67.5 -25.5t-19.5 -99.5v-449q0 -69 -32.5 -137.5t-81 -120t-102.5 -92.5t-98.5 -62t-68.5 -21q-38 0 -58 21.5t-20 51.5
q0 34 18.5 57.5t49.5 24.5q27 0 83 -18t74 -17q13 2 17 12t4 41v709z" />
    <glyph glyph-name="K" unicode="K" horiz-adv-x="914" 
d="M771 122q36 -63 69 -85t72 -22q12 0 12 -9q0 -10 -13 -10q-18 0 -51.5 2t-44.5 2h-147q-14 0 -80 -2t-97 -2q-17 0 -17 9q0 10 17 10q39 0 54 8t12 31t-29 68l-131 233q-26 48 -42 48q-32 0 -32 -61v-202q0 -74 19.5 -99.5t67.5 -25.5q14 0 14 -10t-14 -10q-21 0 -76 2.5
t-70 2.5h-84q-14 0 -80 -2t-97 -2q-17 0 -17 9q0 10 17 10q58 0 82 25.5t24 99.5v520q1 74 -23 99.5t-83 25.5q-17 0 -17 10q1 10 18 10q25 0 92 -2.5t85 -2.5h71q14 0 80.5 2t97.5 2q17 0 17 -9q0 -10 -17 -10q-59 0 -83 -25.5t-24 -99.5v-184q0 -60 31 -60q4 0 8 2t8.5 6
t8 7.5t9.5 10.5t10 11l213 214q33 33 33 55q0 23 -42 43t-104 20q-17 0 -17 9q0 10 17 10q47 0 111 -2t90 -2h21q19 0 78.5 2t91.5 2q22 0 22 -9q0 -10 -22 -10q-71 0 -121.5 -17t-101.5 -69l-115 -119q-27 -29 0 -77z" />
    <glyph glyph-name="L" unicode="L" horiz-adv-x="663" 
d="M252 800q14 0 80.5 2t97.5 2q17 0 17 -9q0 -10 -17 -10q-59 0 -83 -25.5t-24 -99.5v-571q0 -38 14.5 -55.5t54.5 -17.5h30q60 0 107.5 54.5t107.5 194.5q6 18 15 18t6 -17q-37 -170 -37 -242q0 -28 -26 -28q-15 0 -56 2t-77 2h-282q-14 0 -80 -2t-97 -2q-17 0 -17 9
q0 10 17 10q58 0 82 25.5t24 99.5v520q1 74 -23 99.5t-83 25.5q-17 0 -17 10q1 10 18 10q25 0 92 -2.5t85 -2.5h71z" />
    <glyph glyph-name="M" unicode="M" horiz-adv-x="956" 
d="M-14 5q0 10 17 10q58 0 82 25.5t24 99.5v520q1 74 -23 99.5t-83 25.5q-17 0 -17 10q1 10 18 10q25 0 92 -2.5t85 -2.5h65q77 0 94 -62l128 -432q13 -46 27 0l127 445q8 30 16 39.5t29 9.5h109q14 0 80.5 2t97.5 2q17 0 17 -9q0 -10 -17 -10q-58 0 -82 -25.5t-24 -99.5
v-520q-1 -74 23 -99.5t82 -25.5q17 0 17 -10t-17 -10q-26 0 -93 2.5t-85 2.5h-68q-15 0 -83.5 -2t-100.5 -2q-18 0 -18 9q0 10 18 10q60 0 85 25.5t25 99.5v532q0 15 -1.5 21t-4.5 1t-7 -20l-192 -673q-5 -17 -23 -17h-44q-18 0 -23 17l-197 659q-14 47 -14 -2v-518
q-1 -74 23.5 -99.5t85.5 -25.5q18 -1 18 -10q0 -10 -18 -10l-120 3q-74 -2 -113 -2q-17 0 -17 9z" />
    <glyph glyph-name="N" unicode="N" horiz-adv-x="774" 
d="M597 -16q-18 0 -27 15l-365 567q-27 41 -27 -8v-418q-1 -74 32.5 -99.5t114.5 -26.5q23 0 23 -10t-24 -9q-26 0 -76.5 2.5t-78.5 2.5q-16 0 -60.5 -2t-65.5 -2q-19 0 -19 9q0 10 18 10q65 0 92 25.5t27 99.5v445q0 49 -27 90l-24 38q-21 32 -51.5 52t-62.5 20
q-19 0 -19 7q0 12 20 12q37 0 111 -2t142 -2q56 0 87 -45l292 -454q27 -41 27 8v351q1 74 -32.5 99.5t-114.5 26.5q-23 0 -23 10t24 9q26 0 76.5 -2.5t79.5 -2.5q13 0 53.5 2t60.5 2q17 0 17 -9q0 -10 -17 -10q-59 0 -83 -25.5t-24 -99.5v-658q0 -18 -17 -18h-59z" />
    <glyph glyph-name="O" unicode="O" horiz-adv-x="767" 
d="M387 -16q-164 0 -261.5 116.5t-97.5 298.5q0 180 99.5 296.5t252.5 116.5q164 0 262 -116.5t98 -298.5q0 -180 -100 -296.5t-253 -116.5zM237 593q0 -150 23.5 -283.5t68.5 -219.5t102 -86q50 1 74.5 48t24.5 151q0 150 -23 283.5t-68 219t-102 85.5q-48 0 -74 -52
t-26 -146z" />
    <glyph glyph-name="P" unicode="P" horiz-adv-x="727" 
d="M180 0q-14 0 -80 -2t-97 -2q-17 0 -17 9q0 10 17 10q58 0 82 25.5t24 99.5v520q1 74 -23 99.5t-83 25.5q-17 0 -17 10q1 10 18 10q25 0 92 -2.5t85 -2.5h193q171 0 250 -56.5t79 -179.5q0 -68 -22 -117t-61 -75.5t-84 -38t-99 -11.5q-21 0 -74 8q-22 3 -31 -8.5t-9 -36.5
v-145q0 -74 30 -99.5t104 -26.5q21 0 21 -10q0 -9 -22 -9q-38 0 -122 2.5t-102 2.5h-52zM323 404q0 -29 20.5 -48t50.5 -19q34 0 57.5 36t33.5 86.5t10 108.5q0 91 -27 152t-79 61q-30 0 -48 -13t-18 -52v-312z" />
    <glyph glyph-name="Q" unicode="Q" horiz-adv-x="767" 
d="M616 -236q-47 0 -94.5 20t-80.5 44.5t-75 44.5t-79 20q-35 0 -87 -27t-67 -27q-17 0 -30 16.5t-13 35.5q0 32 58 41q26 4 76 9.5t88 10t47 6.5q55 6 55 20q0 5 -33 8q-169 12 -261 125.5t-92 287.5q0 180 99.5 296.5t252.5 116.5q164 0 262 -116.5t98 -298.5
q0 -130 -55.5 -230t-152.5 -152q-57 -31 -161 -74q-40 -17 4 -17h33q42 0 114 -7.5t100 -7.5q57 0 99 15t51 46q3 14 11 14t5 -23q-12 -95 -56 -146t-116 -51zM246 566q0 -120 16 -243t55.5 -221t94.5 -98q39 0 65 37t35 85.5t9 104.5q0 120 -16 243t-55.5 220.5t-94.5 97.5
q-30 0 -52 -20.5t-34 -55t-17.5 -72t-5.5 -78.5z" />
    <glyph glyph-name="R" unicode="R" horiz-adv-x="795" 
d="M180 0q-14 0 -80 -2t-97 -2q-17 0 -17 9q0 10 17 10q58 0 82 25.5t24 99.5v520q1 74 -23 99.5t-83 25.5q-17 0 -17 10q1 10 18 10q25 0 92 -2.5t85 -2.5h212q162 0 236 -54t74 -157q0 -54 -19.5 -93.5t-53.5 -61t-71.5 -32t-80.5 -11.5q-16 0 -16 -9q0 -6 14 -8
q67 -18 114.5 -58.5t90.5 -140.5q43 -97 66.5 -128.5t59.5 -31.5q17 0 17 -9q0 -10 -17 -10q-73 1 -114 2.5t-80 8t-57.5 14t-37.5 26t-29.5 39t-26.5 57.5l-88 203q-20 47 -34 47q-17 0 -17 -31v-222q-1 -74 23 -99.5t82 -25.5q17 0 17 -10t-17 -10q-26 0 -93 2.5t-85 2.5
h-70zM323 439q0 -21 9 -27.5t28 -6.5q52 0 90 50.5t38 147.5q0 84 -28 131t-78 47q-26 0 -42.5 -13t-16.5 -51v-278z" />
    <glyph glyph-name="S" unicode="S" horiz-adv-x="586" 
d="M300 -16q-34 0 -84.5 4t-59.5 4q-16 0 -41 -4t-32 -4q-15 0 -15 19q0 6 -12 298q0 12 7 12q9 0 12 -14q38 -167 91.5 -231t151.5 -64q49 0 74 28.5t25 63.5q0 62 -45 114.5t-121 110.5q-55 41 -83.5 65t-60 58.5t-44.5 70t-13 78.5q0 105 68 164t167 59q37 0 82 -4t51 -4
q16 0 38 3.5t28 3.5q16 0 16 -22q0 -138 12 -230q3 -21 -5 -21t-14 17q-38 128 -82 182.5t-134 54.5q-48 0 -73 -27.5t-25 -61.5q0 -45 43 -89t138 -114q100 -74 143 -133t43 -143q0 -115 -69.5 -179.5t-176.5 -64.5z" />
    <glyph glyph-name="T" unicode="T" horiz-adv-x="729" 
d="M331 0q-15 0 -83.5 -2t-100.5 -2q-18 0 -18 9q0 10 18 10q61 0 85.5 25.5t24.5 99.5v606q0 38 -30 38h-17q-33 0 -62.5 -33t-50.5 -78.5t-46 -118.5q-6 -17 -12 -17q-9 0 -7 17q1 34 1 125q0 28 -5 62.5t-5 37.5q0 14 5.5 19.5t19.5 5.5q18 0 70.5 -2t79.5 -2h333
q27 0 79.5 2t71.5 2q25 0 25 -25q0 -3 -5.5 -37.5t-5.5 -62.5q0 -91 1 -125q2 -17 -7 -17q-5 0 -12 17q-39 112 -75 171t-84 59h-17q-30 0 -30 -38v-606q-1 -74 24 -99.5t85 -25.5q18 -1 18 -10q0 -10 -18 -10q-27 0 -96.5 2.5t-87.5 2.5h-66z" />
    <glyph glyph-name="U" unicode="U" horiz-adv-x="802" 
d="M415 -16q-146 0 -223.5 80t-77.5 240v356q1 74 -23 99.5t-83 25.5q-17 0 -17 10q1 10 18 10q25 0 92 -2.5t85 -2.5h71q14 0 80.5 2t97.5 2q17 0 17 -9q0 -10 -17 -10q-59 0 -83 -25.5t-24 -99.5v-356q0 -127 43 -183.5t131 -56.5q168 0 168 247v349q1 74 -23 99.5
t-83 25.5q-17 0 -17 10q1 10 18 10q92 -3 115 -4q57 3 114 3q17 0 17 -9q0 -10 -17 -10q-58 0 -82 -25.5t-24 -99.5v-349q0 -75 -11.5 -130t-40.5 -102t-84.5 -71t-136.5 -24z" />
    <glyph glyph-name="V" unicode="V" horiz-adv-x="794" 
d="M129 668q-25 68 -54 92.5t-71 24.5q-13 0 -13 9q0 10 13 10q20 0 57 -2t49 -2h108q18 0 98.5 2t117.5 2q20 0 20 -9q0 -10 -20 -10q-48 0 -69.5 -9t-27 -35t14.5 -73l140 -389q17 -44 32 0l128 388q22 73 4 95.5t-88 22.5q-20 0 -20 9q0 10 21 10q23 0 68.5 -2t69.5 -2
q10 0 39.5 2t44.5 2q12 0 12 -9q0 -10 -12 -10q-43 0 -70 -24t-50 -94l-221 -666q-5 -17 -23 -17h-30q-18 0 -24 17z" />
    <glyph glyph-name="W" unicode="W" horiz-adv-x="1139" 
d="M755 -16q-17 0 -22 17l-133 486q-4 15 -8.5 20t-9 0t-8.5 -20l-141 -486q-5 -17 -23 -17h-45q-17 0 -23 17l-202 665q-21 71 -51 95t-83 24q-15 0 -15 9q0 10 15 10q28 0 87 -2t71 -2h94q12 0 69.5 2t83.5 2h7h6q26 0 83.5 -2t69.5 -2h91q14 0 76 2t90 2q16 0 16 -9
q0 -10 -16 -10q-54 0 -68.5 -23t1.5 -99l92 -387q11 -47 24 0l110 389q19 74 6 97t-67 23q-16 0 -16 9q0 10 16 10t50.5 -2t57.5 -2q16 0 48.5 2t46.5 2q13 0 13 -9q0 -10 -13 -10q-48 0 -75.5 -24.5t-47.5 -95.5l-189 -664q-5 -17 -23 -17h-45zM357 665l110 -396
q13 -46 27 0l77 267q15 47 -1 93l-12 37q-22 70 -52 94.5t-82 24.5h-7h-6q-50 0 -61.5 -23t7.5 -97z" />
    <glyph glyph-name="X" unicode="X" horiz-adv-x="844" 
d="M606 0q-17 0 -96.5 -2t-116.5 -2q-21 0 -21 9q0 10 21 10q69 0 81.5 19.5t-24.5 87.5l-107 186q-25 41 -50 0l-114 -188q-23 -39 17 -72t107 -33q17 0 17 -9q0 -10 -17 -10q-38 0 -80.5 2t-54.5 2h-26q-11 0 -64 -2t-78 -2q-14 0 -14 9q0 10 14 10q48 0 84 21.5t74 83.5
l126 208q25 41 1 84l-153 266q-36 63 -67 85t-67 22q-11 0 -11 9q0 10 12 10q16 0 46.5 -2t40.5 -2h135q17 0 96.5 2t116.5 2q20 0 20 -9q0 -10 -20 -10q-69 0 -81.5 -19.5t24.5 -86.5l92 -160q24 -41 49 0l107 175q27 45 -1 68t-97 23q-17 0 -17 10q0 9 17 9q30 0 77.5 -2
t61.5 -2q20 0 78.5 2t91.5 2q22 0 22 -9q0 -10 -22 -10q-69 0 -114.5 -21.5t-84.5 -83.5l-110 -180q-25 -41 -1 -84l169 -294q36 -63 68 -85t72 -22q13 0 13 -9q0 -10 -13 -10q-17 0 -51 2t-46 2h-132z" />
    <glyph glyph-name="Y" unicode="Y" horiz-adv-x="786" 
d="M509 140q-1 -74 28 -99.5t99 -26.5q20 0 20 -9q0 -10 -21 -10q-37 0 -116.5 2.5t-96.5 2.5h-42q-17 0 -96.5 -2t-116.5 -2q-20 0 -20 9q0 10 20 10q70 0 99 25.5t29 99.5v163q0 48 -23 92l-142 280q-33 64 -63.5 87t-68.5 23q-12 0 -12 9q0 10 12 10q17 0 50 -2t44 -2
h118q17 0 97.5 2t117.5 2q21 0 21 -9q0 -10 -21 -10q-47 0 -67 -8t-22.5 -33t22.5 -70l112 -230q10 -21 21 -21t21 21l110 229q32 70 21.5 91t-68.5 21q-18 0 -18 9q0 10 18 10q19 0 57.5 -2t60.5 -2q12 0 44.5 2t48.5 2q14 0 14 -9q0 -10 -14 -10q-48 0 -81 -23t-64 -89
l-111 -230q-21 -45 -21 -92v-211z" />
    <glyph glyph-name="Z" unicode="Z" horiz-adv-x="676" 
d="M603 804q10 0 14 -8t-1 -17l-333 -719q-20 -44 28 -44h63q50 0 82 11t62 46t53 80.5t61 133.5q6 13 12 13q8 0 8 -16q-8 -170 -40 -248q-6 -15 -8 -19t-8 -11t-14.5 -8.5t-23.5 -1.5t-69 2t-92 2h-171q-38 0 -96.5 -2t-77.5 -2t-22.5 8t4.5 24l344 712q20 44 -27 44h-64
q-93 0 -140.5 -67t-67.5 -200q-1 -15 -12 -15q-7 0 -7 14q0 10 3.5 64t3.5 91q0 25 -1.5 61t-1.5 45q0 27 25 27q16 0 56.5 -2t76.5 -2h242q34 0 82 2t57 2z" />
    <glyph glyph-name="bracketleft" unicode="[" horiz-adv-x="383" 
d="M50 840q0 30 30 30h279q12 0 12 -10t-12 -10h-64q-30 0 -30 -32v-1017q0 -32 30 -32h64q12 0 12 -10t-12 -10h-279q-30 0 -30 30v1061z" />
    <glyph glyph-name="backslash" unicode="\" horiz-adv-x="279" 
d="M284 15q6 -19 -10 -19q-14 0 -20 19l-266 801q-5 14 11 14q14 0 19 -14z" />
    <glyph glyph-name="bracketright" unicode="]" horiz-adv-x="389" 
d="M339 -221q0 -30 -30 -30h-279q-12 0 -12 10t12 10h64q30 0 30 32v1017q0 32 -30 32h-64q-12 0 -12 10t12 10h279q30 0 30 -30v-1061z" />
    <glyph glyph-name="asciicircum" unicode="^" horiz-adv-x="519" 
d="M228 778q12 23 31 23t30 -23l176 -366q8 -16 -13 -16q-11 0 -19 16l-141 288q-16 35 -33 35t-34 -35l-139 -288q-8 -16 -18 -16q-22 0 -14 16z" />
    <glyph glyph-name="underscore" unicode="_" horiz-adv-x="774" 
d="M57 -145q-17 0 -17 13q0 14 17 14h660q17 0 17 -14q0 -13 -17 -13h-660z" />
    <glyph glyph-name="grave" unicode="`" horiz-adv-x="280" 
d="M220 641q7 -21 -8 -21q-9 0 -26 15l-121 114q-32 29 -22.5 56t54.5 27q29 0 49.5 -17.5t28.5 -43.5z" />
    <glyph glyph-name="a" unicode="a" horiz-adv-x="566" 
d="M146 -16q-56 0 -92 32.5t-36 90.5q0 35 19 65t57 53.5t74 39.5t91 36q46 16 46 65v27q0 80 -14 108t-45 28q-26 0 -38 -12.5t-12 -42.5q0 -10 6.5 -35.5t6.5 -45.5q0 -31 -20.5 -50t-58.5 -19q-39 0 -60.5 21t-21.5 56q0 64 63 111t162 47q105 0 160 -48.5t55 -139.5
q0 -45 -2.5 -135.5t-2.5 -135.5q0 -47 35 -47q15 0 31 21t23 66q1 12 8 12q8 0 7 -12q-8 -80 -47.5 -117.5t-113.5 -37.5q-56 0 -93.5 38.5t-24.5 93.5q2 10 -2.5 15t-11 2t-10.5 -13q-25 -74 -55.5 -105.5t-82.5 -31.5zM190 168q0 -58 41 -58q25 0 49.5 27t24.5 59v65
q0 23 -12 30.5t-33 -2.5q-70 -43 -70 -121z" />
    <glyph glyph-name="b" unicode="b" horiz-adv-x="618" 
d="M325 -16q-84 0 -176 14.5t-91 31.5q0 7 5 30.5t9.5 61.5t4.5 83v494q0 37 -7.5 50.5t-24.5 13.5q-15 0 -35 -2.5t-24 -2.5q-14 -1 -14 9q0 9 18 12q37 5 130.5 28t123.5 23h1q22 0 22 -20q0 -44 -4.5 -133t-4.5 -134v-104q0 -10 4.5 -13.5t10.5 -1t10 9.5q72 124 149 124
q75 0 119 -66t44 -192q0 -152 -68.5 -234t-201.5 -82zM258 173q0 -160 71 -160q76 0 76 245q0 187 -74 187q-25 0 -49 -29t-24 -87v-156z" />
    <glyph glyph-name="c" unicode="c" horiz-adv-x="490" 
d="M252 -16q-106 0 -167.5 74t-61.5 199q0 134 70.5 217.5t192.5 83.5q72 0 125 -39t53 -104q0 -39 -24.5 -64t-62.5 -25q-34 0 -54.5 16t-20.5 45q0 15 13.5 40t13.5 41q0 32 -14 46.5t-33 14.5q-38 0 -58 -60.5t-20 -138.5q0 -102 34.5 -162.5t105.5 -60.5q34 0 67.5 29
t48.5 86q4 11 10 11q8 0 5 -14q-39 -235 -223 -235z" />
    <glyph glyph-name="d" unicode="d" horiz-adv-x="621" 
d="M199 -16q-78 0 -127 68.5t-49 194.5q0 148 61 230t145 82q31 0 66 -15t44 -15q14 0 17.5 10t3.5 43v117q0 36 -8 50t-25 14q-15 0 -36 -2.5t-25 -2.5q-15 -1 -15 9q0 9 19 12q38 5 132.5 27.5t125.5 23.5q22 -1 22 -20q0 -31 -5 -118.5t-5 -131.5v-420q0 -74 22 -99.5
t74 -25.5q17 0 17 -10q0 -9 -17 -9q-16 0 -66 2t-82 2q-40 0 -87.5 -8t-48.5 -8q-8 -1 -10.5 5t-0.5 17.5t5.5 24.5t6.5 29.5t4 29.5q1 15 -8.5 16t-16.5 -11q-61 -111 -133 -111zM213 279q0 -186 73 -186q25 0 49.5 20.5t24.5 63.5v135q0 87 -17.5 145.5t-53.5 58.5
q-34 0 -55 -65.5t-21 -171.5zM526 830h2h2h-4z" />
    <glyph glyph-name="e" unicode="e" horiz-adv-x="499" 
d="M250 -16q-103 0 -165 71t-62 203q0 122 68.5 211t175.5 89q89 0 146.5 -47t57.5 -111q0 -42 -16.5 -55t-76.5 -13h-135q-44 0 -44 -41v-28q0 -74 34 -117t94 -43q39 0 77.5 29t58.5 94q5 14 11 14q7 0 4 -15q-26 -127 -81 -184t-147 -57zM200 388q0 -44 39 -44h18
q44 0 44 62q0 64 -10 94t-36 30t-38.5 -32.5t-16.5 -109.5z" />
    <glyph glyph-name="f" unicode="f" horiz-adv-x="428" 
d="M137 0q-15 0 -61.5 -2t-72.5 -2q-17 0 -17 9q0 10 17 10q53 0 75.5 25.5t22.5 99.5l1 328q0 45 -46 45h-35q-18 0 -18 9q0 11 18 11q91 0 115 43q60 109 153.5 185.5t154.5 76.5q34 0 51.5 -21.5t17.5 -51.5q0 -34 -18.5 -58t-49.5 -24q-22 0 -69 20t-61 20
q-20 0 -27 -12t-7 -47v-91q0 -26 11 -34t31 -8q17 0 55 6.5t45 6.5q18 0 18 -15q0 -16 -21 -16h-93q-46 0 -46 -45v-328q0 -74 29 -99.5t96 -25.5q22 0 22 -9q0 -10 -22 -10q-32 0 -92 2t-80 2h-97z" />
    <glyph glyph-name="g" unicode="g" horiz-adv-x="584" 
d="M242 -236q-102 0 -170.5 32.5t-68.5 88.5q0 32 29 57t98 27q10 1 14 6t0 10t-14 6q-35 0 -55 15t-24 27.5t-4 26.5q0 38 31 67t74 46q27 12 -20 40q-38 23 -63 62.5t-25 85.5q0 85 64.5 141t174.5 56q56 0 104 -16q42 -14 58 0q72 64 125 64q23 0 34.5 -12.5t11.5 -31.5
q0 -21 -12 -36t-31 -15q-15 0 -57.5 8t-62.5 8q-8 0 -11 -2t-2 -5.5t4.5 -8t8.5 -8.5q59 -51 59 -135q0 -88 -63 -141t-170 -53q-19 0 -43 2t-32 2t-23 -3q-11 -4 -17.5 -11.5t-6.5 -15.5q0 -11 7.5 -17.5t35.5 -11t80 -4.5h141q164 0 164 -120q0 -100 -97 -165.5
t-246 -65.5zM120 -76q0 -27 56.5 -50.5t153.5 -23.5q195 0 195 66q0 53 -120 53h-219q-66 0 -66 -45zM220 441q0 -80 19 -159t53 -79q44 0 44 87q0 81 -19 160.5t-53 79.5q-44 0 -44 -89z" />
    <glyph glyph-name="h" unicode="h" horiz-adv-x="684" 
d="M134 0q-14 0 -57 -2t-66 -2q-16 0 -16 9q0 10 16 10q48 0 68.5 25.5t21.5 99.5v559q0 64 -32 64q-15 0 -35 -2.5t-24 -2.5q-15 -1 -15 9q0 9 18 12q38 5 131.5 28t122.5 23q23 0 23 -20q0 -37 -5 -126.5t-5 -140.5v-71q0 -48 33 -12q45 50 82 74.5t79 24.5q59 0 94 -40.5
t35 -126.5v-252q0 -73 19.5 -99t63.5 -26q15 0 15 -9q0 -10 -15 -10q-21 0 -61 2t-54 2h-122q-23 0 -53 -1t-43 -1h-1h-1q-18 0 -46 1t-51 1h-120zM280 143q0 -67 17 -98.5t54 -31.5h1h1q37 0 53.5 31.5t16.5 98.5v256q0 65 -48 65q-32 0 -63.5 -20t-31.5 -64v-237z" />
    <glyph glyph-name="i" unicode="i" horiz-adv-x="371" 
d="M281 140q0 -74 22.5 -99.5t73.5 -25.5q17 0 17 -9q0 -10 -17 -10q-25 0 -71 2t-61 2h-108q-15 0 -61.5 -2t-72.5 -2q-17 0 -17 9q0 10 17 10q53 0 75.5 25.5t22.5 99.5l1 288q0 63 -32 63q-15 0 -35.5 -2.5t-24.5 -2.5q-14 0 -14 10q0 8 18 11q37 5 130 28t123 24
q23 0 23 -27q0 -23 -4.5 -118.5t-4.5 -144.5v-129zM83 704q0 40 26.5 65t70.5 25q43 0 69.5 -25t26.5 -65t-26.5 -64.5t-69.5 -24.5t-70 24.5t-27 64.5zM266 559h1h1h-2z" />
    <glyph glyph-name="j" unicode="j" horiz-adv-x="354" 
d="M-46 -236q-33 0 -50 21t-17 51q0 35 18 58.5t49 23.5q21 0 70.5 -18t68.5 -16q13 2 17 12t4 41v491q0 36 -7.5 49.5t-24.5 13.5q-15 0 -35 -2.5t-24 -2.5q-14 0 -14 10q0 8 18 11q37 5 130 28t123 24q23 0 23 -27q0 -23 -4.5 -118.5t-4.5 -144.5v-81q0 -82 -42.5 -164
t-100 -136.5t-112.5 -89t-85 -34.5zM107 704q0 40 26.5 65t70.5 25q43 0 69.5 -25t26.5 -65t-26.5 -64.5t-69.5 -24.5t-70 24.5t-27 64.5zM279 559h1h1h-2z" />
    <glyph glyph-name="k" unicode="k" horiz-adv-x="745" 
d="M145 0q-15 0 -61.5 -2t-72.5 -2q-17 0 -17 9q0 10 17 10q53 0 75.5 25.5t22.5 99.5l1 559q0 64 -32 64q-15 0 -35.5 -2.5t-24.5 -2.5q-14 -1 -14 9q0 9 18 12q37 5 130.5 28t123.5 23q23 0 23 -20q0 -44 -5 -132t-5 -132v-200q0 -33 8 -40.5t25 7.5l137 117
q28 24 31.5 44.5t-24.5 34.5t-86 14q-13 0 -13 10q0 9 14 9q11 0 76.5 -1.5t127.5 -2.5q14 0 55.5 2t63.5 2q16 0 16 -9q0 -11 -16 -10q-51 0 -95.5 -14.5t-99.5 -59.5l-38 -31q-25 -19 -9 -46l140 -250q36 -63 68 -85t72 -22q13 0 13 -9q0 -10 -13 -10q-18 0 -52.5 2
t-45.5 2h-137q-33 0 -75 -1t-59 -1q-21 0 -55 1t-60 1h-113zM289 143q0 -67 20 -98.5t64 -31.5q51 0 57 27.5t-27 85.5l-82 152q-11 20 -23 7q-9 -10 -9 -34v-108z" />
    <glyph glyph-name="l" unicode="l" horiz-adv-x="368" 
d="M275 140q0 -73 20.5 -99t67.5 -26q15 0 15 -9q0 -10 -15 -10q-22 0 -64.5 2t-56.5 2h-114q-14 0 -56 -2t-66 -2q-16 0 -16 9q0 10 16 10q48 0 68.5 25.5t21.5 99.5v559q0 64 -32 64q-15 0 -35.5 -2.5t-24.5 -2.5q-14 -1 -14 9q0 9 18 12q37 5 130 28t123 23q24 0 24 -20
q0 -33 -5 -131t-5 -150v-389zM261 830h1h-1z" />
    <glyph glyph-name="m" unicode="m" horiz-adv-x="996" 
d="M137 0q-15 0 -61.5 -2t-72.5 -2q-17 0 -17 9q0 10 17 10q53 0 75.5 25.5t22.5 99.5l1 288q0 63 -32 63q-15 0 -35.5 -2.5t-24.5 -2.5q-14 0 -14 10q0 8 18 11q37 5 130.5 28.5t123.5 23.5h1q21 0 21 -21q0 -6 -5 -59q-2 -23 5 -26t21 16q76 90 152 90q73 0 108 -83
q16 -46 46 -8q79 91 154 91q58 0 92.5 -40.5t34.5 -126.5v-252q0 -73 23 -99t75 -26q17 0 17 -9q0 -10 -17 -10q-25 0 -72 2t-62 2h-120q-21 0 -48 -1t-38 -1h-1h-1q-16 0 -41.5 1t-45.5 1h-133q-21 0 -48 -1t-38 -1h-2h-1q-16 0 -42 1t-46 1h-120zM281 143q0 -67 15 -98.5
t49 -31.5h1h2q63 0 63 130v253q0 68 -47 68q-9 0 -20 -2.5t-27 -9t-26 -23.5t-10 -42v-244zM590 143q0 -130 64 -130h1h1q63 0 63 130v253q0 68 -47 68q-30 0 -56 -14.5t-26 -46.5v-260z" />
    <glyph glyph-name="n" unicode="n" horiz-adv-x="700" 
d="M137 0q-15 0 -61.5 -2t-72.5 -2q-17 0 -17 9q0 10 17 10q53 0 75.5 25.5t22.5 99.5l1 288q0 63 -32 63q-15 0 -35.5 -2.5t-24.5 -2.5q-14 0 -14 9t18 12q37 5 130.5 28t123.5 23h2q20 0 20 -20q0 -7 -5 -62q-2 -23 5 -26t22 15q85 94 162 94q58 0 93 -40.5t35 -126.5
v-252q0 -73 23 -99t74 -26q18 0 18 -9q0 -10 -18 -10q-25 0 -72 2t-62 2h-116q-24 0 -54 -1t-42 -1h-1q-18 0 -46.5 1t-50.5 1h-118zM281 143q0 -67 16.5 -98.5t54.5 -31.5h1q37 0 53.5 31.5t16.5 98.5v253q0 68 -47 68q-36 0 -65.5 -19t-29.5 -65v-237z" />
    <glyph glyph-name="o" unicode="o" horiz-adv-x="586" 
d="M293 -16q-124 0 -197 80.5t-73 203.5q0 131 72.5 210.5t197.5 79.5q123 0 196.5 -80.5t73.5 -202.5q0 -131 -72.5 -211t-197.5 -80zM201 407q0 -57 9 -123.5t25.5 -128t44 -102t59.5 -40.5q46 0 46 118q0 56 -10.5 123.5t-27.5 128.5t-44 102t-56 41q-46 0 -46 -119z" />
    <glyph glyph-name="p" unicode="p" horiz-adv-x="633" 
d="M126 -220q-15 0 -61 -2t-71 -2q-17 0 -17 9q0 10 17 10q52 0 74 25.5t23 99.5v508q0 63 -32 63q-15 0 -35 -2.5t-24 -2.5q-15 0 -15 9t18 12q38 5 131.5 28t122.5 23h2q21 0 21 -20q0 -12 -3 -36t-3 -30q-1 -12 0 -18t3.5 -7t7 3.5t10.5 14.5q63 93 140 93
q75 0 124 -70.5t49 -197.5q0 -147 -60.5 -228.5t-146.5 -81.5q-31 0 -66.5 15t-44.5 15q-13 0 -16.5 -7.5t-3.5 -24.5v-58q0 -73 27.5 -99t89.5 -26q21 0 21 -9q0 -10 -21 -10q-30 0 -86 2t-75 2h-100zM270 212q0 -190 73 -190q34 0 54.5 61t20.5 177q0 213 -74 213
q-28 0 -51 -33t-23 -95v-133z" />
    <glyph glyph-name="q" unicode="q" horiz-adv-x="617" 
d="M398 -220q-17 0 -69 -2t-80 -2q-19 0 -19 9q0 10 19 10q58 0 83.5 25.5t25.5 99.5v167q0 15 -9 16t-16 -11q-33 -57 -61 -82.5t-69 -25.5q-79 0 -129.5 63.5t-50.5 193.5q0 148 59 233t177 85q34 0 87.5 -10.5t70.5 -10.5q20 0 56.5 10.5t48.5 10.5q10 0 16.5 -8.5
t5.5 -21.5q-5 -152 -5 -272v-337q0 -74 18.5 -99.5t60.5 -25.5q14 0 14 -9q0 -10 -14 -10q-20 0 -58 2t-51 2h-111zM212 279q0 -92 19 -139t64 -47q25 0 44.5 25t19.5 88v163q0 161 -70 161q-36 0 -56.5 -63t-20.5 -188z" />
    <glyph glyph-name="r" unicode="r" horiz-adv-x="529" 
d="M137 0q-15 0 -61 -2t-71 -2q-18 0 -18 9q0 10 17 10q52 0 74.5 25.5t22.5 99.5l1 288q0 63 -32 63q-15 0 -35.5 -2.5t-24.5 -2.5q-14 0 -14 9t18 12q37 5 130.5 28t123.5 23h1q21 0 21 -20q0 -13 -3.5 -44t-4.5 -48q0 -12 1 -18t3.5 -6.5t6 4.5t8.5 15q27 51 63 84t75 33
q36 0 57.5 -22.5t21.5 -65.5q0 -49 -24 -77t-59 -28q-24 0 -39 11.5t-20 25.5t-16.5 25.5t-28.5 11.5q-20 0 -35 -30.5t-15 -67.5v-201q0 -74 33.5 -99.5t110.5 -25.5q26 0 26 -9q0 -10 -26 -10q-37 0 -106 2t-92 2h-90z" />
    <glyph glyph-name="s" unicode="s" horiz-adv-x="436" 
d="M231 -16q-28 0 -71 6.5t-55 6.5q-11 0 -28.5 -4t-24.5 -4q-15 0 -15 15q0 32 -18 212q-1 12 7 12q5 0 8 -10q60 -206 211 -206q70 0 70 50q0 47 -156 154q-71 47 -99 86.5t-28 88.5q0 77 50 122t120 45q26 0 63 -5.5t52 -5.5q17 0 33 3.5t22 3.5q15 0 15 -16
q0 -36 11 -184q1 -14 -7 -14q-6 0 -10 12q-21 79 -77.5 128t-111.5 49q-25 0 -38.5 -14t-13.5 -35q0 -23 32.5 -52.5t100.5 -75.5q78 -54 110.5 -95t32.5 -104q0 -84 -53 -126.5t-132 -42.5z" />
    <glyph glyph-name="t" unicode="t" horiz-adv-x="448" 
d="M415 249q1 14 9 14q7 0 6 -14q-14 -139 -56 -202t-131 -63q-76 0 -115.5 47.5t-39.5 157.5v287q0 37 -37 37h-44q-17 0 -17 9q0 11 17 11q47 0 94.5 15.5t86 51t47.5 83.5q4 15 7 20t10 5q11 0 11 -24v-113q0 -21 14 -30.5t32 -9.5q17 0 47 6t36 6q18 0 18 -14
q0 -16 -21 -16h-84q-37 0 -37 -37v-279q0 -59 17 -89.5t43 -30.5q28 0 51 45t36 127z" />
    <glyph glyph-name="u" unicode="u" horiz-adv-x="656" 
d="M200 -16q-59 0 -90.5 37t-31.5 110v297q0 63 -32 63q-15 0 -35.5 -2.5t-24.5 -2.5q-14 0 -14 10q0 8 18 11q37 5 130.5 28.5t123.5 23.5h2q21 0 21 -23q0 -21 -5 -90t-5 -103v-179q0 -41 10.5 -58.5t35.5 -17.5q31 0 59.5 29t28.5 71v266q0 23 -5.5 30t-17.5 7
q-11 0 -26.5 -2.5t-18.5 -2.5q-10 0 -10 10q0 8 13 11q11 2 95.5 27t137.5 25q21 0 21 -23q0 -21 -4.5 -90t-4.5 -104v-202q0 -74 22 -99.5t74 -25.5q17 0 17 -10q0 -9 -17 -9t-67.5 2t-81.5 2q-39 0 -87 -8t-49 -8q-8 0 -10.5 6.5t-0.5 19t5.5 25.5t6.5 30t3 30
q0 10 -4.5 13.5t-10.5 1t-10 -9.5q-75 -116 -161 -116z" />
    <glyph glyph-name="v" unicode="v" horiz-adv-x="582" 
d="M444 401q20 63 4.5 93t-72.5 31q-57 -1 -73 -31t4 -93l54 -182q4 -15 9 -20t10 0t9 20zM-8 532q0 10 12 10q18 0 50.5 -2t43.5 -2h128q35 0 81.5 1t65.5 1h1h1h2h1q26 0 120 -2q11 0 38.5 2t40.5 2q12 0 12 -9q0 -10 -11 -10q-42 0 -68 -24.5t-47 -94.5l-120 -398
q-6 -21 -29 -21h-35q-22 0 -30 21l-132 399q-23 69 -49.5 93.5t-63.5 24.5q-12 0 -12 9z" />
    <glyph glyph-name="w" unicode="w" horiz-adv-x="907" 
d="M562 -15q-22 0 -28 22l-75 269q-12 46 -28 1l-87 -271q-6 -21 -29 -21h-52q-22 0 -30 21l-131 399q-23 69 -46 93.5t-54 24.5q-10 0 -10 9q0 10 10 10q14 0 41 -2t36 -2h149q15 0 43 1t43 1q18 0 46.5 -1t50.5 -1h130q31 0 72.5 1t64.5 1q18 0 46.5 -1t41.5 -1h2
q15 0 60 2t69 2q17 0 17 -9q0 -10 -16 -10q-52 0 -83 -24.5t-53 -94.5l-121 -398q-6 -21 -29 -21h-50zM295 403l68 -194q5 -14 10.5 -19t11 0t9.5 20l33 103q15 49 -2 93l-10 27q-9 25 -14 37t-15.5 27.5t-25.5 21.5t-37 6q-40 0 -46 -29.5t18 -92.5zM609 403l50 -196
q12 -45 26 0l57 186q20 65 2.5 98.5t-67.5 33.5q-100 0 -68 -122z" />
    <glyph glyph-name="x" unicode="x" horiz-adv-x="587" 
d="M370 0q-38 0 -88.5 -1t-71.5 -1h-1q-32 0 -122 2q-3 0 -38.5 -2t-54.5 -2q-14 0 -14 9q0 10 14 10q43 0 76.5 22.5t68.5 85.5l42 77q23 42 2 87l-64 126q-33 64 -63.5 87t-68.5 23q-12 0 -12 9q0 10 12 10q18 0 50.5 -2t43.5 -2h127q38 0 88 1t71 1h1q32 0 120 -2
q5 0 43.5 2t59.5 2q16 0 16 -9q0 -10 -15 -10q-48 0 -83.5 -22.5t-70.5 -85.5l-41 -76q-24 -43 -2 -87l65 -127q32 -64 62.5 -87t68.5 -23q13 0 13 -9q0 -10 -13 -10q-17 0 -50 2t-44 2h-127zM159 125q-33 -58 -22.5 -85t72.5 -27q61 0 72.5 27.5t-20.5 86.5l-27 53
q-22 42 -45 0zM316 411l27 -53q22 -42 45 0l30 54q33 58 22.5 85.5t-72.5 27.5h-1q-60 0 -71.5 -27.5t20.5 -86.5z" />
    <glyph glyph-name="y" unicode="y" horiz-adv-x="603" 
d="M172 -235q-46 0 -75 30t-29 63q0 30 24 38q12 4 45 12.5t58 16t53 17.5t43.5 22.5t16.5 25.5q0 8 -3.5 19.5t-9 23.5t-18.5 40.5t-25 56.5l-115 278q-28 67 -58.5 91t-72.5 24q-14 0 -14 9q0 10 14 10q20 0 57 -2t49 -2h120q38 0 87.5 1t69.5 1h2h3h3h1q30 0 118 -2
q2 0 34 2t49 2q12 0 12 -9q0 -10 -12 -10q-38 0 -65.5 -24t-53.5 -92l-157 -417q-46 -120 -78 -172.5t-73 -52.5zM329 405l53 -133q5 -14 11 -19t12 0t11 19l48 132q23 61 7 90.5t-77 30.5q-61 -1 -75.5 -30t10.5 -90z" />
    <glyph glyph-name="z" unicode="z" horiz-adv-x="481" 
d="M425 -10q-2 0 -61 5t-124 5q-62 0 -123.5 -2.5t-62.5 -2.5q-15 0 -20.5 12t3.5 35l210 446q17 36 -23 36h-26q-73 0 -109.5 -59.5t-37.5 -161.5q0 -20 -9 -20q-6 0 -7.5 4t-0.5 16q5 91 5 219q0 16 6 21t19 5q1 0 71 -5t139 -5q46 0 101.5 2.5t59.5 2.5q16 0 21 -11.5
t-5 -34.5l-209 -447q-17 -36 23 -36h26q72 0 104.5 56.5t38.5 169.5q0 20 9 20q10 0 8 -20q-1 -32 -1 -223q0 -16 -6 -21.5t-19 -5.5z" />
    <glyph glyph-name="braceleft" unicode="{" horiz-adv-x="476" 
d="M52 312q-21 0 -21 10t21 10q138 1 138 123q0 29 -16.5 100t-16.5 123q0 84 59.5 128t198.5 56q22 3 22 -6q0 -11 -22 -14q-62 -9 -83 -34t-21 -59q0 -36 34 -98t34 -118q0 -94 -61 -149.5t-134 -56.5q-9 -1 -9 -3q-1 -2 1.5 -3.5t7.5 -1.5q73 -1 134 -57t61 -150
q0 -56 -34 -130.5t-34 -110.5q0 -35 21 -59.5t83 -33.5q22 -4 22 -13q0 -8 -22 -7q-141 13 -199.5 56t-58.5 129q0 51 16.5 133.5t16.5 118.5q0 57 -30.5 86.5t-107.5 30.5z" />
    <glyph glyph-name="bar" unicode="|" horiz-adv-x="114" 
d="M41 805q0 15 17 15q15 0 15 -14q-7 -476 0 -951q0 -15 -16 -15t-16 14q7 476 0 951z" />
    <glyph glyph-name="braceright" unicode="}" horiz-adv-x="476" 
d="M424 312q-77 -1 -107.5 -30.5t-30.5 -86.5q0 -36 16.5 -118.5t16.5 -133.5q0 -86 -58.5 -129t-199.5 -56q-22 -1 -22 7q0 9 22 13q62 9 83 33.5t21 59.5q0 36 -34 110.5t-34 130.5q0 94 61 150t134 57q5 0 7.5 1.5t1.5 3.5q0 2 -9 3q-73 1 -134 56.5t-61 149.5
q0 56 34 118t34 98q0 34 -21 59t-83 34q-22 3 -22 14q0 9 22 6q139 -12 198.5 -56t59.5 -128q0 -52 -16.5 -123t-16.5 -100q0 -122 138 -123q21 0 21 -10t-21 -10z" />
    <glyph glyph-name="asciitilde" unicode="~" horiz-adv-x="520" 
d="M451 351q0 7 4.5 9.5t9.5 0t5 -9.5q0 -51 -29.5 -77.5t-73.5 -26.5q-41 0 -111.5 33t-110.5 33q-32 0 -53.5 -15.5t-21.5 -49.5q0 -7 -5 -10t-10 0t-5 10q0 51 29.5 77.5t73.5 26.5q41 0 111.5 -33t110.5 -33q30 0 53 19t23 46z" />
    <glyph glyph-name="exclamdown" unicode="&#xa1;" horiz-adv-x="276" 
d="M52 -180q0 43 19 113t38.5 166.5t19.5 204.5q0 19 11 19q9 0 9 -19q1 -108 20 -204.5t37.5 -166t18.5 -113.5q0 -47 -24 -72t-63 -25t-62.5 25t-23.5 72zM54 475q0 35 24.5 59.5t59.5 24.5t59.5 -24.5t24.5 -59.5t-25 -59.5t-59 -24.5q-35 0 -59.5 24.5t-24.5 59.5z" />
    <glyph glyph-name="cent" unicode="&#xa2;" horiz-adv-x="533" 
d="M267 -16q-19 0 -29 1q-28 5 -34 -23l-38 -170q-3 -13 -14 -13q-9 0 -6 13l40 175q6 28 -21 39q-60 29 -93.5 94.5t-33.5 156.5q0 134 70 217.5t192 83.5h8q10 -2 12 9l50 224q3 12 13 12t7 -12l-51 -226q-2 -10 8 -12q57 -11 94.5 -47.5t37.5 -90.5q0 -39 -24.5 -64
t-63.5 -25q-34 0 -54 16t-20 45q0 15 13 40t13 41q0 26 -9 39q-6 8 -8 -2l-69 -307q-6 -29 11 -51q35 -40 91 -40q34 0 67.5 29t48.5 86q2 11 9 11q8 0 5 -14q-39 -235 -222 -235zM218 330q0 -61 11 -102q8 -28 14 0l66 288q2 10 -8 12q-3 1 -9 1q-35 0 -54.5 -61.5
t-19.5 -137.5z" />
    <glyph glyph-name="sterling" unicode="&#xa3;" horiz-adv-x="739" 
d="M341 660q0 -47 25 -128.5t30 -103.5q5 -25 30 -25h114q12 0 11 -7q-3 -11 -20 -12h-127q4 -44 4 -72q0 -79 -24 -147q-9 -23 14 -31q46 -14 84 -14q70 0 118.5 34.5t63.5 104.5q2 10 7 13.5t9 -0.5t4 -13q0 -34 -9.5 -75.5t-29 -89t-59 -79t-92.5 -31.5q-62 0 -148 62
q-19 15 -37 -3q-62 -59 -144 -59q-51 0 -79 28.5t-28 78.5q0 54 36 85.5t96 31.5q20 0 36 -4q24 -6 26 18q2 16 2 50q0 42 -16 88q-8 24 -33 24h-95q-12 0 -11 7q3 11 20 12h79q26 0 16 23q-46 112 -46 172q0 106 65 164t172 58q99 0 153 -45t54 -107q0 -35 -20.5 -58
t-63.5 -23q-84 0 -83 95q0 27 -0.5 43.5t-4.5 33.5t-13.5 25t-25.5 8q-60 0 -60 -132zM81 92q0 -28 21.5 -45.5t50.5 -17.5q48 0 76 79q8 23 -13 36q-33 18 -55 18q-33 0 -56.5 -19.5t-23.5 -50.5z" />
    <glyph glyph-name="currency" unicode="&#xa4;" horiz-adv-x="704" 
d="M361 154q-66 0 -125 24q-27 13 -48 -8l-54 -54q-14 -14 -20 -4q-5 7 7 19l50 50q21 21 -3 38q-71 60 -71 145t70 144q23 19 3 39l-49 49q-13 13 -6.5 20t19.5 -6l53 -53q21 -21 47 -8q59 25 127 25q66 0 123 -27q26 -15 47 6l57 57q13 13 20 7t-6 -19l-56 -56
q-21 -21 1 -40q59 -59 59 -138q0 -78 -59 -139q-22 -19 -1 -40l56 -56q13 -13 6 -19.5t-20 6.5l-58 58q-21 21 -47 7q-56 -27 -122 -27zM215 364q0 -80 41.5 -131t104.5 -51q54 0 91 51.5t37 130.5t-37 130t-91 51q-63 0 -104.5 -50.5t-41.5 -130.5z" />
    <glyph glyph-name="yen" unicode="&#xa5;" horiz-adv-x="795" 
d="M385 0q-17 0 -96.5 -2t-116.5 -2q-21 0 -21 9q0 10 21 10q70 0 98.5 25.5t28.5 99.5v86q0 24 -24 24h-163q-15 0 -15 9.5t15 9.5h163q24 0 24 25v22q0 24 -24 24h-163q-15 0 -15 9.5t15 9.5h183l-160 316q-33 64 -63.5 87t-68.5 23q-12 0 -12 9q0 10 12 10q17 0 50 -2
t44 -2h118q17 0 97.5 2t117.5 2q21 0 21 -9q0 -10 -21 -10q-35 0 -54.5 -4.5t-29.5 -16.5t-6 -34t21 -57l121 -260q21 -45 40 1l110 257q29 71 17.5 92.5t-70.5 21.5q-17 0 -17 9q0 10 18 10q19 0 57.5 -2t60.5 -2q12 0 44.5 2t48.5 2q14 0 14 -9q0 -10 -14 -10
q-48 0 -79.5 -23.5t-60.5 -90.5l-124 -289q-9 -23 15 -23h147q15 0 15 -9.5t-15 -9.5h-150q-25 0 -25 -24v-22q0 -25 25 -25h150q15 0 15 -9.5t-15 -9.5h-150q-25 0 -25 -24v-86q-1 -74 27.5 -99.5t98.5 -26.5q21 0 21 -9q0 -10 -21 -10q-37 0 -116.5 2.5t-96.5 2.5h-42z
" />
    <glyph glyph-name="brokenbar" unicode="&#xa6;" horiz-adv-x="114" 
d="M41 802q0 6 6 10t11 4q15 0 15 -14q-8 -186 0 -371q0 -15 -16 -15q-5 0 -10.5 4t-5.5 11q8 185 0 371zM41 -145q8 185 0 371q0 6 6 10t11 4q15 0 15 -14q-8 -185 0 -371q0 -15 -16 -15q-5 0 -10.5 4t-5.5 11z" />
    <glyph glyph-name="section" unicode="&#xa7;" horiz-adv-x="517" 
d="M173 701q0 -39 29.5 -71.5t105.5 -91.5q90 -71 124.5 -112.5t34.5 -96.5q0 -47 -21.5 -79.5t-63.5 -68.5q-13 -12 0 -32q37 -55 37 -109q0 -78 -51 -123t-120 -45q-80 0 -128 35t-48 82q0 25 15.5 43.5t44.5 18.5q62 0 62 -72q0 -87 64 -87q33 0 59.5 29t26.5 67
t-30 71.5t-105 91.5q-90 71 -124.5 112.5t-34.5 96.5q0 90 84 152q14 11 -1 33q-34 47 -34 104q0 78 50.5 123t120.5 45q79 0 127 -35t48 -82q0 -25 -15.5 -43.5t-44.5 -18.5q-62 0 -62 72q0 36 -18 61t-53 25q-34 0 -56.5 -28t-22.5 -67zM124 429q0 -19 14.5 -44t33 -46.5
t48 -47.5t47.5 -40.5t44 -34.5l26 -19q23 -18 34 -3q18 25 18 65q0 14 -14.5 37t-35.5 46.5t-48.5 51t-49 46.5t-41 37t-21.5 19q-23 23 -34 3q-21 -32 -21 -70z" />
    <glyph glyph-name="dieresis" unicode="&#xa8;" horiz-adv-x="515" 
d="M145 633q-35 0 -59.5 24.5t-24.5 59.5t24.5 59.5t59.5 24.5t59.5 -24.5t24.5 -59.5t-24.5 -59.5t-59.5 -24.5zM286 717q0 35 25 59.5t59 24.5t59 -24.5t25 -59.5t-25 -59.5t-59 -24.5t-59 24.5t-25 59.5z" />
    <glyph glyph-name="copyright" unicode="&#xa9;" horiz-adv-x="920" 
d="M461 829q177 0 297.5 -124t120.5 -306q0 -178 -121 -303t-297 -125q-178 0 -299 125t-121 303q0 182 120.5 306t299.5 124zM80 399q0 -166 109.5 -287t271.5 -121q158 0 268.5 121.5t110.5 286.5q0 107 -49.5 201t-137.5 151.5t-192 57.5q-107 0 -195.5 -57.5t-137 -151
t-48.5 -201.5zM203 399q0 115 75 188t194 73q31 0 68.5 -5t59.5 -5q14 0 30 5t21 5q7 0 9.5 -4t2.5 -18q0 -120 6 -194q1 -20 -8 -20q-8 0 -11 17q-17 82 -60.5 141t-108.5 59q-43 0 -72 -17.5t-44 -50t-21 -69t-6 -84.5q0 -96 44 -159t120 -63q64 0 116 38t70 101
q4 15 12 15q9 0 4 -15q-24 -87 -83.5 -141.5t-158.5 -54.5q-115 0 -187 72.5t-72 185.5z" />
    <glyph glyph-name="guillemotleft" unicode="&#xab;" horiz-adv-x="537" 
d="M195 293q0 -9 5 -28.5t16 -49.5t19 -51.5t22.5 -60t19.5 -50.5q4 -11 -2 -11t-20 11q-73 61 -143.5 135.5t-70.5 104.5t70.5 104.5t143.5 135.5q24 19 24 7q0 -3 -2 -7q-5 -12 -19.5 -50.5t-22.5 -60t-19 -51.5t-16 -49.5t-5 -28.5zM259 293q0 30 70.5 104.5t143.5 135.5
q24 19 24 7q0 -3 -2 -7q-5 -12 -19.5 -50.5t-22.5 -60t-19 -51.5t-16 -49.5t-5 -28.5t5 -28.5t16 -49.5t19 -51.5t22.5 -60t19.5 -50.5q4 -11 -2 -11t-20 11q-73 61 -143.5 135.5t-70.5 104.5z" />
    <glyph glyph-name="logicalnot" unicode="&#xac;" horiz-adv-x="583" 
d="M509 418q8 0 16 -8t8 -16v-206q0 -11 -7.5 -15.5t-14.5 0t-7 15.5v157q0 44 -41 44h-403q-11 0 -15.5 7.5t0 14.5t15.5 7h449z" />
    <glyph glyph-name="registered" unicode="&#xae;" horiz-adv-x="920" 
d="M461 -29q-178 0 -299 125t-121 304q0 181 120.5 305t299.5 124q177 0 297.5 -124t120.5 -305q0 -179 -121 -304t-297 -125zM80 399q0 -166 109.5 -287t271.5 -121q158 0 268.5 121.5t110.5 286.5q0 107 -49.5 201t-137.5 151.5t-192 57.5q-107 0 -195.5 -57.5t-137 -151
t-48.5 -201.5zM204 146q0 10 9 10q31 0 43.5 25.5t12.5 99.5v240q0 74 -12.5 99.5t-42.5 25.5q-9 0 -9 10q0 9 9 9q16 0 50.5 -2t42.5 -2h124q218 0 218 -148q0 -53 -31.5 -85t-85.5 -41q-17 -3 -6 -14q3 -2 11 -8q34 -26 45 -48l31 -58q27 -53 49 -76t48 -23q9 0 12.5 -5
t0 -9.5t-12.5 -4.5q-78 0 -120.5 8t-59 21t-28.5 40l-68 148q-9 20 -28 20t-19 -25v-72q0 -74 13 -99.5t44 -25.5q9 0 9 -10q0 -9 -10 -9q-17 0 -52.5 2t-42.5 2h-42q-7 0 -41.5 -2t-51.5 -2q-9 0 -9 9zM387 416q0 -25 24 -25q41 0 73 35.5t32 85.5q0 59 -29 94.5t-63 35.5
q-20 0 -28.5 -8.5t-8.5 -29.5v-188z" />
    <glyph glyph-name="macron" unicode="&#xaf;" horiz-adv-x="495" 
d="M401 700h15t8.5 -1t6 -3t1.5 -5q0 -11 -31 -11h-307q-31 0 -31 11q0 6 6 7.5t25 1.5h307z" />
    <glyph glyph-name="degree" unicode="&#xb0;" horiz-adv-x="431" 
d="M215 476q-82 0 -133.5 49t-51.5 128t51.5 128t133.5 49q83 0 134.5 -49t51.5 -128t-51.5 -128t-134.5 -49zM130 653q0 -40 24 -66t61 -26t61 26t24 66t-24 66t-61 26t-61 -26t-24 -66z" />
    <glyph glyph-name="plusminus" unicode="&#xb1;" horiz-adv-x="481" 
d="M61 80q-15 0 -15 14.5t15 14.5h360q15 0 15 -14.5t-15 -14.5h-360zM60 356q-11 0 -15.5 7t0 14t15.5 7h141q25 0 25 25v141q0 11 7 15.5t14 0t7 -15.5v-141q0 -25 25 -25h141q11 0 15.5 -7t0 -14t-15.5 -7h-141q-25 0 -25 -25v-141q0 -11 -7 -15.5t-14 0t-7 15.5v141
q0 25 -25 25h-141z" />
    <glyph glyph-name="acute" unicode="&#xb4;" horiz-adv-x="280" 
d="M105 771q8 26 28.5 43.5t49.5 17.5q45 0 54.5 -27t-22.5 -56l-121 -114q-17 -15 -26 -15q-15 0 -8 21z" />
    <glyph glyph-name="paragraph" unicode="&#xb6;" horiz-adv-x="593" 
d="M413 800q14 0 80.5 2t97.5 2q17 0 17 -9q0 -10 -17 -10q-58 0 -82 -25.5t-24 -99.5v-740q-1 -74 23 -99.5t82 -25.5q17 0 17 -10t-17 -10q-26 0 -93 2.5t-85 2.5h-38q-14 0 -80 -2t-97 -2q-17 0 -17 9q0 10 17 10q58 0 82 25.5t24 99.5v418q0 27 -9.5 39t-32.5 12
q-113 0 -175 53t-62 152q0 103 66 154.5t180 51.5h143zM327 -105q0 -105 67 -105t67 105v839q0 49 -49 49h-36q-49 0 -49 -49v-839z" />
    <glyph glyph-name="periodcentered" unicode="&#xb7;" horiz-adv-x="268" 
d="M134 315q-35 0 -59.5 24.5t-24.5 59.5t24.5 59.5t59.5 24.5q34 0 59 -24.5t25 -59.5t-24.5 -59.5t-59.5 -24.5z" />
    <glyph glyph-name="cedilla" unicode="&#xb8;" horiz-adv-x="380" 
d="M104 -267q-53 0 -53 12q0 8 32 8q62 0 98.5 26.5t36.5 74.5q0 26 -14 43t-36 17q-15 0 -35 -9.5t-25 -9.5q-22 0 -1 28q3 4 7 8l72 79h20l-22 -35q-10 -15 0 -21.5t28 -6.5q17 0 35.5 -4.5t38 -14.5t32 -31t12.5 -49q0 -36 -24.5 -61t-64 -35.5t-72 -14.5t-65.5 -4z" />
    <glyph glyph-name="guillemotright" unicode="&#xbb;" horiz-adv-x="537" 
d="M342 293q0 9 -5 28.5t-16 49.5t-19 51.5t-22.5 60t-19.5 50.5q-4 11 2 11t20 -11q73 -61 143.5 -135.5t70.5 -104.5t-70.5 -104.5t-143.5 -135.5q-24 -19 -24 -7q0 3 2 7q5 12 19.5 50.5t22.5 60t19 51.5t16 49.5t5 28.5zM42 53q5 12 19.5 50.5t22.5 60t19 51.5t16 49.5
t5 28.5t-5 28.5t-16 49.5t-19 51.5t-22.5 60t-19.5 50.5q-4 11 2 11t20 -11q73 -61 143.5 -135.5t70.5 -104.5t-70.5 -104.5t-143.5 -135.5q-24 -19 -24 -7q0 3 2 7z" />
    <glyph glyph-name="onequarter" unicode="&#xbc;" horiz-adv-x="892" 
d="M275 440q0 -59 14.5 -79.5t47.5 -20.5q11 0 11 -7q0 -8 -11 -8q-16 0 -46 1.5t-40 1.5h-83q-11 0 -43.5 -1.5t-50.5 -1.5q-12 0 -12 7q0 8 12 8q37 0 52.5 20.5t16.5 79.5v228q0 45 -18.5 53.5t-67.5 -13.5q-14 -6 -18 1q-4 8 11 15q123 55 158 71q53 21 56 21
q11 0 11 -33v-343zM205 18q249 386 482 779q12 19 27 19q24 0 4 -31q-271 -422 -482 -779q-10 -18 -27 -18q-23 0 -4 30zM445 117q0 14 26 46q49 62 95 138t65 125q28 60 77 60q21 0 34 -11.5t13 -27.5q0 -26 -28 -52t-91.5 -77.5t-116.5 -110.5q-21 -23 10 -23h73
q29 0 29 29v67q0 14 15 14h86q15 0 15 -14v-81q0 -15 14 -15h22q14 0 14 -14v-60q0 -15 -14 -15h-22q-14 0 -14 -14v-12q0 -57 60 -57q10 0 10 -7q0 -8 -11 -8q-14 0 -43 1.5t-38 1.5h-70q-11 0 -42.5 -1.5t-48.5 -1.5q-12 0 -12 7q0 8 12 8q67 0 67 57v12q0 14 -15 14h-41
q-17 0 -54 -2.5t-47 -2.5q-29 0 -29 27z" />
    <glyph glyph-name="onehalf" unicode="&#xbd;" horiz-adv-x="941" 
d="M275 440q0 -59 14.5 -79.5t47.5 -20.5q11 0 11 -7q0 -8 -11 -8q-16 0 -46 1.5t-40 1.5h-83q-11 0 -43.5 -1.5t-50.5 -1.5q-12 0 -12 7q0 8 12 8q37 0 52.5 20.5t16.5 79.5v228q0 45 -18.5 53.5t-67.5 -13.5q-14 -6 -18 1q-4 8 11 15q123 55 158 71q53 21 56 21
q11 0 11 -33v-343zM205 18q249 386 482 779q12 19 27 19q24 0 4 -31q-271 -422 -482 -779q-10 -18 -27 -18q-23 0 -4 30zM512 6q0 3 8 11q114 114 158.5 172.5t44.5 112.5q0 88 -81 88q-41 0 -67.5 -23.5t-27.5 -64.5q0 -12 -8 -12q-9 0 -9 12q0 82 51.5 134t133.5 52
q64 0 99.5 -29.5t35.5 -84.5q0 -31 -23 -66.5t-50.5 -61t-74.5 -67t-70 -64.5q-4 -4 -4 -8q0 -10 14 -10h114q50 0 70.5 15.5t40.5 71.5q8 12 12 13q9 0 4 -14q-13 -37 -39 -96q-13 -38 -21 -75q-3 -17 -16 -17q-5 0 -24 2.5t-39 2.5h-157q-16 0 -36 -1.5t-28 -1.5
q-11 0 -11 9z" />
    <glyph glyph-name="threequarters" unicode="&#xbe;" horiz-adv-x="947" 
d="M104 385q0 18 12.5 29.5t31.5 11.5t28.5 -8.5t20.5 -26.5q3 -5 9 -17l10 -20t12.5 -14.5t18.5 -6.5t20.5 11t19 40t8.5 72q0 56 -30 84.5t-76 28.5q-12 0 -12 9t12 9q103 2 103 91q0 29 -17 46.5t-51 17.5q-64 0 -80 -59q-2 -9 -8.5 -7.5t-5.5 14.5q7 56 46 91t104 35
q58 0 96.5 -29t38.5 -81q0 -45 -34.5 -66.5t-102.5 -37.5q-14 -4 -7 -13q4 -5 16 -7q143 -20 143 -116q0 -71 -57 -109t-140 -38q-54 0 -91.5 17t-37.5 49zM273 18q249 386 482 779q12 19 27 19q24 0 4 -31q-271 -422 -482 -779q-10 -18 -27 -18q-23 0 -4 30zM500 117
q0 14 26 46q49 62 95 138t65 125q28 60 77 60q21 0 34 -11.5t13 -27.5q0 -26 -28 -52t-91.5 -77.5t-116.5 -110.5q-21 -23 10 -23h73q29 0 29 29v67q0 14 15 14h86q15 0 15 -14v-81q0 -15 14 -15h22q14 0 14 -14v-60q0 -15 -14 -15h-22q-14 0 -14 -14v-12q0 -57 60 -57
q10 0 10 -7q0 -8 -11 -8q-14 0 -43 1.5t-38 1.5h-70q-11 0 -42.5 -1.5t-48.5 -1.5q-12 0 -12 7q0 8 12 8q67 0 67 57v12q0 14 -15 14h-41q-16 0 -53 -2.5t-48 -2.5q-29 0 -29 27z" />
    <glyph glyph-name="questiondown" unicode="&#xbf;" horiz-adv-x="465" 
d="M260 323q6 0 24 -20q59 -62 83.5 -97.5t24.5 -69.5q0 -39 -25.5 -74t-95.5 -81q-55 -37 -85.5 -59.5t-59.5 -55t-29 -58.5q0 -20 20.5 -36.5t58.5 -16.5q21 0 43 19t39 41.5t41.5 41.5t48.5 19q31 0 50 -27t19 -62q0 -74 -115 -72q-281 5 -281 200q0 50 31 94.5
t106 100.5q63 47 90 78t27 65q0 23 -14 51q-8 19 -1 19zM183 475q0 35 24.5 59.5t59.5 24.5t59.5 -24.5t24.5 -59.5t-24.5 -59.5t-59.5 -24.5t-59.5 24.5t-24.5 59.5z" />
    <glyph glyph-name="Agrave" unicode="&#xc0;" horiz-adv-x="830" 
d="M-10 5q0 10 17 10q58 0 92 24t58 94l232 666q6 17 24 17h28q18 0 24 -17l241 -667q24 -69 52 -93t70 -24q12 0 12 -9q0 -10 -12 -10q-22 0 -69 2t-57 2h-79q-17 0 -101 -2t-122 -2q-22 0 -22 9q0 10 21 10q50 0 73 9t30.5 35.5t-10.5 74.5l-23 76q-14 47 -63 47h-140
q-49 0 -65 -46l-26 -78q-23 -73 -5 -95.5t88 -22.5q21 0 21 -9q0 -10 -21 -10q-22 0 -67.5 2t-70.5 2q-15 0 -54.5 -2t-58.5 -2q-17 0 -17 9zM241 320q-8 -22 1 -34t32 -12h124q48 0 34 46l-76 241q-16 45 -31 0zM300 990q-32 28 -22.5 55.5t54.5 27.5q29 0 49.5 -17.5
t28.5 -43.5l45 -130q7 -21 -8 -21q-9 0 -26 15z" />
    <glyph glyph-name="Aacute" unicode="&#xc1;" horiz-adv-x="830" 
d="M-10 5q0 10 17 10q58 0 92 24t58 94l232 666q6 17 24 17h28q18 0 24 -17l241 -667q24 -69 52 -93t70 -24q12 0 12 -9q0 -10 -12 -10q-22 0 -69 2t-57 2h-79q-17 0 -101 -2t-122 -2q-22 0 -22 9q0 10 21 10q50 0 73 9t30.5 35.5t-10.5 74.5l-23 76q-14 47 -63 47h-140
q-49 0 -65 -46l-26 -78q-23 -73 -5 -95.5t88 -22.5q21 0 21 -9q0 -10 -21 -10q-22 0 -67.5 2t-70.5 2q-15 0 -54.5 -2t-58.5 -2q-17 0 -17 9zM241 320q-8 -22 1 -34t32 -12h124q48 0 34 46l-76 241q-16 45 -31 0zM393 882l45 130q8 26 28.5 43.5t49.5 17.5q45 0 54.5 -27.5
t-22.5 -55.5l-121 -114q-17 -15 -26 -15q-15 0 -8 21z" />
    <glyph glyph-name="Acircumflex" unicode="&#xc2;" horiz-adv-x="830" 
d="M-10 5q0 10 17 10q58 0 92 24t58 94l232 666q6 17 24 17h28q18 0 24 -17l241 -667q24 -69 52 -93t70 -24q12 0 12 -9q0 -10 -12 -10q-22 0 -69 2t-57 2h-79q-17 0 -101 -2t-122 -2q-22 0 -22 9q0 10 21 10q50 0 73 9t30.5 35.5t-10.5 74.5l-23 76q-14 47 -63 47h-140
q-49 0 -65 -46l-26 -78q-23 -73 -5 -95.5t88 -22.5q21 0 21 -9q0 -10 -21 -10q-22 0 -67.5 2t-70.5 2q-15 0 -54.5 -2t-58.5 -2q-17 0 -17 9zM241 320q-8 -22 1 -34t32 -12h124q48 0 34 46l-76 241q-16 45 -31 0zM270 872l69 120q39 65 86 65q51 0 87 -65l69 -120
q6 -11 -2 -11q-6 0 -28 15l-75 59q-35 26 -51 26q-12 0 -51 -26l-75 -59q-20 -15 -27 -15q-8 0 -2 11z" />
    <glyph glyph-name="Atilde" unicode="&#xc3;" horiz-adv-x="830" 
d="M-10 5q0 10 17 10q58 0 92 24t58 94l232 666q6 17 24 17h28q18 0 24 -17l241 -667q24 -69 52 -93t70 -24q12 0 12 -9q0 -10 -12 -10q-22 0 -69 2t-57 2h-79q-17 0 -101 -2t-122 -2q-22 0 -22 9q0 10 21 10q50 0 73 9t30.5 35.5t-10.5 74.5l-23 76q-14 47 -63 47h-140
q-49 0 -65 -46l-26 -78q-23 -73 -5 -95.5t88 -22.5q21 0 21 -9q0 -10 -21 -10q-22 0 -67.5 2t-70.5 2q-15 0 -54.5 -2t-58.5 -2q-17 0 -17 9zM239 872q17 90 35 123q28 51 75 51q35 0 86.5 -37t82.5 -37q33 0 56.5 19t24.5 46q1 17 8 17t7 -17q0 -24 -6.5 -52t-18.5 -56.5
t-35 -47t-52 -18.5q-35 0 -86.5 37t-81.5 37q-32 0 -53 -18.5t-27 -46.5q-3 -16 -10 -16q-8 0 -5 16zM241 320q-8 -22 1 -34t32 -12h124q48 0 34 46l-76 241q-16 45 -31 0z" />
    <glyph glyph-name="Adieresis" unicode="&#xc4;" horiz-adv-x="830" 
d="M-10 5q0 10 17 10q58 0 92 24t58 94l232 666q6 17 24 17h28q18 0 24 -17l241 -667q24 -69 52 -93t70 -24q12 0 12 -9q0 -10 -12 -10q-22 0 -69 2t-57 2h-79q-17 0 -101 -2t-122 -2q-22 0 -22 9q0 10 21 10q50 0 73 9t30.5 35.5t-10.5 74.5l-23 76q-14 47 -63 47h-140
q-49 0 -65 -46l-26 -78q-23 -73 -5 -95.5t88 -22.5q21 0 21 -9q0 -10 -21 -10q-22 0 -67.5 2t-70.5 2q-15 0 -54.5 -2t-58.5 -2q-17 0 -17 9zM229 958q0 34 24.5 59t59.5 25t59.5 -25t24.5 -59t-24.5 -59t-59.5 -25t-59.5 25t-24.5 59zM241 320q-8 -22 1 -34t32 -12h124
q48 0 34 46l-76 241q-16 45 -31 0zM454 958q0 34 25 59t59 25t59 -25t25 -59t-25 -59t-59 -25t-59 25t-25 59z" />
    <glyph glyph-name="Aring" unicode="&#xc5;" horiz-adv-x="830" 
d="M-10 5q0 10 17 10q58 0 92 24t58 94l232 666q6 17 24 17h28q18 0 24 -17l241 -667q24 -69 52 -93t70 -24q12 0 12 -9q0 -10 -12 -10q-22 0 -69 2t-57 2h-79q-17 0 -101 -2t-122 -2q-22 0 -22 9q0 10 21 10q50 0 73 9t30.5 35.5t-10.5 74.5l-23 76q-14 47 -63 47h-140
q-49 0 -65 -46l-26 -78q-23 -73 -5 -95.5t88 -22.5q21 0 21 -9q0 -10 -21 -10q-22 0 -67.5 2t-70.5 2q-15 0 -54.5 -2t-58.5 -2q-17 0 -17 9zM241 320q-8 -22 1 -34t32 -12h124q48 0 34 46l-76 241q-16 45 -31 0zM334 966q0 39 25 63.5t67 24.5q41 0 66 -24.5t25 -63.5
t-25 -64t-66 -25t-66.5 25t-25.5 64zM363 966q0 -30 17.5 -49.5t45.5 -19.5q27 0 44.5 19.5t17.5 49.5t-17.5 49t-44.5 19q-28 0 -45.5 -18.5t-17.5 -49.5z" />
    <glyph glyph-name="AE" unicode="&#xc6;" horiz-adv-x="1033" 
d="M959 -4q-15 0 -56 2t-77 2h-285q-14 0 -80 -2t-97 -2q-17 0 -17 9q0 10 17 10q58 0 82 25.5t24 99.5v68q0 49 -49 49h-129q-49 0 -68 -45l-38 -84q-30 -70 -18.5 -91.5t71.5 -21.5q17 0 17 -9q0 -10 -17 -10q-20 0 -58.5 2t-60.5 2q-15 0 -54.5 -2t-58.5 -2q-17 0 -17 9
q0 10 17 10q58 0 94 23t66 90l242 544q30 70 19 91.5t-68 21.5q-17 0 -17 9q0 10 18 10q30 0 96.5 -2t80.5 -2h331q23 0 51.5 2t37.5 2q26 0 26 -28q0 -7 -2.5 -42t-3.5 -59q-1 -29 2 -111q0 -19 -7 -19q-8 0 -12 16q-57 223 -173 223h-35q-68 0 -68 -74v-239q0 -48 36 -48
h31q68 -1 91 23t23 83q1 18 9 18q9 0 9 -18q0 -5 -3 -122q2 -74 2 -109q0 -17 -8 -17q-9 0 -9 17q0 59 -23 83.5t-91 24.5h-19q-22 0 -35 -9.5t-13 -26.5v-280q0 -38 14.5 -56t54.5 -18h35q57 0 104 54t108 177q5 11 7.5 14.5t8.5 3.5q11 0 6 -16q-25 -108 -26 -115
q-12 -63 -12 -110q0 -28 -26 -28zM270 318q-19 -44 29 -44h122q49 0 49 49v397q0 48 -20 5z" />
    <glyph glyph-name="Ccedilla" unicode="&#xc7;" horiz-adv-x="721" 
d="M28 383q0 193 109.5 313t290.5 120q43 0 90.5 -5t52.5 -5q22 0 39.5 4.5t20.5 4.5q7 0 9.5 -4t2.5 -18q0 -1 -0.5 -42.5t0 -66t3 -69t8.5 -83.5q3 -19 -7 -19q-2 0 -3.5 0.5t-2.5 2t-1.5 3t-1.5 5t-2 5.5q-15 39 -21 53t-20 47.5t-22 47t-22.5 38t-26 35t-27 23.5
t-32.5 18t-36 5q-82 0 -126 -107.5t-44 -266.5q0 -160 53 -254t143 -94q81 0 133 69t70 192q3 13 9 13q7 0 6 -14q-7 -72 -28 -133t-55.5 -110.5t-89.5 -78t-124 -28.5h-20l-6 -9q-10 -15 0 -21.5t28 -6.5q17 0 35.5 -4.5t38 -14.5t32 -31t12.5 -49q0 -36 -24.5 -61
t-64 -35.5t-72 -14.5t-65.5 -4q-53 0 -53 12q0 8 32 8q62 0 98.5 26.5t36.5 74.5q0 26 -14 43t-36 17q-15 0 -35 -9.5t-25 -9.5q-22 0 -1 28q3 4 7 8l51 55q-143 16 -223 125.5t-80 271.5z" />
    <glyph glyph-name="Egrave" unicode="&#xc8;" horiz-adv-x="672" 
d="M597 -4q-16 0 -56 2t-76 2h-285q-14 0 -80 -2t-97 -2q-17 0 -17 9q0 10 17 10q58 0 82 25.5t24 99.5v520q1 74 -23 99.5t-83 25.5q-17 0 -17 10q1 10 18 10q25 0 92 -2.5t85 -2.5h327q23 0 51.5 2t37.5 2q26 0 26 -28q0 -8 -5 -52.5t-6 -66.5q0 -42 8 -93q3 -19 -7 -19
q-8 0 -12 16q-30 113 -72.5 168t-103.5 55h-34q-68 0 -68 -74v-239q0 -22 9.5 -35t26.5 -13h33q67 -1 90 23t23 82q0 17 9 17t9 -17q0 -19 -2.5 -56t-2.5 -57q0 -15 2 -55t2 -60q0 -17 -8 -17q-9 0 -9 17q0 58 -23 82t-90 24h-20q-49 0 -49 -36v-281q0 -38 14.5 -55.5
t54.5 -17.5h32q60 0 107 51.5t110 179.5q8 18 15 18q11 0 6 -16q-9 -32 -26 -115q-13 -68 -13 -110q0 -28 -26 -28zM250 990q-32 28 -22.5 55.5t54.5 27.5q29 0 49.5 -17.5t28.5 -43.5l45 -130q7 -21 -8 -21q-9 0 -26 15z" />
    <glyph glyph-name="Eacute" unicode="&#xc9;" horiz-adv-x="672" 
d="M597 -4q-16 0 -56 2t-76 2h-285q-14 0 -80 -2t-97 -2q-17 0 -17 9q0 10 17 10q58 0 82 25.5t24 99.5v520q1 74 -23 99.5t-83 25.5q-17 0 -17 10q1 10 18 10q25 0 92 -2.5t85 -2.5h327q23 0 51.5 2t37.5 2q26 0 26 -28q0 -8 -5 -52.5t-6 -66.5q0 -42 8 -93q3 -19 -7 -19
q-8 0 -12 16q-30 113 -72.5 168t-103.5 55h-34q-68 0 -68 -74v-239q0 -22 9.5 -35t26.5 -13h33q67 -1 90 23t23 82q0 17 9 17t9 -17q0 -19 -2.5 -56t-2.5 -57q0 -15 2 -55t2 -60q0 -17 -8 -17q-9 0 -9 17q0 58 -23 82t-90 24h-20q-49 0 -49 -36v-281q0 -38 14.5 -55.5
t54.5 -17.5h32q60 0 107 51.5t110 179.5q8 18 15 18q11 0 6 -16q-9 -32 -26 -115q-13 -68 -13 -110q0 -28 -26 -28zM342 882l45 130q8 26 28.5 43.5t49.5 17.5q45 0 54.5 -27.5t-22.5 -55.5l-121 -114q-17 -15 -26 -15q-15 0 -8 21z" />
    <glyph glyph-name="Ecircumflex" unicode="&#xca;" horiz-adv-x="672" 
d="M597 -4q-16 0 -56 2t-76 2h-285q-14 0 -80 -2t-97 -2q-17 0 -17 9q0 10 17 10q58 0 82 25.5t24 99.5v520q1 74 -23 99.5t-83 25.5q-17 0 -17 10q1 10 18 10q25 0 92 -2.5t85 -2.5h327q23 0 51.5 2t37.5 2q26 0 26 -28q0 -8 -5 -52.5t-6 -66.5q0 -42 8 -93q3 -19 -7 -19
q-8 0 -12 16q-30 113 -72.5 168t-103.5 55h-34q-68 0 -68 -74v-239q0 -22 9.5 -35t26.5 -13h33q67 -1 90 23t23 82q0 17 9 17t9 -17q0 -19 -2.5 -56t-2.5 -57q0 -15 2 -55t2 -60q0 -17 -8 -17q-9 0 -9 17q0 58 -23 82t-90 24h-20q-49 0 -49 -36v-281q0 -38 14.5 -55.5
t54.5 -17.5h32q60 0 107 51.5t110 179.5q8 18 15 18q11 0 6 -16q-9 -32 -26 -115q-13 -68 -13 -110q0 -28 -26 -28zM220 872l69 120q39 65 86 65q51 0 87 -65l69 -120q6 -11 -2 -11q-6 0 -28 15l-75 59q-35 26 -51 26q-12 0 -51 -26l-75 -59q-20 -15 -27 -15q-8 0 -2 11z
" />
    <glyph glyph-name="Edieresis" unicode="&#xcb;" horiz-adv-x="672" 
d="M597 -4q-16 0 -56 2t-76 2h-285q-14 0 -80 -2t-97 -2q-17 0 -17 9q0 10 17 10q58 0 82 25.5t24 99.5v520q1 74 -23 99.5t-83 25.5q-17 0 -17 10q1 10 18 10q25 0 92 -2.5t85 -2.5h327q23 0 51.5 2t37.5 2q26 0 26 -28q0 -8 -5 -52.5t-6 -66.5q0 -42 8 -93q3 -19 -7 -19
q-8 0 -12 16q-30 113 -72.5 168t-103.5 55h-34q-68 0 -68 -74v-239q0 -22 9.5 -35t26.5 -13h33q67 -1 90 23t23 82q0 17 9 17t9 -17q0 -19 -2.5 -56t-2.5 -57q0 -15 2 -55t2 -60q0 -17 -8 -17q-9 0 -9 17q0 58 -23 82t-90 24h-20q-49 0 -49 -36v-281q0 -38 14.5 -55.5
t54.5 -17.5h32q60 0 107 51.5t110 179.5q8 18 15 18q11 0 6 -16q-9 -32 -26 -115q-13 -68 -13 -110q0 -28 -26 -28zM178 958q0 34 25 59t59 25t59 -25t25 -59t-25 -59t-59 -25t-59 25t-25 59zM403 958q0 34 24.5 59t59.5 25t59.5 -25t24.5 -59t-24.5 -59t-59.5 -25t-59.5 25
t-24.5 59z" />
    <glyph glyph-name="Igrave" unicode="&#xcc;" horiz-adv-x="432" 
d="M109 660q1 74 -23 99.5t-83 25.5q-17 0 -17 10q1 10 18 10q25 0 92 -2.5t85 -2.5h71q14 0 80.5 2t97.5 2q17 0 17 -9q0 -10 -17 -10q-59 0 -83 -25.5t-24 -99.5v-520q0 -74 24 -99.5t82 -25.5q17 0 17 -10t-17 -10q-26 0 -93 2.5t-85 2.5h-71q-14 0 -80 -2t-97 -2
q-17 0 -17 9q0 10 17 10q58 0 82 25.5t24 99.5v520zM91 990q-32 28 -22.5 55.5t54.5 27.5q29 0 49.5 -17.5t28.5 -43.5l45 -130q7 -21 -8 -21q-9 0 -26 15z" />
    <glyph glyph-name="Iacute" unicode="&#xcd;" horiz-adv-x="432" 
d="M109 660q1 74 -23 99.5t-83 25.5q-17 0 -17 10q1 10 18 10q25 0 92 -2.5t85 -2.5h71q14 0 80.5 2t97.5 2q17 0 17 -9q0 -10 -17 -10q-59 0 -83 -25.5t-24 -99.5v-520q0 -74 24 -99.5t82 -25.5q17 0 17 -10t-17 -10q-26 0 -93 2.5t-85 2.5h-71q-14 0 -80 -2t-97 -2
q-17 0 -17 9q0 10 17 10q58 0 82 25.5t24 99.5v520zM183 882l45 130q8 26 28.5 43.5t49.5 17.5q45 0 54.5 -27.5t-22.5 -55.5l-121 -114q-17 -15 -26 -15q-15 0 -8 21z" />
    <glyph glyph-name="Icircumflex" unicode="&#xce;" horiz-adv-x="432" 
d="M109 660q1 74 -23 99.5t-83 25.5q-17 0 -17 10q1 10 18 10q25 0 92 -2.5t85 -2.5h71q14 0 80.5 2t97.5 2q17 0 17 -9q0 -10 -17 -10q-59 0 -83 -25.5t-24 -99.5v-520q0 -74 24 -99.5t82 -25.5q17 0 17 -10t-17 -10q-26 0 -93 2.5t-85 2.5h-71q-14 0 -80 -2t-97 -2
q-17 0 -17 9q0 10 17 10q58 0 82 25.5t24 99.5v520zM61 872l69 120q39 65 86 65q51 0 87 -65l69 -120q6 -11 -2 -11q-6 0 -28 15l-75 59q-35 26 -51 26q-12 0 -51 -26l-75 -59q-20 -15 -27 -15q-8 0 -2 11z" />
    <glyph glyph-name="Idieresis" unicode="&#xcf;" horiz-adv-x="432" 
d="M109 660q1 74 -23 99.5t-83 25.5q-17 0 -17 10q1 10 18 10q25 0 92 -2.5t85 -2.5h71q14 0 80.5 2t97.5 2q17 0 17 -9q0 -10 -17 -10q-59 0 -83 -25.5t-24 -99.5v-520q0 -74 24 -99.5t82 -25.5q17 0 17 -10t-17 -10q-26 0 -93 2.5t-85 2.5h-71q-14 0 -80 -2t-97 -2
q-17 0 -17 9q0 10 17 10q58 0 82 25.5t24 99.5v520zM20 958q0 34 25 59t59 25t59 -25t25 -59t-25 -59t-59 -25t-59 25t-25 59zM245 958q0 34 24.5 59t59.5 25t59.5 -25t24.5 -59t-24.5 -59t-59.5 -25t-59.5 25t-24.5 59z" />
    <glyph glyph-name="Eth" unicode="&#xd0;" horiz-adv-x="829" 
d="M180 0q-14 0 -80 -2t-97 -2q-17 0 -17 9q0 10 17 10q58 0 82 25.5t24 99.5v267q-6 8 -19 8h-64q-10 0 -10 9q0 10 10 10h64q13 0 19 8v218q1 74 -23 99.5t-83 25.5q-17 0 -17 10q1 10 18 10q25 0 92 -2.5t85 -2.5h213q62 0 118 -11t111 -39t94.5 -72t64 -115t24.5 -162
q0 -92 -25 -163.5t-64.5 -115.5t-94.5 -72t-110.5 -39t-116.5 -11h-215zM323 99q0 -48 12 -64t43 -16q94 0 149 105t55 265q0 172 -62.5 282t-147.5 110q-25 0 -37 -13t-12 -55v-258h5q0 -21 23 -21h132q10 0 10 -10q0 -9 -10 -9h-132q-23 0 -23 -21h-5v-295z" />
    <glyph glyph-name="Ntilde" unicode="&#xd1;" horiz-adv-x="774" 
d="M597 -16q-18 0 -27 15l-365 567q-27 41 -27 -8v-418q-1 -74 32.5 -99.5t114.5 -26.5q23 0 23 -10t-24 -9q-26 0 -76.5 2.5t-78.5 2.5q-16 0 -60.5 -2t-65.5 -2q-19 0 -19 9q0 10 18 10q65 0 92 25.5t27 99.5v445q0 49 -27 90l-24 38q-21 32 -51.5 52t-62.5 20
q-19 0 -19 7q0 12 20 12q37 0 111 -2t142 -2q56 0 87 -45l292 -454q27 -41 27 8v351q1 74 -32.5 99.5t-114.5 26.5q-23 0 -23 10t24 9q26 0 76.5 -2.5t79.5 -2.5q13 0 53.5 2t60.5 2q17 0 17 -9q0 -10 -17 -10q-59 0 -83 -25.5t-24 -99.5v-658q0 -18 -17 -18h-59zM224 876
q17 90 35 123q28 51 75 51q35 0 86.5 -37t82.5 -37q33 0 56.5 19t24.5 46q1 17 8 17t7 -17q0 -24 -6.5 -52t-18.5 -56.5t-35 -47t-52 -18.5q-35 0 -86.5 37t-81.5 37q-32 0 -53 -18.5t-27 -46.5q-3 -16 -10 -16q-8 0 -5 16z" />
    <glyph glyph-name="Ograve" unicode="&#xd2;" horiz-adv-x="767" 
d="M387 -16q-164 0 -261.5 116.5t-97.5 298.5q0 180 99.5 296.5t252.5 116.5q164 0 262 -116.5t98 -298.5q0 -180 -100 -296.5t-253 -116.5zM237 593q0 -150 23.5 -283.5t68.5 -219.5t102 -86q50 1 74.5 48t24.5 151q0 150 -23 283.5t-68 219t-102 85.5q-48 0 -74 -52
t-26 -146zM255 990q-32 28 -22.5 55.5t54.5 27.5q29 0 49.5 -17.5t28.5 -43.5l45 -130q7 -21 -8 -21q-9 0 -26 15z" />
    <glyph glyph-name="Oacute" unicode="&#xd3;" horiz-adv-x="767" 
d="M387 -16q-164 0 -261.5 116.5t-97.5 298.5q0 180 99.5 296.5t252.5 116.5q164 0 262 -116.5t98 -298.5q0 -180 -100 -296.5t-253 -116.5zM237 593q0 -150 23.5 -283.5t68.5 -219.5t102 -86q50 1 74.5 48t24.5 151q0 150 -23 283.5t-68 219t-102 85.5q-48 0 -74 -52
t-26 -146zM348 882l45 130q8 26 28.5 43.5t49.5 17.5q45 0 54.5 -27.5t-22.5 -55.5l-121 -114q-17 -15 -26 -15q-15 0 -8 21z" />
    <glyph glyph-name="Ocircumflex" unicode="&#xd4;" horiz-adv-x="767" 
d="M387 -16q-164 0 -261.5 116.5t-97.5 298.5q0 180 99.5 296.5t252.5 116.5q164 0 262 -116.5t98 -298.5q0 -180 -100 -296.5t-253 -116.5zM225 872l69 120q39 65 86 65q51 0 87 -65l69 -120q6 -11 -2 -11q-6 0 -28 15l-75 59q-35 26 -51 26q-12 0 -51 -26l-75 -59
q-20 -15 -27 -15q-8 0 -2 11zM237 593q0 -150 23.5 -283.5t68.5 -219.5t102 -86q50 1 74.5 48t24.5 151q0 150 -23 283.5t-68 219t-102 85.5q-48 0 -74 -52t-26 -146z" />
    <glyph glyph-name="Otilde" unicode="&#xd5;" horiz-adv-x="767" 
d="M387 -16q-164 0 -261.5 116.5t-97.5 298.5q0 180 99.5 296.5t252.5 116.5q164 0 262 -116.5t98 -298.5q0 -180 -100 -296.5t-253 -116.5zM194 872q17 90 35 123q28 51 75 51q35 0 86.5 -37t82.5 -37q33 0 56.5 19t24.5 46q1 17 8 17t7 -17q0 -24 -6.5 -52t-18.5 -56.5
t-35 -47t-52 -18.5q-35 0 -86.5 37t-81.5 37q-32 0 -53 -18.5t-27 -46.5q-3 -16 -10 -16q-8 0 -5 16zM237 593q0 -150 23.5 -283.5t68.5 -219.5t102 -86q50 1 74.5 48t24.5 151q0 150 -23 283.5t-68 219t-102 85.5q-48 0 -74 -52t-26 -146z" />
    <glyph glyph-name="Odieresis" unicode="&#xd6;" horiz-adv-x="767" 
d="M387 -16q-164 0 -261.5 116.5t-97.5 298.5q0 180 99.5 296.5t252.5 116.5q164 0 262 -116.5t98 -298.5q0 -180 -100 -296.5t-253 -116.5zM184 958q0 34 25 59t59 25t59 -25t25 -59t-25 -59t-59 -25t-59 25t-25 59zM237 593q0 -150 23.5 -283.5t68.5 -219.5t102 -86
q50 1 74.5 48t24.5 151q0 150 -23 283.5t-68 219t-102 85.5q-48 0 -74 -52t-26 -146zM409 958q0 34 24.5 59t59.5 25t59.5 -25t24.5 -59t-24.5 -59t-59.5 -25t-59.5 25t-24.5 59z" />
    <glyph glyph-name="multiply" unicode="&#xd7;" horiz-adv-x="398" 
d="M61 410q-8 8 -6 16.5t10 9.5t17 -6l100 -100q18 -18 34 0l101 100q8 8 16 5.5t9.5 -10t-5.5 -16.5l-100 -100q-18 -16 0 -34l99 -99q8 -8 5.5 -16.5t-10 -9.5t-15.5 6l-99 98q-17 18 -35 0l-100 -99q-8 -8 -16 -5.5t-9 10t6 16.5l99 99q18 18 0 34z" />
    <glyph glyph-name="Oslash" unicode="&#xd8;" horiz-adv-x="767" 
d="M387 -16q-110 0 -194 56l-35 -60q-10 -17 -20 -17q-13 0 -4 17l42 72q-71 55 -109.5 145.5t-38.5 201.5q0 180 99.5 296.5t252.5 116.5q116 0 203 -62l28 49q10 17 18 17q14 0 5 -17l-35 -61q68 -55 104.5 -143.5t36.5 -197.5q0 -180 -100 -296.5t-253 -116.5zM237 593
q0 -201 41 -365l207 355q-26 97 -64 153t-84 55q-48 0 -74 -52t-26 -146zM286 200q27 -91 64 -143.5t81 -52.5q50 1 74.5 48t24.5 151q0 197 -38 352z" />
    <glyph glyph-name="Ugrave" unicode="&#xd9;" horiz-adv-x="802" 
d="M415 -16q-146 0 -223.5 80t-77.5 240v356q1 74 -23 99.5t-83 25.5q-17 0 -17 10q1 10 18 10q25 0 92 -2.5t85 -2.5h71q14 0 80.5 2t97.5 2q17 0 17 -9q0 -10 -17 -10q-59 0 -83 -25.5t-24 -99.5v-356q0 -127 43 -183.5t131 -56.5q168 0 168 247v349q1 74 -23 99.5
t-83 25.5q-17 0 -17 10q1 10 18 10q92 -3 115 -4q57 3 114 3q17 0 17 -9q0 -10 -17 -10q-58 0 -82 -25.5t-24 -99.5v-349q0 -75 -11.5 -130t-40.5 -102t-84.5 -71t-136.5 -24zM366 990q-32 28 -22.5 55.5t54.5 27.5q29 0 49.5 -17.5t28.5 -43.5l45 -130q7 -21 -8 -21
q-9 0 -26 15z" />
    <glyph glyph-name="Uacute" unicode="&#xda;" horiz-adv-x="802" 
d="M415 -16q-146 0 -223.5 80t-77.5 240v356q1 74 -23 99.5t-83 25.5q-17 0 -17 10q1 10 18 10q25 0 92 -2.5t85 -2.5h71q14 0 80.5 2t97.5 2q17 0 17 -9q0 -10 -17 -10q-59 0 -83 -25.5t-24 -99.5v-356q0 -127 43 -183.5t131 -56.5q168 0 168 247v349q1 74 -23 99.5
t-83 25.5q-17 0 -17 10q1 10 18 10q92 -3 115 -4q57 3 114 3q17 0 17 -9q0 -10 -17 -10q-58 0 -82 -25.5t-24 -99.5v-349q0 -75 -11.5 -130t-40.5 -102t-84.5 -71t-136.5 -24zM458 882l45 130q8 26 28.5 43.5t49.5 17.5q45 0 54.5 -27.5t-22.5 -55.5l-121 -114
q-17 -15 -26 -15q-15 0 -8 21z" />
    <glyph glyph-name="Ucircumflex" unicode="&#xdb;" horiz-adv-x="802" 
d="M415 -16q-146 0 -223.5 80t-77.5 240v356q1 74 -23 99.5t-83 25.5q-17 0 -17 10q1 10 18 10q25 0 92 -2.5t85 -2.5h71q14 0 80.5 2t97.5 2q17 0 17 -9q0 -10 -17 -10q-59 0 -83 -25.5t-24 -99.5v-356q0 -127 43 -183.5t131 -56.5q168 0 168 247v349q1 74 -23 99.5
t-83 25.5q-17 0 -17 10q1 10 18 10q92 -3 115 -4q57 3 114 3q17 0 17 -9q0 -10 -17 -10q-58 0 -82 -25.5t-24 -99.5v-349q0 -75 -11.5 -130t-40.5 -102t-84.5 -71t-136.5 -24zM336 872l69 120q39 65 86 65q51 0 87 -65l69 -120q6 -11 -2 -11q-6 0 -28 15l-75 59
q-35 26 -51 26q-12 0 -51 -26l-75 -59q-20 -15 -27 -15q-8 0 -2 11z" />
    <glyph glyph-name="Udieresis" unicode="&#xdc;" horiz-adv-x="802" 
d="M415 -16q-146 0 -223.5 80t-77.5 240v356q1 74 -23 99.5t-83 25.5q-17 0 -17 10q1 10 18 10q25 0 92 -2.5t85 -2.5h71q14 0 80.5 2t97.5 2q17 0 17 -9q0 -10 -17 -10q-59 0 -83 -25.5t-24 -99.5v-356q0 -127 43 -183.5t131 -56.5q168 0 168 247v349q1 74 -23 99.5
t-83 25.5q-17 0 -17 10q1 10 18 10q92 -3 115 -4q57 3 114 3q17 0 17 -9q0 -10 -17 -10q-58 0 -82 -25.5t-24 -99.5v-349q0 -75 -11.5 -130t-40.5 -102t-84.5 -71t-136.5 -24zM295 958q0 34 24.5 59t59.5 25t59.5 -25t24.5 -59t-24.5 -59t-59.5 -25t-59.5 25t-24.5 59z
M520 958q0 34 25 59t59 25t59 -25t25 -59t-25 -59t-59 -25t-59 25t-25 59z" />
    <glyph glyph-name="Yacute" unicode="&#xdd;" horiz-adv-x="786" 
d="M509 140q-1 -74 28 -99.5t99 -26.5q20 0 20 -9q0 -10 -21 -10q-37 0 -116.5 2.5t-96.5 2.5h-42q-17 0 -96.5 -2t-116.5 -2q-20 0 -20 9q0 10 20 10q70 0 99 25.5t29 99.5v163q0 48 -23 92l-142 280q-33 64 -63.5 87t-68.5 23q-12 0 -12 9q0 10 12 10q17 0 50 -2t44 -2
h118q17 0 97.5 2t117.5 2q21 0 21 -9q0 -10 -21 -10q-47 0 -67 -8t-22.5 -33t22.5 -70l112 -230q10 -21 21 -21t21 21l110 229q32 70 21.5 91t-68.5 21q-18 0 -18 9q0 10 18 10q19 0 57.5 -2t60.5 -2q12 0 44.5 2t48.5 2q14 0 14 -9q0 -10 -14 -10q-48 0 -81 -23t-64 -89
l-111 -230q-21 -45 -21 -92v-211zM424 882l45 130q8 26 28.5 43.5t49.5 17.5q45 0 54.5 -27.5t-22.5 -55.5l-121 -114q-17 -15 -26 -15q-15 0 -8 21z" />
    <glyph glyph-name="Thorn" unicode="&#xde;" horiz-adv-x="727" 
d="M363 179q-21 3 -30 -8.5t-10 -35.5q1 -71 24.5 -95.5t81.5 -24.5q17 0 17 -10t-17 -10q-26 0 -93 2.5t-85 2.5h-71q-14 0 -80 -2t-97 -2q-17 0 -17 9q0 10 17 10q58 0 82 25.5t24 99.5v520q1 74 -23 99.5t-83 25.5q-17 0 -17 10q1 10 18 10q25 0 92 -2.5t85 -2.5h71
q14 0 80.5 2t97.5 2q17 0 17 -9q0 -10 -17 -10q-56 0 -81 -23.5t-26 -90.5q2 -25 28 -23h23q169 7 249 -51.5t80 -184.5q0 -55 -15 -97.5t-40 -69t-60 -44t-72 -24.5t-79 -7q-29 0 -74 9zM323 252q0 -29 20.5 -47.5t50.5 -18.5q50 0 75.5 69t25.5 162q0 90 -27 151t-79 61
q-19 0 -32 -3.5t-23.5 -18.5t-10.5 -42v-313z" />
    <glyph glyph-name="germandbls" unicode="&#xdf;" horiz-adv-x="700" 
d="M358 -15q-14 0 -14 19q0 37 -9 118t-9 91q0 15 14 15q10 0 13 -12q49 -196 132 -196q57 0 57 74q0 37 -21.5 74t-81.5 86q-66 52 -93 84t-27 67q0 23 12.5 43t48.5 62q34 40 47.5 70t13.5 66q0 71 -21.5 107t-59.5 36q-39 0 -63.5 -36.5t-24.5 -109.5v-597q0 -46 -46 -46
h-89q-15 0 -61.5 -2t-72.5 -2q-17 0 -17 9q0 10 17 10q53 0 75.5 25.5t22.5 99.5l1 327q0 46 -47 46h-34q-18 0 -18 14q0 15 18 15q36 0 58.5 11t22.5 31v17q0 108 76.5 164t183.5 56q108 0 178.5 -48t70.5 -114q0 -74 -141 -127q-21 -9 -29 -12.5t-18.5 -9.5t-14 -11
t-3.5 -12q0 -12 21 -27t100 -64q32 -20 53.5 -35.5t47.5 -42t39.5 -60t13.5 -73.5q0 -81 -53 -139t-137 -58q-30 0 -57 5.5t-39 5.5q-11 0 -20 -7t-16 -7z" />
    <glyph glyph-name="agrave" unicode="&#xe0;" horiz-adv-x="566" 
d="M146 -16q-56 0 -92 32.5t-36 90.5q0 35 19 65t57 53.5t74 39.5t91 36q46 16 46 65v27q0 80 -14 108t-45 28q-26 0 -38 -12.5t-12 -42.5q0 -10 6.5 -35.5t6.5 -45.5q0 -31 -20.5 -50t-58.5 -19q-39 0 -60.5 21t-21.5 56q0 64 63 111t162 47q105 0 160 -48.5t55 -139.5
q0 -45 -2.5 -135.5t-2.5 -135.5q0 -47 35 -47q15 0 31 21t23 66q1 12 8 12q8 0 7 -12q-8 -80 -47.5 -117.5t-113.5 -37.5q-56 0 -93.5 38.5t-24.5 93.5q2 10 -2.5 15t-11 2t-10.5 -13q-25 -74 -55.5 -105.5t-82.5 -31.5zM144 749q-32 29 -22.5 56t54.5 27q29 0 49.5 -17.5
t28.5 -43.5l45 -130q7 -21 -8 -21q-9 0 -26 15zM190 168q0 -58 41 -58q25 0 49.5 27t24.5 59v65q0 23 -12 30.5t-33 -2.5q-70 -43 -70 -121z" />
    <glyph glyph-name="aacute" unicode="&#xe1;" horiz-adv-x="566" 
d="M146 -16q-56 0 -92 32.5t-36 90.5q0 35 19 65t57 53.5t74 39.5t91 36q46 16 46 65v27q0 80 -14 108t-45 28q-26 0 -38 -12.5t-12 -42.5q0 -10 6.5 -35.5t6.5 -45.5q0 -31 -20.5 -50t-58.5 -19q-39 0 -60.5 21t-21.5 56q0 64 63 111t162 47q105 0 160 -48.5t55 -139.5
q0 -45 -2.5 -135.5t-2.5 -135.5q0 -47 35 -47q15 0 31 21t23 66q1 12 8 12q8 0 7 -12q-8 -80 -47.5 -117.5t-113.5 -37.5q-56 0 -93.5 38.5t-24.5 93.5q2 10 -2.5 15t-11 2t-10.5 -13q-25 -74 -55.5 -105.5t-82.5 -31.5zM190 168q0 -58 41 -58q25 0 49.5 27t24.5 59v65
q0 23 -12 30.5t-33 -2.5q-70 -43 -70 -121zM237 641l45 130q8 26 28.5 43.5t49.5 17.5q45 0 54.5 -27t-22.5 -56l-121 -114q-17 -15 -26 -15q-15 0 -8 21z" />
    <glyph glyph-name="acircumflex" unicode="&#xe2;" horiz-adv-x="566" 
d="M146 -16q-56 0 -92 32.5t-36 90.5q0 35 19 65t57 53.5t74 39.5t91 36q46 16 46 65v27q0 80 -14 108t-45 28q-26 0 -38 -12.5t-12 -42.5q0 -10 6.5 -35.5t6.5 -45.5q0 -31 -20.5 -50t-58.5 -19q-39 0 -60.5 21t-21.5 56q0 64 63 111t162 47q105 0 160 -48.5t55 -139.5
q0 -45 -2.5 -135.5t-2.5 -135.5q0 -47 35 -47q15 0 31 21t23 66q1 12 8 12q8 0 7 -12q-8 -80 -47.5 -117.5t-113.5 -37.5q-56 0 -93.5 38.5t-24.5 93.5q2 10 -2.5 15t-11 2t-10.5 -13q-25 -74 -55.5 -105.5t-82.5 -31.5zM114 631l69 120q39 65 86 65q51 0 87 -65l69 -120
q6 -11 -2 -11q-6 0 -28 15l-75 59q-35 26 -51 26q-12 0 -51 -26l-75 -59q-20 -15 -27 -15q-8 0 -2 11zM190 168q0 -58 41 -58q25 0 49.5 27t24.5 59v65q0 23 -12 30.5t-33 -2.5q-70 -43 -70 -121z" />
    <glyph glyph-name="atilde" unicode="&#xe3;" horiz-adv-x="566" 
d="M146 -16q-56 0 -92 32.5t-36 90.5q0 35 19 65t57 53.5t74 39.5t91 36q46 16 46 65v27q0 80 -14 108t-45 28q-26 0 -38 -12.5t-12 -42.5q0 -10 6.5 -35.5t6.5 -45.5q0 -31 -20.5 -50t-58.5 -19q-39 0 -60.5 21t-21.5 56q0 64 63 111t162 47q105 0 160 -48.5t55 -139.5
q0 -45 -2.5 -135.5t-2.5 -135.5q0 -47 35 -47q15 0 31 21t23 66q1 12 8 12q8 0 7 -12q-8 -80 -47.5 -117.5t-113.5 -37.5q-56 0 -93.5 38.5t-24.5 93.5q2 10 -2.5 15t-11 2t-10.5 -13q-25 -74 -55.5 -105.5t-82.5 -31.5zM83 631q17 90 35 123q28 51 75 51q35 0 86.5 -37
t82.5 -37q33 0 56.5 19t24.5 46q1 17 8 17t7 -17q0 -24 -6.5 -52t-18.5 -56.5t-35 -47t-52 -18.5q-35 0 -86.5 37t-81.5 37q-32 0 -53 -18.5t-27 -46.5q-3 -16 -10 -16q-8 0 -5 16zM190 168q0 -58 41 -58q25 0 49.5 27t24.5 59v65q0 23 -12 30.5t-33 -2.5q-70 -43 -70 -121z
" />
    <glyph glyph-name="adieresis" unicode="&#xe4;" horiz-adv-x="566" 
d="M146 -16q-56 0 -92 32.5t-36 90.5q0 35 19 65t57 53.5t74 39.5t91 36q46 16 46 65v27q0 80 -14 108t-45 28q-26 0 -38 -12.5t-12 -42.5q0 -10 6.5 -35.5t6.5 -45.5q0 -31 -20.5 -50t-58.5 -19q-39 0 -60.5 21t-21.5 56q0 64 63 111t162 47q105 0 160 -48.5t55 -139.5
q0 -45 -2.5 -135.5t-2.5 -135.5q0 -47 35 -47q15 0 31 21t23 66q1 12 8 12q8 0 7 -12q-8 -80 -47.5 -117.5t-113.5 -37.5q-56 0 -93.5 38.5t-24.5 93.5q2 10 -2.5 15t-11 2t-10.5 -13q-25 -74 -55.5 -105.5t-82.5 -31.5zM73 717q0 35 24.5 59.5t59.5 24.5t59.5 -24.5
t24.5 -59.5t-24.5 -59.5t-59.5 -24.5t-59.5 24.5t-24.5 59.5zM190 168q0 -58 41 -58q25 0 49.5 27t24.5 59v65q0 23 -12 30.5t-33 -2.5q-70 -43 -70 -121zM298 717q0 35 25 59.5t59 24.5t59 -24.5t25 -59.5t-25 -59.5t-59 -24.5t-59 24.5t-25 59.5z" />
    <glyph glyph-name="aring" unicode="&#xe5;" horiz-adv-x="566" 
d="M146 -16q-56 0 -92 32.5t-36 90.5q0 35 19 65t57 53.5t74 39.5t91 36q46 16 46 65v27q0 80 -14 108t-45 28q-26 0 -38 -12.5t-12 -42.5q0 -10 6.5 -35.5t6.5 -45.5q0 -31 -20.5 -50t-58.5 -19q-39 0 -60.5 21t-21.5 56q0 64 63 111t162 47q105 0 160 -48.5t55 -139.5
q0 -45 -2.5 -135.5t-2.5 -135.5q0 -47 35 -47q15 0 31 21t23 66q1 12 8 12q8 0 7 -12q-8 -80 -47.5 -117.5t-113.5 -37.5q-56 0 -93.5 38.5t-24.5 93.5q2 10 -2.5 15t-11 2t-10.5 -13q-25 -74 -55.5 -105.5t-82.5 -31.5zM178 725q0 39 25 63.5t67 24.5q41 0 66 -24.5
t25 -63.5t-25 -64t-66 -25t-66.5 25t-25.5 64zM190 168q0 -58 41 -58q25 0 49.5 27t24.5 59v65q0 23 -12 30.5t-33 -2.5q-70 -43 -70 -121zM207 725q0 -30 17.5 -49.5t45.5 -19.5q27 0 44.5 19.5t17.5 49.5t-17.5 49t-44.5 19q-28 0 -45.5 -18.5t-17.5 -49.5z" />
    <glyph glyph-name="ae" unicode="&#xe6;" horiz-adv-x="788" 
d="M146 -16q-59 0 -93.5 34.5t-34.5 88.5q0 35 19 65t57 53.5t74 39.5t91 36q46 16 46 65v32q0 76 -14 103t-47 28q-24 0 -36 -12.5t-12 -42.5q0 -10 6.5 -35.5t6.5 -45.5q0 -31 -20.5 -50t-58.5 -19q-39 0 -60.5 21t-21.5 56q0 64 63 111t162 47q80 0 122 -47
q16 -17 27 -18t28 14q50 50 105 50q90 0 147.5 -47t57.5 -111q0 -42 -16.5 -55t-76.5 -13h-135q-43 0 -45 -40v-29q0 -74 34 -117t95 -43q39 0 77.5 29t58.5 94q4 14 10 14q8 0 5 -15q-25 -127 -80.5 -184t-148.5 -57q-74 0 -135 40.5t-84 101.5q-14 37 -25 5
q-51 -147 -148 -147zM190 168q0 -58 41 -58q25 0 49.5 27t24.5 59v65q0 23 -12 30.5t-33 -2.5q-70 -43 -70 -121zM489 388q-1 -21 9.5 -32.5t29.5 -11.5h18q43 0 43 62q0 63 -9.5 93t-35.5 30t-38.5 -32t-16.5 -109z" />
    <glyph glyph-name="ccedilla" unicode="&#xe7;" horiz-adv-x="490" 
d="M252 -16h-7q-3 -10 7 -14.5t25 -4.5q17 0 35.5 -4.5t38 -14.5t32 -31t12.5 -49q0 -36 -24.5 -61t-64 -35.5t-72 -14.5t-65.5 -4q-53 0 -53 12q0 8 32 8q62 0 98.5 26.5t36.5 74.5q0 26 -14 43t-36 17q-15 0 -35 -9.5t-25 -9.5q-22 0 -1 28q3 4 7 8l34 38
q-89 14 -139.5 85.5t-50.5 184.5q0 134 70.5 217.5t192.5 83.5q72 0 125 -39t53 -104q0 -39 -24.5 -64t-62.5 -25q-34 0 -54.5 16t-20.5 45q0 15 13.5 40t13.5 41q0 32 -14 46.5t-33 14.5q-38 0 -58 -60.5t-20 -138.5q0 -102 34.5 -162.5t105.5 -60.5q34 0 67.5 29t48.5 86
q4 11 10 11q8 0 5 -14q-39 -235 -223 -235z" />
    <glyph glyph-name="egrave" unicode="&#xe8;" horiz-adv-x="499" 
d="M250 -16q-103 0 -165 71t-62 203q0 122 68.5 211t175.5 89q89 0 146.5 -47t57.5 -111q0 -42 -16.5 -55t-76.5 -13h-135q-44 0 -44 -41v-28q0 -74 34 -117t94 -43q39 0 77.5 29t58.5 94q5 14 11 14q7 0 4 -15q-26 -127 -81 -184t-147 -57zM135 749q-32 29 -22.5 56
t54.5 27q29 0 49.5 -17.5t28.5 -43.5l45 -130q7 -21 -8 -21q-9 0 -26 15zM200 388q0 -44 39 -44h18q44 0 44 62q0 64 -10 94t-36 30t-38.5 -32.5t-16.5 -109.5z" />
    <glyph glyph-name="eacute" unicode="&#xe9;" horiz-adv-x="499" 
d="M250 -16q-103 0 -165 71t-62 203q0 122 68.5 211t175.5 89q89 0 146.5 -47t57.5 -111q0 -42 -16.5 -55t-76.5 -13h-135q-44 0 -44 -41v-28q0 -74 34 -117t94 -43q39 0 77.5 29t58.5 94q5 14 11 14q7 0 4 -15q-26 -127 -81 -184t-147 -57zM200 388q0 -44 39 -44h18
q44 0 44 62q0 64 -10 94t-36 30t-38.5 -32.5t-16.5 -109.5zM227 641l45 130q8 26 28.5 43.5t49.5 17.5q45 0 54.5 -27t-22.5 -56l-121 -114q-17 -15 -26 -15q-15 0 -8 21z" />
    <glyph glyph-name="ecircumflex" unicode="&#xea;" horiz-adv-x="499" 
d="M250 -16q-103 0 -165 71t-62 203q0 122 68.5 211t175.5 89q89 0 146.5 -47t57.5 -111q0 -42 -16.5 -55t-76.5 -13h-135q-44 0 -44 -41v-28q0 -74 34 -117t94 -43q39 0 77.5 29t58.5 94q5 14 11 14q7 0 4 -15q-26 -127 -81 -184t-147 -57zM105 631l69 120q39 65 86 65
q51 0 87 -65l69 -120q6 -11 -2 -11q-6 0 -28 15l-75 59q-35 26 -51 26q-12 0 -51 -26l-75 -59q-20 -15 -27 -15q-8 0 -2 11zM200 388q0 -44 39 -44h18q44 0 44 62q0 64 -10 94t-36 30t-38.5 -32.5t-16.5 -109.5z" />
    <glyph glyph-name="edieresis" unicode="&#xeb;" horiz-adv-x="499" 
d="M250 -16q-103 0 -165 71t-62 203q0 122 68.5 211t175.5 89q89 0 146.5 -47t57.5 -111q0 -42 -16.5 -55t-76.5 -13h-135q-44 0 -44 -41v-28q0 -74 34 -117t94 -43q39 0 77.5 29t58.5 94q5 14 11 14q7 0 4 -15q-26 -127 -81 -184t-147 -57zM64 717q0 35 25 59.5t59 24.5
t59 -24.5t25 -59.5t-25 -59.5t-59 -24.5t-59 24.5t-25 59.5zM200 388q0 -44 39 -44h18q44 0 44 62q0 64 -10 94t-36 30t-38.5 -32.5t-16.5 -109.5zM289 717q0 35 24.5 59.5t59.5 24.5t59.5 -24.5t24.5 -59.5t-24.5 -59.5t-59.5 -24.5t-59.5 24.5t-24.5 59.5z" />
    <glyph glyph-name="igrave" unicode="&#xec;" horiz-adv-x="371" 
d="M281 140q0 -74 22.5 -99.5t73.5 -25.5q17 0 17 -9q0 -10 -17 -10q-25 0 -71 2t-61 2h-108q-15 0 -61.5 -2t-72.5 -2q-17 0 -17 9q0 10 17 10q53 0 75.5 25.5t22.5 99.5l1 288q0 63 -32 63q-15 0 -35.5 -2.5t-24.5 -2.5q-14 0 -14 10q0 8 18 11q37 5 130 28t123 24
q23 0 23 -27q0 -23 -4.5 -118.5t-4.5 -144.5v-129zM54 749q-32 29 -22.5 56t54.5 27q29 0 49.5 -17.5t28.5 -43.5l45 -130q7 -21 -8 -21q-9 0 -26 15zM266 559h1h1h-2z" />
    <glyph glyph-name="iacute" unicode="&#xed;" horiz-adv-x="371" 
d="M281 140q0 -74 22.5 -99.5t73.5 -25.5q17 0 17 -9q0 -10 -17 -10q-25 0 -71 2t-61 2h-108q-15 0 -61.5 -2t-72.5 -2q-17 0 -17 9q0 10 17 10q53 0 75.5 25.5t22.5 99.5l1 288q0 63 -32 63q-15 0 -35.5 -2.5t-24.5 -2.5q-14 0 -14 10q0 8 18 11q37 5 130 28t123 24
q23 0 23 -27q0 -23 -4.5 -118.5t-4.5 -144.5v-129zM146 641l45 130q8 26 28.5 43.5t49.5 17.5q45 0 54.5 -27t-22.5 -56l-121 -114q-17 -15 -26 -15q-15 0 -8 21zM266 559h1h1h-2z" />
    <glyph glyph-name="icircumflex" unicode="&#xee;" horiz-adv-x="371" 
d="M281 140q0 -74 22.5 -99.5t73.5 -25.5q17 0 17 -9q0 -10 -17 -10q-25 0 -71 2t-61 2h-108q-15 0 -61.5 -2t-72.5 -2q-17 0 -17 9q0 10 17 10q53 0 75.5 25.5t22.5 99.5l1 288q0 63 -32 63q-15 0 -35.5 -2.5t-24.5 -2.5q-14 0 -14 10q0 8 18 11q37 5 130 28t123 24
q23 0 23 -27q0 -23 -4.5 -118.5t-4.5 -144.5v-129zM24 631l69 120q39 65 86 65q51 0 87 -65l69 -120q6 -11 -2 -11q-6 0 -28 15l-75 59q-35 26 -51 26q-12 0 -51 -26l-75 -59q-20 -15 -27 -15q-8 0 -2 11zM266 559h1h1h-2z" />
    <glyph glyph-name="idieresis" unicode="&#xef;" horiz-adv-x="371" 
d="M281 140q0 -74 22.5 -99.5t73.5 -25.5q17 0 17 -9q0 -10 -17 -10q-25 0 -71 2t-61 2h-108q-15 0 -61.5 -2t-72.5 -2q-17 0 -17 9q0 10 17 10q53 0 75.5 25.5t22.5 99.5l1 288q0 63 -32 63q-15 0 -35.5 -2.5t-24.5 -2.5q-14 0 -14 10q0 8 18 11q37 5 130 28t123 24
q23 0 23 -27q0 -23 -4.5 -118.5t-4.5 -144.5v-129zM-17 717q0 35 24.5 59.5t59.5 24.5t59.5 -24.5t24.5 -59.5t-24.5 -59.5t-59.5 -24.5t-59.5 24.5t-24.5 59.5zM208 717q0 35 25 59.5t59 24.5t59 -24.5t25 -59.5t-25 -59.5t-59 -24.5t-59 24.5t-25 59.5zM266 559h1h1h-2z
" />
    <glyph glyph-name="eth" unicode="&#xf0;" horiz-adv-x="579" 
d="M277 -16q-119 0 -186 79t-67 201q0 119 58.5 197.5t148.5 78.5q27 0 49.5 -11.5t36.5 -23t21 -11.5q10 0 10 8q0 4 -6 24q-18 51 -54 108q-19 26 -45 14l-96 -48q-22 -10 -27 -2q-3 9 16 18l91 46q29 15 10 37q-44 49 -104 93q-25 18 -18 26q4 9 30 -3q86 -38 158 -84
q28 -17 53 -5l86 43q19 10 23 3q6 -10 -13 -19l-75 -38q-30 -15 -6 -32q185 -149 185 -369q0 -159 -80.5 -244.5t-198.5 -85.5zM208 284q0 -124 21.5 -197t64.5 -73q49 0 62.5 61t13.5 206q0 29 -3 61.5t-11 69.5t-24.5 60.5t-39.5 23.5q-27 0 -44.5 -17t-25.5 -49.5
t-11 -66t-3 -79.5z" />
    <glyph glyph-name="ntilde" unicode="&#xf1;" horiz-adv-x="700" 
d="M137 0q-15 0 -61.5 -2t-72.5 -2q-17 0 -17 9q0 10 17 10q53 0 75.5 25.5t22.5 99.5l1 288q0 63 -32 63q-15 0 -35.5 -2.5t-24.5 -2.5q-14 0 -14 9t18 12q37 5 130.5 28t123.5 23h2q20 0 20 -20q0 -7 -5 -62q-2 -23 5 -26t22 15q85 94 162 94q58 0 93 -40.5t35 -126.5
v-252q0 -73 23 -99t74 -26q18 0 18 -9q0 -10 -18 -10q-25 0 -72 2t-62 2h-116q-24 0 -54 -1t-42 -1h-1q-18 0 -46.5 1t-50.5 1h-118zM188 632q17 90 35 123q28 51 75 51q35 0 86.5 -37t82.5 -37q33 0 56.5 19t24.5 46q1 17 8 17t7 -17q0 -24 -6.5 -52t-18.5 -56.5t-35 -47
t-52 -18.5q-35 0 -86.5 37t-81.5 37q-32 0 -53 -18.5t-27 -46.5q-3 -16 -10 -16q-8 0 -5 16zM281 143q0 -67 16.5 -98.5t54.5 -31.5h1q37 0 53.5 31.5t16.5 98.5v253q0 68 -47 68q-36 0 -65.5 -19t-29.5 -65v-237z" />
    <glyph glyph-name="ograve" unicode="&#xf2;" horiz-adv-x="586" 
d="M293 -16q-124 0 -197 80.5t-73 203.5q0 131 72.5 210.5t197.5 79.5q123 0 196.5 -80.5t73.5 -202.5q0 -131 -72.5 -211t-197.5 -80zM157 749q-32 29 -22.5 56t54.5 27q29 0 49.5 -17.5t28.5 -43.5l45 -130q7 -21 -8 -21q-9 0 -26 15zM201 407q0 -57 9 -123.5t25.5 -128
t44 -102t59.5 -40.5q46 0 46 118q0 56 -10.5 123.5t-27.5 128.5t-44 102t-56 41q-46 0 -46 -119z" />
    <glyph glyph-name="oacute" unicode="&#xf3;" horiz-adv-x="586" 
d="M293 -16q-124 0 -197 80.5t-73 203.5q0 131 72.5 210.5t197.5 79.5q123 0 196.5 -80.5t73.5 -202.5q0 -131 -72.5 -211t-197.5 -80zM201 407q0 -57 9 -123.5t25.5 -128t44 -102t59.5 -40.5q46 0 46 118q0 56 -10.5 123.5t-27.5 128.5t-44 102t-56 41q-46 0 -46 -119z
M249 641l45 130q8 26 28.5 43.5t49.5 17.5q45 0 54.5 -27t-22.5 -56l-121 -114q-17 -15 -26 -15q-15 0 -8 21z" />
    <glyph glyph-name="ocircumflex" unicode="&#xf4;" horiz-adv-x="586" 
d="M293 -16q-124 0 -197 80.5t-73 203.5q0 131 72.5 210.5t197.5 79.5q123 0 196.5 -80.5t73.5 -202.5q0 -131 -72.5 -211t-197.5 -80zM127 631l69 120q39 65 86 65q51 0 87 -65l69 -120q6 -11 -2 -11q-6 0 -28 15l-75 59q-35 26 -51 26q-12 0 -51 -26l-75 -59
q-20 -15 -27 -15q-8 0 -2 11zM201 407q0 -57 9 -123.5t25.5 -128t44 -102t59.5 -40.5q46 0 46 118q0 56 -10.5 123.5t-27.5 128.5t-44 102t-56 41q-46 0 -46 -119z" />
    <glyph glyph-name="otilde" unicode="&#xf5;" horiz-adv-x="586" 
d="M293 -16q-124 0 -197 80.5t-73 203.5q0 131 72.5 210.5t197.5 79.5q123 0 196.5 -80.5t73.5 -202.5q0 -131 -72.5 -211t-197.5 -80zM96 631q17 90 35 123q28 51 75 51q35 0 86.5 -37t82.5 -37q33 0 56.5 19t24.5 46q1 17 8 17t7 -17q0 -24 -6.5 -52t-18.5 -56.5t-35 -47
t-52 -18.5q-35 0 -86.5 37t-81.5 37q-32 0 -53 -18.5t-27 -46.5q-3 -16 -10 -16q-8 0 -5 16zM201 407q0 -57 9 -123.5t25.5 -128t44 -102t59.5 -40.5q46 0 46 118q0 56 -10.5 123.5t-27.5 128.5t-44 102t-56 41q-46 0 -46 -119z" />
    <glyph glyph-name="odieresis" unicode="&#xf6;" horiz-adv-x="586" 
d="M293 -16q-124 0 -197 80.5t-73 203.5q0 131 72.5 210.5t197.5 79.5q123 0 196.5 -80.5t73.5 -202.5q0 -131 -72.5 -211t-197.5 -80zM86 717q0 35 25 59.5t59 24.5t59 -24.5t25 -59.5t-25 -59.5t-59 -24.5t-59 24.5t-25 59.5zM201 407q0 -57 9 -123.5t25.5 -128t44 -102
t59.5 -40.5q46 0 46 118q0 56 -10.5 123.5t-27.5 128.5t-44 102t-56 41q-46 0 -46 -119zM311 717q0 35 24.5 59.5t59.5 24.5t59.5 -24.5t24.5 -59.5t-24.5 -59.5t-59.5 -24.5t-59.5 24.5t-24.5 59.5z" />
    <glyph glyph-name="divide" unicode="&#xf7;" horiz-adv-x="440" 
d="M220 420q-14 0 -24.5 10.5t-10.5 24.5t10.5 24.5t24.5 10.5t24.5 -10.5t10.5 -24.5t-10.5 -24.5t-24.5 -10.5zM60 286q-15 0 -15 14t15 14h320q15 0 15 -14t-15 -14h-320zM185 145q0 14 10.5 24.5t24.5 10.5t24.5 -10.5t10.5 -24.5t-10.5 -24.5t-24.5 -10.5t-24.5 10.5
t-10.5 24.5z" />
    <glyph glyph-name="oslash" unicode="&#xf8;" horiz-adv-x="586" 
d="M477 603q4 7 10 7t8 -5t-1 -12l-46 -80q55 -37 85 -99.5t30 -138.5q0 -131 -72.5 -211t-197.5 -80q-75 0 -132 31l-46 -80q-4 -6 -10 -6q-5 0 -7.5 4t0.5 11l46 81q-58 37 -89.5 101t-31.5 142q0 131 72.5 210.5t197.5 79.5q79 0 138 -34zM201 407q0 -118 30 -232
l117 204q-43 147 -101 147q-46 0 -46 -119zM238 148q40 -135 101 -135q46 0 46 118q0 104 -30 221z" />
    <glyph glyph-name="ugrave" unicode="&#xf9;" horiz-adv-x="656" 
d="M200 -16q-59 0 -90.5 37t-31.5 110v297q0 63 -32 63q-15 0 -35.5 -2.5t-24.5 -2.5q-14 0 -14 10q0 8 18 11q37 5 130.5 28.5t123.5 23.5h2q21 0 21 -23q0 -21 -5 -90t-5 -103v-179q0 -41 10.5 -58.5t35.5 -17.5q31 0 59.5 29t28.5 71v266q0 23 -5.5 30t-17.5 7
q-11 0 -26.5 -2.5t-18.5 -2.5q-10 0 -10 10q0 8 13 11q11 2 95.5 27t137.5 25q21 0 21 -23q0 -21 -4.5 -90t-4.5 -104v-202q0 -74 22 -99.5t74 -25.5q17 0 17 -10q0 -9 -17 -9t-67.5 2t-81.5 2q-39 0 -87 -8t-49 -8q-8 0 -10.5 6.5t-0.5 19t5.5 25.5t6.5 30t3 30
q0 10 -4.5 13.5t-10.5 1t-10 -9.5q-75 -116 -161 -116zM204 749q-32 29 -22.5 56t54.5 27q29 0 49.5 -17.5t28.5 -43.5l45 -130q7 -21 -8 -21q-9 0 -26 15z" />
    <glyph glyph-name="uacute" unicode="&#xfa;" horiz-adv-x="656" 
d="M200 -16q-59 0 -90.5 37t-31.5 110v297q0 63 -32 63q-15 0 -35.5 -2.5t-24.5 -2.5q-14 0 -14 10q0 8 18 11q37 5 130.5 28.5t123.5 23.5h2q21 0 21 -23q0 -21 -5 -90t-5 -103v-179q0 -41 10.5 -58.5t35.5 -17.5q31 0 59.5 29t28.5 71v266q0 23 -5.5 30t-17.5 7
q-11 0 -26.5 -2.5t-18.5 -2.5q-10 0 -10 10q0 8 13 11q11 2 95.5 27t137.5 25q21 0 21 -23q0 -21 -4.5 -90t-4.5 -104v-202q0 -74 22 -99.5t74 -25.5q17 0 17 -10q0 -9 -17 -9t-67.5 2t-81.5 2q-39 0 -87 -8t-49 -8q-8 0 -10.5 6.5t-0.5 19t5.5 25.5t6.5 30t3 30
q0 10 -4.5 13.5t-10.5 1t-10 -9.5q-75 -116 -161 -116zM297 641l45 130q8 26 28.5 43.5t49.5 17.5q45 0 54.5 -27t-22.5 -56l-121 -114q-17 -15 -26 -15q-15 0 -8 21z" />
    <glyph glyph-name="ucircumflex" unicode="&#xfb;" horiz-adv-x="656" 
d="M200 -16q-59 0 -90.5 37t-31.5 110v297q0 63 -32 63q-15 0 -35.5 -2.5t-24.5 -2.5q-14 0 -14 10q0 8 18 11q37 5 130.5 28.5t123.5 23.5h2q21 0 21 -23q0 -21 -5 -90t-5 -103v-179q0 -41 10.5 -58.5t35.5 -17.5q31 0 59.5 29t28.5 71v266q0 23 -5.5 30t-17.5 7
q-11 0 -26.5 -2.5t-18.5 -2.5q-10 0 -10 10q0 8 13 11q11 2 95.5 27t137.5 25q21 0 21 -23q0 -21 -4.5 -90t-4.5 -104v-202q0 -74 22 -99.5t74 -25.5q17 0 17 -10q0 -9 -17 -9t-67.5 2t-81.5 2q-39 0 -87 -8t-49 -8q-8 0 -10.5 6.5t-0.5 19t5.5 25.5t6.5 30t3 30
q0 10 -4.5 13.5t-10.5 1t-10 -9.5q-75 -116 -161 -116zM174 631l69 120q39 65 86 65q51 0 87 -65l69 -120q6 -11 -2 -11q-6 0 -28 15l-75 59q-35 26 -51 26q-12 0 -51 -26l-75 -59q-20 -15 -27 -15q-8 0 -2 11z" />
    <glyph glyph-name="udieresis" unicode="&#xfc;" horiz-adv-x="656" 
d="M200 -16q-59 0 -90.5 37t-31.5 110v297q0 63 -32 63q-15 0 -35.5 -2.5t-24.5 -2.5q-14 0 -14 10q0 8 18 11q37 5 130.5 28.5t123.5 23.5h2q21 0 21 -23q0 -21 -5 -90t-5 -103v-179q0 -41 10.5 -58.5t35.5 -17.5q31 0 59.5 29t28.5 71v266q0 23 -5.5 30t-17.5 7
q-11 0 -26.5 -2.5t-18.5 -2.5q-10 0 -10 10q0 8 13 11q11 2 95.5 27t137.5 25q21 0 21 -23q0 -21 -4.5 -90t-4.5 -104v-202q0 -74 22 -99.5t74 -25.5q17 0 17 -10q0 -9 -17 -9t-67.5 2t-81.5 2q-39 0 -87 -8t-49 -8q-8 0 -10.5 6.5t-0.5 19t5.5 25.5t6.5 30t3 30
q0 10 -4.5 13.5t-10.5 1t-10 -9.5q-75 -116 -161 -116zM133 717q0 35 24.5 59.5t59.5 24.5t59.5 -24.5t24.5 -59.5t-24.5 -59.5t-59.5 -24.5t-59.5 24.5t-24.5 59.5zM358 717q0 35 25 59.5t59 24.5t59 -24.5t25 -59.5t-25 -59.5t-59 -24.5t-59 24.5t-25 59.5z" />
    <glyph glyph-name="yacute" unicode="&#xfd;" horiz-adv-x="603" 
d="M172 -235q-46 0 -75 30t-29 63q0 30 24 38q12 4 45 12.5t58 16t53 17.5t43.5 22.5t16.5 25.5q0 8 -3.5 19.5t-9 23.5t-18.5 40.5t-25 56.5l-115 278q-28 67 -58.5 91t-72.5 24q-14 0 -14 9q0 10 14 10q20 0 57 -2t49 -2h120q38 0 87.5 1t69.5 1h2h3h3h1q30 0 118 -2
q2 0 34 2t49 2q12 0 12 -9q0 -10 -12 -10q-38 0 -65.5 -24t-53.5 -92l-157 -417q-46 -120 -78 -172.5t-73 -52.5zM317 641l45 130q8 26 28.5 43.5t49.5 17.5q45 0 54.5 -27t-22.5 -56l-121 -114q-17 -15 -26 -15q-15 0 -8 21zM329 405l53 -133q5 -14 11 -19t12 0t11 19
l48 132q23 61 7 90.5t-77 30.5q-61 -1 -75.5 -30t10.5 -90z" />
    <glyph glyph-name="thorn" unicode="&#xfe;" horiz-adv-x="631" 
d="M126 -220q-15 0 -61 -2t-71 -2q-17 0 -17 9q0 10 17 10q52 0 74 25.5t23 99.5v779q0 64 -32 64q-15 0 -35 -2.5t-24 -2.5q-15 0 -15 9t18 12q38 5 131 28t122 23q24 0 24 -19q0 -32 -5 -134t-5 -164v-36q0 -49 25 -7q62 88 140 88q75 0 124 -70.5t49 -197.5
q0 -147 -60 -228.5t-144 -81.5q-32 0 -69 16t-45 16q-13 0 -16.5 -7.5t-3.5 -25.5v-59q0 -73 27.5 -99t89.5 -26q21 0 21 -9q0 -10 -21 -10q-30 0 -86 2t-75 2h-100zM256 830h1h-1zM270 212q0 -190 74 -190q34 0 54 60.5t20 177.5q0 213 -74 213q-28 0 -51 -33t-23 -95v-133
z" />
    <glyph glyph-name="ydieresis" unicode="&#xff;" horiz-adv-x="603" 
d="M172 -235q-46 0 -75 30t-29 63q0 30 24 38q12 4 45 12.5t58 16t53 17.5t43.5 22.5t16.5 25.5q0 8 -3.5 19.5t-9 23.5t-18.5 40.5t-25 56.5l-115 278q-28 67 -58.5 91t-72.5 24q-14 0 -14 9q0 10 14 10q20 0 57 -2t49 -2h120q38 0 87.5 1t69.5 1h2h3h3h1q30 0 118 -2
q2 0 34 2t49 2q12 0 12 -9q0 -10 -12 -10q-38 0 -65.5 -24t-53.5 -92l-157 -417q-46 -120 -78 -172.5t-73 -52.5zM153 717q0 35 24.5 59.5t59.5 24.5t59.5 -24.5t24.5 -59.5t-24.5 -59.5t-59.5 -24.5t-59.5 24.5t-24.5 59.5zM329 405l53 -133q5 -14 11 -19t12 0t11 19
l48 132q23 61 7 90.5t-77 30.5q-61 -1 -75.5 -30t10.5 -90zM378 717q0 35 25 59.5t59 24.5t59 -24.5t25 -59.5t-25 -59.5t-59 -24.5t-59 24.5t-25 59.5z" />
    <glyph glyph-name="Amacron" unicode="&#x100;" horiz-adv-x="830" 
d="M-10 5q0 10 17 10q58 0 92 24t58 94l232 666q6 17 24 17h28q18 0 24 -17l241 -667q24 -69 52 -93t70 -24q12 0 12 -9q0 -10 -12 -10q-22 0 -69 2t-57 2h-79q-17 0 -101 -2t-122 -2q-22 0 -22 9q0 10 21 10q50 0 73 9t30.5 35.5t-10.5 74.5l-23 76q-14 47 -63 47h-140
q-49 0 -65 -46l-26 -78q-23 -73 -5 -95.5t88 -22.5q21 0 21 -9q0 -10 -21 -10q-22 0 -67.5 2t-70.5 2q-15 0 -54.5 -2t-58.5 -2q-17 0 -17 9zM241 320q-8 -22 1 -34t32 -12h124q48 0 34 46l-76 241q-16 45 -31 0zM241 932q0 6 6 7.5t25 1.5h307h15t8.5 -1t6 -3t1.5 -5
q0 -11 -31 -11h-307q-31 0 -31 11z" />
    <glyph glyph-name="amacron" unicode="&#x101;" horiz-adv-x="566" 
d="M146 -16q-56 0 -92 32.5t-36 90.5q0 35 19 65t57 53.5t74 39.5t91 36q46 16 46 65v27q0 80 -14 108t-45 28q-26 0 -38 -12.5t-12 -42.5q0 -10 6.5 -35.5t6.5 -45.5q0 -31 -20.5 -50t-58.5 -19q-39 0 -60.5 21t-21.5 56q0 64 63 111t162 47q105 0 160 -48.5t55 -139.5
q0 -45 -2.5 -135.5t-2.5 -135.5q0 -47 35 -47q15 0 31 21t23 66q1 12 8 12q8 0 7 -12q-8 -80 -47.5 -117.5t-113.5 -37.5q-56 0 -93.5 38.5t-24.5 93.5q2 10 -2.5 15t-11 2t-10.5 -13q-25 -74 -55.5 -105.5t-82.5 -31.5zM85 691q0 6 6 7.5t25 1.5h307h15t8.5 -1t6 -3t1.5 -5
q0 -11 -31 -11h-307q-31 0 -31 11zM190 168q0 -58 41 -58q25 0 49.5 27t24.5 59v65q0 23 -12 30.5t-33 -2.5q-70 -43 -70 -121z" />
    <glyph glyph-name="Abreve" unicode="&#x102;" horiz-adv-x="830" 
d="M-10 5q0 10 17 10q58 0 92 24t58 94l232 666q6 17 24 17h28q18 0 24 -17l241 -667q24 -69 52 -93t70 -24q12 0 12 -9q0 -10 -12 -10q-22 0 -69 2t-57 2h-79q-17 0 -101 -2t-122 -2q-22 0 -22 9q0 10 21 10q50 0 73 9t30.5 35.5t-10.5 74.5l-23 76q-14 47 -63 47h-140
q-49 0 -65 -46l-26 -78q-23 -73 -5 -95.5t88 -22.5q21 0 21 -9q0 -10 -21 -10q-22 0 -67.5 2t-70.5 2q-15 0 -54.5 -2t-58.5 -2q-17 0 -17 9zM241 320q-8 -22 1 -34t32 -12h124q48 0 34 46l-76 241q-16 45 -31 0zM257 1042q-2 19 7 19q2 0 3.5 -0.5t2.5 -1.5t2 -3l1.5 -3
t1.5 -5t2 -6q21 -69 149 -69q58 0 97 14t51 55q1 3 2 7t1.5 5.5t1.5 3.5t2.5 2.5t4.5 0.5q10 0 8 -19q-19 -177 -168 -177q-150 0 -169 177z" />
    <glyph glyph-name="abreve" unicode="&#x103;" horiz-adv-x="566" 
d="M146 -16q-56 0 -92 32.5t-36 90.5q0 35 19 65t57 53.5t74 39.5t91 36q46 16 46 65v27q0 80 -14 108t-45 28q-26 0 -38 -12.5t-12 -42.5q0 -10 6.5 -35.5t6.5 -45.5q0 -31 -20.5 -50t-58.5 -19q-39 0 -60.5 21t-21.5 56q0 64 63 111t162 47q105 0 160 -48.5t55 -139.5
q0 -45 -2.5 -135.5t-2.5 -135.5q0 -47 35 -47q15 0 31 21t23 66q1 12 8 12q8 0 7 -12q-8 -80 -47.5 -117.5t-113.5 -37.5q-56 0 -93.5 38.5t-24.5 93.5q2 10 -2.5 15t-11 2t-10.5 -13q-25 -74 -55.5 -105.5t-82.5 -31.5zM101 801q-2 19 7 19q2 0 3.5 -0.5t2.5 -1.5t2 -3
l1.5 -3t1.5 -5t2 -6q21 -69 149 -69q58 0 97 14t51 55q1 3 2 7t1.5 5.5t1.5 3.5t2.5 2.5t4.5 0.5q10 0 8 -19q-19 -177 -168 -177q-150 0 -169 177zM190 168q0 -58 41 -58q25 0 49.5 27t24.5 59v65q0 23 -12 30.5t-33 -2.5q-70 -43 -70 -121z" />
    <glyph glyph-name="Aogonek" unicode="&#x104;" horiz-adv-x="830" 
d="M-10 5q0 10 17 10q58 0 92 24t58 94l232 666q6 17 24 17h28q18 0 24 -17l241 -667q24 -69 52 -93t70 -24q12 0 12 -9q0 -10 -12 -10q-15 0 -35.5 0.5t-43.5 2t-32 1.5q-36 -41 -51 -68.5t-15 -60.5q0 -62 58 -62q39 0 87 23q21 11 21 2q0 -7 -15 -21q-71 -69 -147 -69
q-49 0 -85.5 23.5t-36.5 68.5q0 41 26.5 71.5t72 57.5t54.5 35h-63q-17 0 -101 -2t-122 -2q-22 0 -22 9q0 10 21 10q50 0 73 9t30.5 35.5t-10.5 74.5l-23 76q-14 47 -63 47h-140q-49 0 -65 -46l-26 -78q-23 -73 -5 -95.5t88 -22.5q21 0 21 -9q0 -10 -21 -10q-22 0 -67.5 2
t-70.5 2q-15 0 -54.5 -2t-58.5 -2q-17 0 -17 9zM241 320q-8 -22 1 -34t32 -12h124q48 0 34 46l-76 241q-16 45 -31 0z" />
    <glyph glyph-name="aogonek" unicode="&#x105;" horiz-adv-x="566" 
d="M146 -16q-56 0 -92 32.5t-36 90.5q0 35 19 65t57 53.5t74 39.5t91 36q46 16 46 65v27q0 80 -14 108t-45 28q-26 0 -38 -12.5t-12 -42.5q0 -10 6.5 -35.5t6.5 -45.5q0 -31 -20.5 -50t-58.5 -19q-39 0 -60.5 21t-21.5 56q0 64 63 111t162 47q105 0 160 -48.5t55 -139.5
q0 -45 -2.5 -135.5t-2.5 -135.5q0 -47 35 -47q15 0 31 21t23 66q1 12 8 12q8 0 7 -12q-13 -124 -104 -148q-36 -41 -51 -68.5t-15 -60.5q0 -62 58 -62q39 0 87 23q21 11 21 2q0 -7 -15 -21q-71 -69 -147 -69q-49 0 -85.5 23.5t-36.5 68.5q0 30 17.5 57t36.5 41t50 33.5
t41 26.5q-6 -1 -18 -1q-56 0 -93.5 38.5t-24.5 93.5q2 10 -2.5 15t-11 2t-10.5 -13q-25 -74 -55.5 -105.5t-82.5 -31.5zM190 168q0 -58 41 -58q25 0 49.5 27t24.5 59v65q0 23 -12 30.5t-33 -2.5q-70 -43 -70 -121z" />
    <glyph glyph-name="Cacute" unicode="&#x106;" horiz-adv-x="721" 
d="M28 383q0 193 109.5 313t290.5 120q43 0 90.5 -5t52.5 -5q22 0 39.5 4.5t20.5 4.5q7 0 9.5 -4t2.5 -18q0 -1 -0.5 -42.5t0 -66t3 -69t8.5 -83.5q3 -19 -7 -19q-2 0 -3.5 0.5t-2.5 2t-1.5 3t-1.5 5t-2 5.5q-15 39 -21 53t-20 47.5t-22 47t-22.5 38t-26 35t-27 23.5
t-32.5 18t-36 5q-82 0 -126 -107.5t-44 -266.5q0 -160 53 -254t143 -94q81 0 133 69t70 192q3 13 9 13q7 0 6 -14q-7 -72 -28 -133t-55.5 -110.5t-89.5 -78t-124 -28.5q-163 0 -255.5 112t-92.5 287zM382 900l45 130q8 26 28.5 43.5t49.5 17.5q45 0 54.5 -27.5t-22.5 -55.5
l-121 -114q-17 -15 -26 -15q-15 0 -8 21z" />
    <glyph glyph-name="cacute" unicode="&#x107;" horiz-adv-x="490" 
d="M252 -16q-106 0 -167.5 74t-61.5 199q0 134 70.5 217.5t192.5 83.5q72 0 125 -39t53 -104q0 -39 -24.5 -64t-62.5 -25q-34 0 -54.5 16t-20.5 45q0 15 13.5 40t13.5 41q0 32 -14 46.5t-33 14.5q-38 0 -58 -60.5t-20 -138.5q0 -102 34.5 -162.5t105.5 -60.5q34 0 67.5 29
t48.5 86q4 11 10 11q8 0 5 -14q-39 -235 -223 -235zM240 641l45 130q8 26 28.5 43.5t49.5 17.5q45 0 54.5 -27t-22.5 -56l-121 -114q-17 -15 -26 -15q-15 0 -8 21z" />
    <glyph glyph-name="Cdotaccent" unicode="&#x10a;" horiz-adv-x="721" 
d="M28 383q0 193 109.5 313t290.5 120q43 0 90.5 -5t52.5 -5q22 0 39.5 4.5t20.5 4.5q7 0 9.5 -4t2.5 -18q0 -1 -0.5 -42.5t0 -66t3 -69t8.5 -83.5q3 -19 -7 -19q-2 0 -3.5 0.5t-2.5 2t-1.5 3t-1.5 5t-2 5.5q-15 39 -21 53t-20 47.5t-22 47t-22.5 38t-26 35t-27 23.5
t-32.5 18t-36 5q-82 0 -126 -107.5t-44 -266.5q0 -160 53 -254t143 -94q81 0 133 69t70 192q3 13 9 13q7 0 6 -14q-7 -72 -28 -133t-55.5 -110.5t-89.5 -78t-124 -28.5q-163 0 -255.5 112t-92.5 287zM331 967q0 35 24.5 59.5t59.5 24.5t59.5 -24.5t24.5 -59.5t-24.5 -59.5
t-59.5 -24.5t-59.5 24.5t-24.5 59.5z" />
    <glyph glyph-name="cdotaccent" unicode="&#x10b;" horiz-adv-x="490" 
d="M252 -16q-106 0 -167.5 74t-61.5 199q0 134 70.5 217.5t192.5 83.5q72 0 125 -39t53 -104q0 -39 -24.5 -64t-62.5 -25q-34 0 -54.5 16t-20.5 45q0 15 13.5 40t13.5 41q0 32 -14 46.5t-33 14.5q-38 0 -58 -60.5t-20 -138.5q0 -102 34.5 -162.5t105.5 -60.5q34 0 67.5 29
t48.5 86q4 11 10 11q8 0 5 -14q-39 -235 -223 -235zM189 708q0 34 24.5 59t59.5 25t59.5 -25t24.5 -59t-24.5 -59t-59.5 -25t-59.5 25t-24.5 59z" />
    <glyph glyph-name="Ccaron" unicode="&#x10c;" horiz-adv-x="721" 
d="M28 383q0 193 109.5 313t290.5 120q43 0 90.5 -5t52.5 -5q22 0 39.5 4.5t20.5 4.5q7 0 9.5 -4t2.5 -18q0 -1 -0.5 -42.5t0 -66t3 -69t8.5 -83.5q3 -19 -7 -19q-2 0 -3.5 0.5t-2.5 2t-1.5 3t-1.5 5t-2 5.5q-15 39 -21 53t-20 47.5t-22 47t-22.5 38t-26 35t-27 23.5
t-32.5 18t-36 5q-82 0 -126 -107.5t-44 -266.5q0 -160 53 -254t143 -94q81 0 133 69t70 192q3 13 9 13q7 0 6 -14q-7 -72 -28 -133t-55.5 -110.5t-89.5 -78t-124 -28.5q-163 0 -255.5 112t-92.5 287zM259 1066q-6 11 2 11q7 0 27 -15l75 -59q39 -26 51 -26q16 0 51 26l75 59
q22 15 28 15q8 0 2 -11l-69 -120q-36 -65 -87 -65q-47 0 -86 65z" />
    <glyph glyph-name="ccaron" unicode="&#x10d;" horiz-adv-x="490" 
d="M252 -16q-106 0 -167.5 74t-61.5 199q0 134 70.5 217.5t192.5 83.5q72 0 125 -39t53 -104q0 -39 -24.5 -64t-62.5 -25q-34 0 -54.5 16t-20.5 45q0 15 13.5 40t13.5 41q0 32 -14 46.5t-33 14.5q-38 0 -58 -60.5t-20 -138.5q0 -102 34.5 -162.5t105.5 -60.5q34 0 67.5 29
t48.5 86q4 11 10 11q8 0 5 -14q-39 -235 -223 -235zM117 807q-6 11 2 11q7 0 27 -15l75 -59q39 -26 51 -26q16 0 51 26l75 59q22 15 28 15q8 0 2 -11l-69 -120q-36 -65 -87 -65q-47 0 -86 65z" />
    <glyph glyph-name="Dcaron" unicode="&#x10e;" horiz-adv-x="829" 
d="M180 0q-14 0 -80 -2t-97 -2q-17 0 -17 9q0 10 17 10q58 0 82 25.5t24 99.5v520q1 74 -23 99.5t-83 25.5q-17 0 -17 10q1 10 18 10q25 0 92 -2.5t85 -2.5h213q62 0 118 -11t111 -39t94.5 -72t64 -115t24.5 -162q0 -92 -25 -163.5t-64.5 -115.5t-94.5 -72t-110.5 -39
t-116.5 -11h-215zM243 1066q-6 11 2 11q7 0 27 -15l75 -59q39 -26 51 -26q16 0 51 26l75 59q22 15 28 15q8 0 2 -11l-69 -120q-36 -65 -87 -65q-47 0 -86 65zM323 99q0 -48 12 -64t43 -16q94 0 149 105t55 265q0 172 -62.5 282t-147.5 110q-25 0 -37 -13t-12 -55v-614z" />
    <glyph glyph-name="dcaron" unicode="&#x10f;" horiz-adv-x="621" 
d="M199 -16q-78 0 -127 68.5t-49 194.5q0 148 61 230t145 82q31 0 66 -15t44 -15q14 0 17.5 10t3.5 43v117q0 36 -8 50t-25 14q-15 0 -36 -2.5t-25 -2.5q-15 -1 -15 9q0 9 19 12q38 5 132.5 27.5t125.5 23.5q22 -1 22 -20q0 -31 -5 -118.5t-5 -131.5v-420q0 -74 22 -99.5
t74 -25.5q17 0 17 -10q0 -9 -17 -9q-16 0 -66 2t-82 2q-40 0 -87.5 -8t-48.5 -8q-8 -1 -10.5 5t-0.5 17.5t5.5 24.5t6.5 29.5t4 29.5q1 15 -8.5 16t-16.5 -11q-61 -111 -133 -111zM213 279q0 -186 73 -186q25 0 49.5 20.5t24.5 63.5v135q0 87 -17.5 145.5t-53.5 58.5
q-34 0 -55 -65.5t-21 -171.5zM526 830h2h2h-4zM590 623v149q0 22 16.5 34.5t45.5 12.5q31 0 45 -13.5t2 -34.5l-89 -149q-11 -18 -15 -18q-5 0 -5 19z" />
    <glyph glyph-name="Dcroat" unicode="&#x110;" horiz-adv-x="829" 
d="M180 0q-14 0 -80 -2t-97 -2q-17 0 -17 9q0 10 17 10q58 0 82 25.5t24 99.5v267q-6 8 -19 8h-64q-10 0 -10 9q0 10 10 10h64q13 0 19 8v218q1 74 -23 99.5t-83 25.5q-17 0 -17 10q1 10 18 10q25 0 92 -2.5t85 -2.5h213q62 0 118 -11t111 -39t94.5 -72t64 -115t24.5 -162
q0 -92 -25 -163.5t-64.5 -115.5t-94.5 -72t-110.5 -39t-116.5 -11h-215zM323 99q0 -48 12 -64t43 -16q94 0 149 105t55 265q0 172 -62.5 282t-147.5 110q-25 0 -37 -13t-12 -55v-258h5q0 -21 23 -21h132q10 0 10 -10q0 -9 -10 -9h-132q-23 0 -23 -21h-5v-295z" />
    <glyph glyph-name="dcroat" unicode="&#x111;" horiz-adv-x="621" 
d="M199 -16q-78 0 -127 68.5t-49 194.5q0 148 61 230t145 82q31 0 66 -15t44 -15q14 0 17.5 10t3.5 43v41q0 21 -23 21h-105q-10 0 -10 9q0 10 10 10h105q23 0 23 21v15q0 36 -8 50t-25 14q-15 0 -36 -2.5t-25 -2.5q-15 -1 -15 9q0 9 19 12q38 5 132.5 27.5t125.5 23.5
q22 -1 22 -20q0 -16 -3 -60t-3 -70q0 -17 21 -17h44q10 0 10 -10q0 -9 -10 -9h-44q-25 0 -25 -22v-482q0 -74 22 -99.5t74 -25.5q17 0 17 -10q0 -9 -17 -9q-16 0 -66 2t-82 2q-40 0 -87.5 -8t-48.5 -8q-8 -1 -10.5 5t-0.5 17.5t5.5 24.5t6.5 29.5t4 29.5q1 15 -8.5 16
t-16.5 -11q-61 -111 -133 -111zM213 279q0 -186 73 -186q25 0 49.5 20.5t24.5 63.5v135q0 87 -17.5 145.5t-53.5 58.5q-34 0 -55 -65.5t-21 -171.5zM526 830h2h2h-4z" />
    <glyph glyph-name="Emacron" unicode="&#x112;" horiz-adv-x="672" 
d="M597 -4q-16 0 -56 2t-76 2h-285q-14 0 -80 -2t-97 -2q-17 0 -17 9q0 10 17 10q58 0 82 25.5t24 99.5v520q1 74 -23 99.5t-83 25.5q-17 0 -17 10q1 10 18 10q25 0 92 -2.5t85 -2.5h327q23 0 51.5 2t37.5 2q26 0 26 -28q0 -8 -5 -52.5t-6 -66.5q0 -42 8 -93q3 -19 -7 -19
q-8 0 -12 16q-30 113 -72.5 168t-103.5 55h-34q-68 0 -68 -74v-239q0 -22 9.5 -35t26.5 -13h33q67 -1 90 23t23 82q0 17 9 17t9 -17q0 -19 -2.5 -56t-2.5 -57q0 -15 2 -55t2 -60q0 -17 -8 -17q-9 0 -9 17q0 58 -23 82t-90 24h-20q-49 0 -49 -36v-281q0 -38 14.5 -55.5
t54.5 -17.5h32q60 0 107 51.5t110 179.5q8 18 15 18q11 0 6 -16q-9 -32 -26 -115q-13 -68 -13 -110q0 -28 -26 -28zM190 932q0 6 6 7.5t25 1.5h307h15t8.5 -1t6 -3t1.5 -5q0 -11 -31 -11h-307q-31 0 -31 11z" />
    <glyph glyph-name="emacron" unicode="&#x113;" horiz-adv-x="499" 
d="M250 -16q-103 0 -165 71t-62 203q0 122 68.5 211t175.5 89q89 0 146.5 -47t57.5 -111q0 -42 -16.5 -55t-76.5 -13h-135q-44 0 -44 -41v-28q0 -74 34 -117t94 -43q39 0 77.5 29t58.5 94q5 14 11 14q7 0 4 -15q-26 -127 -81 -184t-147 -57zM76 691q0 6 6 7.5t25 1.5h307h15
t8.5 -1t6 -3t1.5 -5q0 -11 -31 -11h-307q-31 0 -31 11zM200 388q0 -44 39 -44h18q44 0 44 62q0 64 -10 94t-36 30t-38.5 -32.5t-16.5 -109.5z" />
    <glyph glyph-name="Edotaccent" unicode="&#x116;" horiz-adv-x="672" 
d="M597 -4q-16 0 -56 2t-76 2h-285q-14 0 -80 -2t-97 -2q-17 0 -17 9q0 10 17 10q58 0 82 25.5t24 99.5v520q1 74 -23 99.5t-83 25.5q-17 0 -17 10q1 10 18 10q25 0 92 -2.5t85 -2.5h327q23 0 51.5 2t37.5 2q26 0 26 -28q0 -8 -5 -52.5t-6 -66.5q0 -42 8 -93q3 -19 -7 -19
q-8 0 -12 16q-30 113 -72.5 168t-103.5 55h-34q-68 0 -68 -74v-239q0 -22 9.5 -35t26.5 -13h33q67 -1 90 23t23 82q0 17 9 17t9 -17q0 -19 -2.5 -56t-2.5 -57q0 -15 2 -55t2 -60q0 -17 -8 -17q-9 0 -9 17q0 58 -23 82t-90 24h-20q-49 0 -49 -36v-281q0 -38 14.5 -55.5
t54.5 -17.5h32q60 0 107 51.5t110 179.5q8 18 15 18q11 0 6 -16q-9 -32 -26 -115q-13 -68 -13 -110q0 -28 -26 -28zM291 949q0 35 24.5 59.5t59.5 24.5t59.5 -24.5t24.5 -59.5t-24.5 -59.5t-59.5 -24.5t-59.5 24.5t-24.5 59.5z" />
    <glyph glyph-name="edotaccent" unicode="&#x117;" horiz-adv-x="499" 
d="M250 -16q-103 0 -165 71t-62 203q0 122 68.5 211t175.5 89q89 0 146.5 -47t57.5 -111q0 -42 -16.5 -55t-76.5 -13h-135q-44 0 -44 -41v-28q0 -74 34 -117t94 -43q39 0 77.5 29t58.5 94q5 14 11 14q7 0 4 -15q-26 -127 -81 -184t-147 -57zM176 708q0 34 25 59t59 25
t59 -25t25 -59t-25 -59t-59 -25t-59 25t-25 59zM200 388q0 -44 39 -44h18q44 0 44 62q0 64 -10 94t-36 30t-38.5 -32.5t-16.5 -109.5z" />
    <glyph glyph-name="Eogonek" unicode="&#x118;" horiz-adv-x="672" 
d="M597 -4q-16 0 -45.5 1.5t-45.5 1.5q-35 -40 -50 -67.5t-15 -60.5q0 -62 58 -62q39 0 87 23q21 11 21 2q0 -7 -15 -21q-71 -69 -147 -69q-49 0 -85.5 23.5t-36.5 68.5q0 41 26.5 71.5t72 57.5t54.5 35h-11h-285q-14 0 -80 -2t-97 -2q-17 0 -17 9q0 10 17 10q58 0 82 25.5
t24 99.5v520q1 74 -23 99.5t-83 25.5q-17 0 -17 10q1 10 18 10q25 0 92 -2.5t85 -2.5h327q23 0 51.5 2t37.5 2q26 0 26 -28q0 -8 -5 -52.5t-6 -66.5q0 -42 8 -93q3 -19 -7 -19q-8 0 -12 16q-30 113 -72.5 168t-103.5 55h-34q-68 0 -68 -74v-239q0 -22 9.5 -35t26.5 -13h33
q67 -1 90 23t23 82q0 17 9 17t9 -17q0 -19 -2.5 -56t-2.5 -57q0 -15 2 -55t2 -60q0 -17 -8 -17q-9 0 -9 17q0 58 -23 82t-90 24h-20q-49 0 -49 -36v-281q0 -38 14.5 -55.5t54.5 -17.5h32q60 0 107 51.5t110 179.5q8 18 15 18q11 0 6 -16q-9 -32 -26 -115q-13 -68 -13 -110
q0 -28 -26 -28z" />
    <glyph glyph-name="eogonek" unicode="&#x119;" horiz-adv-x="499" 
d="M250 -16q-103 0 -165 71t-62 203q0 122 68.5 211t175.5 89q89 0 146.5 -47t57.5 -111q0 -42 -16.5 -55t-76.5 -13h-135q-44 0 -44 -41v-28q0 -74 34 -117t94 -43q39 0 77.5 29t58.5 94q5 14 11 14q7 0 4 -15q-38 -185 -143 -226q-36 -41 -51 -68.5t-15 -60.5
q0 -62 58 -62q39 0 87 23q21 11 21 2q0 -7 -15 -21q-71 -69 -147 -69q-49 0 -85.5 23.5t-36.5 68.5q0 23 8.5 43t26 36.5t31.5 27t38 25t32 19.5q-24 -2 -37 -2zM200 388q0 -44 39 -44h18q44 0 44 62q0 64 -10 94t-36 30t-38.5 -32.5t-16.5 -109.5z" />
    <glyph glyph-name="Ecaron" unicode="&#x11a;" horiz-adv-x="672" 
d="M597 -4q-16 0 -56 2t-76 2h-285q-14 0 -80 -2t-97 -2q-17 0 -17 9q0 10 17 10q58 0 82 25.5t24 99.5v520q1 74 -23 99.5t-83 25.5q-17 0 -17 10q1 10 18 10q25 0 92 -2.5t85 -2.5h327q23 0 51.5 2t37.5 2q26 0 26 -28q0 -8 -5 -52.5t-6 -66.5q0 -42 8 -93q3 -19 -7 -19
q-8 0 -12 16q-30 113 -72.5 168t-103.5 55h-34q-68 0 -68 -74v-239q0 -22 9.5 -35t26.5 -13h33q67 -1 90 23t23 82q0 17 9 17t9 -17q0 -19 -2.5 -56t-2.5 -57q0 -15 2 -55t2 -60q0 -17 -8 -17q-9 0 -9 17q0 58 -23 82t-90 24h-20q-49 0 -49 -36v-281q0 -38 14.5 -55.5
t54.5 -17.5h32q60 0 107 51.5t110 179.5q8 18 15 18q11 0 6 -16q-9 -32 -26 -115q-13 -68 -13 -110q0 -28 -26 -28zM220 1048q-6 11 2 11q7 0 27 -15l75 -59q39 -26 51 -26q16 0 51 26l75 59q22 15 28 15q8 0 2 -11l-69 -120q-36 -65 -87 -65q-47 0 -86 65z" />
    <glyph glyph-name="ecaron" unicode="&#x11b;" horiz-adv-x="499" 
d="M250 -16q-103 0 -165 71t-62 203q0 122 68.5 211t175.5 89q89 0 146.5 -47t57.5 -111q0 -42 -16.5 -55t-76.5 -13h-135q-44 0 -44 -41v-28q0 -74 34 -117t94 -43q39 0 77.5 29t58.5 94q5 14 11 14q7 0 4 -15q-26 -127 -81 -184t-147 -57zM105 807q-6 11 2 11q7 0 27 -15
l75 -59q39 -26 51 -26q16 0 51 26l75 59q22 15 28 15q8 0 2 -11l-69 -120q-36 -65 -87 -65q-47 0 -86 65zM200 388q0 -44 39 -44h18q44 0 44 62q0 64 -10 94t-36 30t-38.5 -32.5t-16.5 -109.5z" />
    <glyph glyph-name="Gbreve" unicode="&#x11e;" horiz-adv-x="831" 
d="M421 -16q-183 0 -288 113t-105 289q0 197 113 313.5t313 116.5q43 0 89.5 -5t54.5 -5q22 0 38 4.5t22 4.5q13 0 12 -22q0 -4 -0.5 -57t2 -103.5t9.5 -100.5q3 -19 -6 -19q-2 0 -3.5 0.5t-2 1t-1.5 2t-1.5 3l-1.5 4.5t-2 5q-19 49 -34.5 82.5t-36.5 71.5t-41.5 60.5
t-47.5 37.5t-57 15q-76 0 -131.5 -111.5t-55.5 -264.5q0 -81 11.5 -154t34 -133t60.5 -96t86 -36q36 0 58.5 19.5t22.5 60.5v200q1 75 -28.5 100.5t-101.5 25.5q-21 0 -21 9q0 10 21 10q38 0 119.5 -2t99.5 -2h84q11 0 45 2t53 2q12 0 12 -9q0 -10 -12 -10q-38 0 -54.5 -26
t-17.5 -100v-88q0 -41 9.5 -70t9.5 -31q1 -23 -49 -48t-128.5 -42.5t-151.5 -17.5zM279 1042q-2 19 7 19q2 0 3.5 -0.5t2.5 -1.5t2 -3l1.5 -3t1.5 -5t2 -6q21 -69 149 -69q58 0 97 14t51 55q1 3 2 7t1.5 5.5t1.5 3.5t2.5 2.5t4.5 0.5q10 0 8 -19q-19 -177 -168 -177
q-150 0 -169 177z" />
    <glyph glyph-name="gbreve" unicode="&#x11f;" horiz-adv-x="584" 
d="M242 -236q-102 0 -170.5 32.5t-68.5 88.5q0 32 29 57t98 27q10 1 14 6t0 10t-14 6q-35 0 -55 15t-24 27.5t-4 26.5q0 38 31 67t74 46q27 12 -20 40q-38 23 -63 62.5t-25 85.5q0 85 64.5 141t174.5 56q56 0 104 -16q42 -14 58 0q72 64 125 64q23 0 34.5 -12.5t11.5 -31.5
q0 -21 -12 -36t-31 -15q-15 0 -57.5 8t-62.5 8q-8 0 -11 -2t-2 -5.5t4.5 -8t8.5 -8.5q59 -51 59 -135q0 -88 -63 -141t-170 -53q-19 0 -43 2t-32 2t-23 -3q-11 -4 -17.5 -11.5t-6.5 -15.5q0 -11 7.5 -17.5t35.5 -11t80 -4.5h141q164 0 164 -120q0 -100 -97 -165.5
t-246 -65.5zM102 804q-2 19 7 19q2 0 3.5 -0.5t2.5 -1.5t2 -3l1.5 -3t1.5 -5t2 -6q21 -69 149 -69q58 0 97 14t51 55q1 3 2 7t1.5 5.5t1.5 3.5t2.5 2.5t4.5 0.5q10 0 8 -19q-19 -177 -168 -177q-150 0 -169 177zM120 -76q0 -27 56.5 -50.5t153.5 -23.5q195 0 195 66
q0 53 -120 53h-219q-66 0 -66 -45zM220 441q0 -80 19 -159t53 -79q44 0 44 87q0 81 -19 160.5t-53 79.5q-44 0 -44 -89z" />
    <glyph glyph-name="Gdotaccent" unicode="&#x120;" horiz-adv-x="831" 
d="M421 -16q-183 0 -288 113t-105 289q0 197 113 313.5t313 116.5q43 0 89.5 -5t54.5 -5q22 0 38 4.5t22 4.5q13 0 12 -22q0 -4 -0.5 -57t2 -103.5t9.5 -100.5q3 -19 -6 -19q-2 0 -3.5 0.5t-2 1t-1.5 2t-1.5 3l-1.5 4.5t-2 5q-19 49 -34.5 82.5t-36.5 71.5t-41.5 60.5
t-47.5 37.5t-57 15q-76 0 -131.5 -111.5t-55.5 -264.5q0 -81 11.5 -154t34 -133t60.5 -96t86 -36q36 0 58.5 19.5t22.5 60.5v200q1 75 -28.5 100.5t-101.5 25.5q-21 0 -21 9q0 10 21 10q38 0 119.5 -2t99.5 -2h84q11 0 45 2t53 2q12 0 12 -9q0 -10 -12 -10q-38 0 -54.5 -26
t-17.5 -100v-88q0 -41 9.5 -70t9.5 -31q1 -23 -49 -48t-128.5 -42.5t-151.5 -17.5zM364 949q0 35 25 59.5t59 24.5t59 -24.5t25 -59.5t-25 -59.5t-59 -24.5t-59 24.5t-25 59.5z" />
    <glyph glyph-name="gdotaccent" unicode="&#x121;" horiz-adv-x="584" 
d="M242 -236q-102 0 -170.5 32.5t-68.5 88.5q0 32 29 57t98 27q10 1 14 6t0 10t-14 6q-35 0 -55 15t-24 27.5t-4 26.5q0 38 31 67t74 46q27 12 -20 40q-38 23 -63 62.5t-25 85.5q0 85 64.5 141t174.5 56q56 0 104 -16q42 -14 58 0q72 64 125 64q23 0 34.5 -12.5t11.5 -31.5
q0 -21 -12 -36t-31 -15q-15 0 -57.5 8t-62.5 8q-8 0 -11 -2t-2 -5.5t4.5 -8t8.5 -8.5q59 -51 59 -135q0 -88 -63 -141t-170 -53q-19 0 -43 2t-32 2t-23 -3q-11 -4 -17.5 -11.5t-6.5 -15.5q0 -11 7.5 -17.5t35.5 -11t80 -4.5h141q164 0 164 -120q0 -100 -97 -165.5
t-246 -65.5zM120 -76q0 -27 56.5 -50.5t153.5 -23.5q195 0 195 66q0 53 -120 53h-219q-66 0 -66 -45zM186 711q0 35 25 59.5t59 24.5t59 -24.5t25 -59.5t-25 -59.5t-59 -24.5t-59 24.5t-25 59.5zM220 441q0 -80 19 -159t53 -79q44 0 44 87q0 81 -19 160.5t-53 79.5
q-44 0 -44 -89z" />
    <glyph glyph-name="uni0122" unicode="&#x122;" horiz-adv-x="831" 
d="M421 -16q-183 0 -288 113t-105 289q0 197 113 313.5t313 116.5q43 0 89.5 -5t54.5 -5q22 0 38 4.5t22 4.5q13 0 12 -22q0 -4 -0.5 -57t2 -103.5t9.5 -100.5q3 -19 -6 -19q-2 0 -3.5 0.5t-2 1t-1.5 2t-1.5 3l-1.5 4.5t-2 5q-19 49 -34.5 82.5t-36.5 71.5t-41.5 60.5
t-47.5 37.5t-57 15q-76 0 -131.5 -111.5t-55.5 -264.5q0 -81 11.5 -154t34 -133t60.5 -96t86 -36q36 0 58.5 19.5t22.5 60.5v200q1 75 -28.5 100.5t-101.5 25.5q-21 0 -21 9q0 10 21 10q38 0 119.5 -2t99.5 -2h84q11 0 45 2t53 2q12 0 12 -9q0 -10 -12 -10q-38 0 -54.5 -26
t-17.5 -100v-88q0 -41 9.5 -70t9.5 -31q1 -23 -49 -48t-128.5 -42.5t-151.5 -17.5zM351 -119q0 30 21 47.5t52 17.5q35 0 55.5 -22t20.5 -58q0 -47 -32.5 -84t-77.5 -47q-26 -4 -26 12q0 14 20 22q28 10 44.5 17.5t31.5 20.5t15 27q0 15 -20 15q-10 0 -27.5 -12t-32.5 -12
q-18 0 -31 15t-13 41z" />
    <glyph glyph-name="uni0123" unicode="&#x123;" horiz-adv-x="584" 
d="M242 -236q-102 0 -170.5 32.5t-68.5 88.5q0 32 29 57t98 27q10 1 14 6t0 10t-14 6q-35 0 -55 15t-24 27.5t-4 26.5q0 38 31 67t74 46q27 12 -20 40q-38 23 -63 62.5t-25 85.5q0 85 64.5 141t174.5 56q56 0 104 -16q42 -14 58 0q72 64 125 64q23 0 34.5 -12.5t11.5 -31.5
q0 -21 -12 -36t-31 -15q-15 0 -57.5 8t-62.5 8q-8 0 -11 -2t-2 -5.5t4.5 -8t8.5 -8.5q59 -51 59 -135q0 -88 -63 -141t-170 -53q-19 0 -43 2t-32 2t-23 -3q-11 -4 -17.5 -11.5t-6.5 -15.5q0 -11 7.5 -17.5t35.5 -11t80 -4.5h141q164 0 164 -120q0 -100 -97 -165.5
t-246 -65.5zM120 -76q0 -27 56.5 -50.5t153.5 -23.5q195 0 195 66q0 53 -120 53h-219q-66 0 -66 -45zM204 704q0 47 32.5 84t77.5 47q26 4 26 -12q0 -14 -20 -22q-28 -10 -44.5 -17.5t-31.5 -20.5t-15 -27q0 -15 20 -15q10 0 27.5 12t32.5 12q18 0 31 -15t13 -41
q0 -30 -21 -47.5t-52 -17.5q-35 0 -55.5 22t-20.5 58zM220 441q0 -80 19 -159t53 -79q44 0 44 87q0 81 -19 160.5t-53 79.5q-44 0 -44 -89z" />
    <glyph glyph-name="Hbar" unicode="&#x126;" horiz-adv-x="890" 
d="M566 660q1 74 -17 99.5t-61 25.5q-12 0 -12 10t13 9q23 0 71 -2t59 -2h90q14 0 80.5 2t97.5 2q17 0 17 -9q0 -10 -17 -10q-58 0 -82 -25.5t-24 -99.5v-13q0 -21 24 -21h62q10 0 10 -10t-10 -10h-62q-24 0 -24 -21v-445q-1 -74 23 -99.5t82 -25.5q17 0 17 -10t-17 -10
q-26 0 -93 2.5t-84 2.5h-90q-11 0 -60 -2t-71 -2q-13 0 -13 9q0 10 13 10q43 0 60.5 25.5t17.5 99.5v230q0 23 -13 35.5t-36 12.5h-145q-23 0 -36 -12.5t-13 -35.5v-230q0 -74 17.5 -99.5t60.5 -25.5q13 0 13 -10t-13 -9q-23 0 -72 2t-59 2h-90q-14 0 -80 -2t-97 -2
q-17 0 -17 9q0 10 17 10q58 0 82 25.5t24 99.5v451q0 15 -22 15h-63q-10 0 -10 10t10 10h63q22 0 22 14v20q1 74 -23 99.5t-83 25.5q-17 0 -17 10q1 10 18 10q25 0 92 -2.5t85 -2.5h90q11 0 60 2t71 2q12 0 12 -9q0 -10 -12 -10q-43 0 -61 -25.5t-18 -99.5v-13q0 -21 24 -21
h197q22 0 22 14v20zM323 484q0 -49 49 -49h145q49 0 49 49v107q0 15 -22 15h-197q-24 0 -24 -21v-101z" />
    <glyph glyph-name="hbar" unicode="&#x127;" horiz-adv-x="684" 
d="M134 0q-14 0 -57 -2t-66 -2q-16 0 -16 9q0 10 16 10q48 0 68.5 25.5t21.5 99.5v483q0 21 -23 21h-44q-10 0 -10 9q0 10 10 10h46q21 0 21 21v15q0 64 -32 64q-15 0 -35 -2.5t-24 -2.5q-15 -1 -15 9q0 9 18 12q38 5 131.5 28t122.5 23q23 0 23 -20q0 -51 -5 -128
q0 -19 23 -19h102q10 0 10 -10q0 -9 -10 -9h-105q-23 0 -23 -21q-2 -52 -2 -80v-71q0 -48 33 -12q45 50 82 74.5t79 24.5q59 0 94 -40.5t35 -126.5v-252q0 -73 19.5 -99t63.5 -26q15 0 15 -9q0 -10 -15 -10q-21 0 -61 2t-54 2h-122q-23 0 -53 -1t-43 -1h-1h-1q-18 0 -46 1
t-51 1h-120zM280 143q0 -67 17 -98.5t54 -31.5h1h1q37 0 53.5 31.5t16.5 98.5v256q0 65 -48 65q-32 0 -63.5 -20t-31.5 -64v-237z" />
    <glyph glyph-name="Imacron" unicode="&#x12a;" horiz-adv-x="432" 
d="M109 660q1 74 -23 99.5t-83 25.5q-17 0 -17 10q1 10 18 10q25 0 92 -2.5t85 -2.5h71q14 0 80.5 2t97.5 2q17 0 17 -9q0 -10 -17 -10q-59 0 -83 -25.5t-24 -99.5v-520q0 -74 24 -99.5t82 -25.5q17 0 17 -10t-17 -10q-26 0 -93 2.5t-85 2.5h-71q-14 0 -80 -2t-97 -2
q-17 0 -17 9q0 10 17 10q58 0 82 25.5t24 99.5v520zM32 932q0 6 6 7.5t25 1.5h307h15t8.5 -1t6 -3t1.5 -5q0 -11 -31 -11h-307q-31 0 -31 11z" />
    <glyph glyph-name="imacron" unicode="&#x12b;" horiz-adv-x="371" 
d="M281 140q0 -74 22.5 -99.5t73.5 -25.5q17 0 17 -9q0 -10 -17 -10q-25 0 -71 2t-61 2h-108q-15 0 -61.5 -2t-72.5 -2q-17 0 -17 9q0 10 17 10q53 0 75.5 25.5t22.5 99.5l1 288q0 63 -32 63q-15 0 -35.5 -2.5t-24.5 -2.5q-14 0 -14 10q0 8 18 11q37 5 130 28t123 24
q23 0 23 -27q0 -23 -4.5 -118.5t-4.5 -144.5v-129zM-5 691q0 6 6 7.5t25 1.5h307h15t8.5 -1t6 -3t1.5 -5q0 -11 -31 -11h-307q-31 0 -31 11zM266 559h1h1h-2z" />
    <glyph glyph-name="Iogonek" unicode="&#x12e;" horiz-adv-x="432" 
d="M109 660q1 74 -23 99.5t-83 25.5q-17 0 -17 10q1 10 18 10q25 0 92 -2.5t85 -2.5h71q14 0 80.5 2t97.5 2q17 0 17 -9q0 -10 -17 -10q-59 0 -83 -25.5t-24 -99.5v-520q0 -74 24 -99.5t82 -25.5q17 0 17 -10t-17 -10q-95 3 -118 4q-36 -42 -50.5 -68.5t-14.5 -59.5
q0 -62 58 -62q39 0 87 23q21 11 21 2q0 -7 -15 -21q-71 -69 -147 -69q-49 0 -85.5 23.5t-36.5 68.5q0 41 26 71.5t72 57.5t54 34q-11 1 -29 1h-71q-14 0 -80 -2t-97 -2q-17 0 -17 9q0 10 17 10q58 0 82 25.5t24 99.5v520z" />
    <glyph glyph-name="iogonek" unicode="&#x12f;" horiz-adv-x="371" 
d="M281 140q0 -74 22.5 -99.5t73.5 -25.5q17 0 17 -9q0 -10 -17 -10q-25 0 -72 2t-50 2q-36 -41 -51 -68.5t-15 -60.5q0 -62 58 -62q39 0 87 23q21 11 21 2q0 -7 -15 -21q-71 -69 -147 -69q-49 0 -85.5 23.5t-36.5 68.5q0 41 26.5 71.5t72 57.5t54.5 35h-87q-15 0 -61.5 -2
t-72.5 -2q-17 0 -17 9q0 10 17 10q53 0 75.5 25.5t22.5 99.5l1 288q0 63 -32 63q-15 0 -35.5 -2.5t-24.5 -2.5q-14 0 -14 10q0 8 18 11q37 5 130 28t123 24q23 0 23 -27q0 -23 -4.5 -118.5t-4.5 -144.5v-129zM95 708q0 34 24.5 59t59.5 25t59.5 -25t24.5 -59t-24.5 -59
t-59.5 -25t-59.5 25t-24.5 59zM266 559h1h1h-2z" />
    <glyph glyph-name="Idotaccent" unicode="&#x130;" horiz-adv-x="432" 
d="M109 660q1 74 -23 99.5t-83 25.5q-17 0 -17 10q1 10 18 10q25 0 92 -2.5t85 -2.5h71q14 0 80.5 2t97.5 2q17 0 17 -9q0 -10 -17 -10q-59 0 -83 -25.5t-24 -99.5v-520q0 -74 24 -99.5t82 -25.5q17 0 17 -10t-17 -10q-26 0 -93 2.5t-85 2.5h-71q-14 0 -80 -2t-97 -2
q-17 0 -17 9q0 10 17 10q58 0 82 25.5t24 99.5v520zM132 949q0 35 25 59.5t59 24.5t59 -24.5t25 -59.5t-25 -59.5t-59 -24.5t-59 24.5t-25 59.5z" />
    <glyph glyph-name="dotlessi" unicode="&#x131;" horiz-adv-x="371" 
d="M281 140q0 -74 22.5 -99.5t73.5 -25.5q17 0 17 -9q0 -10 -17 -10q-25 0 -71 2t-61 2h-108q-15 0 -61.5 -2t-72.5 -2q-17 0 -17 9q0 10 17 10q53 0 75.5 25.5t22.5 99.5l1 288q0 63 -32 63q-15 0 -35.5 -2.5t-24.5 -2.5q-14 0 -14 10q0 8 18 11q37 5 130 28t123 24
q23 0 23 -27q0 -23 -4.5 -118.5t-4.5 -144.5v-129zM266 559h1h1h-2z" />
    <glyph glyph-name="uni0136" unicode="&#x136;" horiz-adv-x="914" 
d="M771 122q36 -63 69 -85t72 -22q12 0 12 -9q0 -10 -13 -10q-18 0 -51.5 2t-44.5 2h-147q-14 0 -80 -2t-97 -2q-17 0 -17 9q0 10 17 10q39 0 54 8t12 31t-29 68l-131 233q-26 48 -42 48q-32 0 -32 -61v-202q0 -74 19.5 -99.5t67.5 -25.5q14 0 14 -10t-14 -10q-21 0 -76 2.5
t-70 2.5h-84q-14 0 -80 -2t-97 -2q-17 0 -17 9q0 10 17 10q58 0 82 25.5t24 99.5v520q1 74 -23 99.5t-83 25.5q-17 0 -17 10q1 10 18 10q25 0 92 -2.5t85 -2.5h71q14 0 80.5 2t97.5 2q17 0 17 -9q0 -10 -17 -10q-59 0 -83 -25.5t-24 -99.5v-184q0 -60 31 -60q4 0 8 2t8.5 6
t8 7.5t9.5 10.5t10 11l213 214q33 33 33 55q0 23 -42 43t-104 20q-17 0 -17 9q0 10 17 10q47 0 111 -2t90 -2h21q19 0 78.5 2t91.5 2q22 0 22 -9q0 -10 -22 -10q-71 0 -121.5 -17t-101.5 -69l-115 -119q-27 -29 0 -77zM387 -119q0 30 21 47.5t52 17.5q35 0 55.5 -22
t20.5 -58q0 -47 -32.5 -84t-77.5 -47q-26 -4 -26 12q0 14 20 22q28 10 44.5 17.5t31.5 20.5t15 27q0 15 -20 15q-10 0 -27.5 -12t-32.5 -12q-18 0 -31 15t-13 41z" />
    <glyph glyph-name="uni0137" unicode="&#x137;" horiz-adv-x="745" 
d="M145 0q-15 0 -61.5 -2t-72.5 -2q-17 0 -17 9q0 10 17 10q53 0 75.5 25.5t22.5 99.5l1 559q0 64 -32 64q-15 0 -35.5 -2.5t-24.5 -2.5q-14 -1 -14 9q0 9 18 12q37 5 130.5 28t123.5 23q23 0 23 -20q0 -44 -5 -132t-5 -132v-200q0 -33 8 -40.5t25 7.5l137 117
q28 24 31.5 44.5t-24.5 34.5t-86 14q-13 0 -13 10q0 9 14 9q11 0 76.5 -1.5t127.5 -2.5q14 0 55.5 2t63.5 2q16 0 16 -9q0 -11 -16 -10q-51 0 -95.5 -14.5t-99.5 -59.5l-38 -31q-25 -19 -9 -46l140 -250q36 -63 68 -85t72 -22q13 0 13 -9q0 -10 -13 -10q-18 0 -52.5 2
t-45.5 2h-137q-33 0 -75 -1t-59 -1q-21 0 -55 1t-60 1h-113zM289 -119q0 30 21 47.5t52 17.5q35 0 55.5 -22t20.5 -58q0 -47 -32.5 -84t-77.5 -47q-26 -4 -26 12q0 14 20 22q28 10 44.5 17.5t31.5 20.5t15 27q0 15 -20 15q-10 0 -27.5 -12t-32.5 -12q-18 0 -31 15t-13 41z
M289 143q0 -67 20 -98.5t64 -31.5q51 0 57 27.5t-27 85.5l-82 152q-11 20 -23 7q-9 -10 -9 -34v-108z" />
    <glyph glyph-name="Lacute" unicode="&#x139;" horiz-adv-x="663" 
d="M252 800q14 0 80.5 2t97.5 2q17 0 17 -9q0 -10 -17 -10q-59 0 -83 -25.5t-24 -99.5v-571q0 -38 14.5 -55.5t54.5 -17.5h30q60 0 107.5 54.5t107.5 194.5q6 18 15 18t6 -17q-37 -170 -37 -242q0 -28 -26 -28q-15 0 -56 2t-77 2h-282q-14 0 -80 -2t-97 -2q-17 0 -17 9
q0 10 17 10q58 0 82 25.5t24 99.5v520q1 74 -23 99.5t-83 25.5q-17 0 -17 10q1 10 18 10q25 0 92 -2.5t85 -2.5h71zM190 882l45 130q8 26 28.5 43.5t49.5 17.5q45 0 54.5 -27.5t-22.5 -55.5l-121 -114q-17 -15 -26 -15q-15 0 -8 21z" />
    <glyph glyph-name="lacute" unicode="&#x13a;" horiz-adv-x="368" 
d="M275 140q0 -73 20.5 -99t67.5 -26q15 0 15 -9q0 -10 -15 -10q-22 0 -64.5 2t-56.5 2h-114q-14 0 -56 -2t-66 -2q-16 0 -16 9q0 10 16 10q48 0 68.5 25.5t21.5 99.5v559q0 64 -32 64q-15 0 -35.5 -2.5t-24.5 -2.5q-14 -1 -14 9q0 9 18 12q37 5 130 28t123 23q24 0 24 -20
q0 -33 -5 -131t-5 -150v-389zM140 876l45 130q8 26 28.5 43.5t49.5 17.5q45 0 54.5 -27.5t-22.5 -55.5l-121 -114q-17 -15 -26 -15q-15 0 -8 21zM261 830h1h-1z" />
    <glyph glyph-name="uni013B" unicode="&#x13b;" horiz-adv-x="663" 
d="M252 800q14 0 80.5 2t97.5 2q17 0 17 -9q0 -10 -17 -10q-59 0 -83 -25.5t-24 -99.5v-571q0 -38 14.5 -55.5t54.5 -17.5h30q60 0 107.5 54.5t107.5 194.5q6 18 15 18t6 -17q-37 -170 -37 -242q0 -28 -26 -28q-15 0 -56 2t-77 2h-282q-14 0 -80 -2t-97 -2q-17 0 -17 9
q0 10 17 10q58 0 82 25.5t24 99.5v520q1 74 -23 99.5t-83 25.5q-17 0 -17 10q1 10 18 10q25 0 92 -2.5t85 -2.5h71zM262 -119q0 30 21 47.5t52 17.5q35 0 55.5 -22t20.5 -58q0 -47 -32.5 -84t-77.5 -47q-26 -4 -26 12q0 14 20 22q28 10 44.5 17.5t31.5 20.5t15 27
q0 15 -20 15q-10 0 -27.5 -12t-32.5 -12q-18 0 -31 15t-13 41z" />
    <glyph glyph-name="uni013C" unicode="&#x13c;" horiz-adv-x="368" 
d="M275 140q0 -73 20.5 -99t67.5 -26q15 0 15 -9q0 -10 -15 -10q-22 0 -64.5 2t-56.5 2h-114q-14 0 -56 -2t-66 -2q-16 0 -16 9q0 10 16 10q48 0 68.5 25.5t21.5 99.5v559q0 64 -32 64q-15 0 -35.5 -2.5t-24.5 -2.5q-14 -1 -14 9q0 9 18 12q37 5 130 28t123 23q24 0 24 -20
q0 -33 -5 -131t-5 -150v-389zM102 -119q0 30 21 47.5t52 17.5q35 0 55.5 -22t20.5 -58q0 -47 -32.5 -84t-77.5 -47q-26 -4 -26 12q0 14 20 22q28 10 44.5 17.5t31.5 20.5t15 27q0 15 -20 15q-10 0 -27.5 -12t-32.5 -12q-18 0 -31 15t-13 41zM261 830h1h-1z" />
    <glyph glyph-name="Lcaron" unicode="&#x13d;" horiz-adv-x="663" 
d="M252 800q14 0 80.5 2t97.5 2q17 0 17 -9q0 -10 -17 -10q-59 0 -83 -25.5t-24 -99.5v-571q0 -38 14.5 -55.5t54.5 -17.5h30q60 0 107.5 54.5t107.5 194.5q6 18 15 18t6 -17q-37 -170 -37 -242q0 -28 -26 -28q-15 0 -56 2t-77 2h-282q-14 0 -80 -2t-97 -2q-17 0 -17 9
q0 10 17 10q58 0 82 25.5t24 99.5v520q1 74 -23 99.5t-83 25.5q-17 0 -17 10q1 10 18 10q25 0 92 -2.5t85 -2.5h71zM513 624v149q0 22 16.5 34.5t45.5 12.5q31 0 45 -13.5t2 -34.5l-89 -149q-11 -18 -15 -18q-5 0 -5 19z" />
    <glyph glyph-name="lcaron" unicode="&#x13e;" horiz-adv-x="368" 
d="M275 140q0 -73 20.5 -99t67.5 -26q15 0 15 -9q0 -10 -15 -10q-22 0 -64.5 2t-56.5 2h-114q-14 0 -56 -2t-66 -2q-16 0 -16 9q0 10 16 10q48 0 68.5 25.5t21.5 99.5v559q0 64 -32 64q-15 0 -35.5 -2.5t-24.5 -2.5q-14 -1 -14 9q0 9 18 12q37 5 130 28t123 23q24 0 24 -20
q0 -33 -5 -131t-5 -150v-389zM261 830h1h-1zM325 623v149q0 22 16.5 34.5t45.5 12.5q31 0 45 -13.5t2 -34.5l-89 -149q-11 -18 -15 -18q-5 0 -5 19z" />
    <glyph glyph-name="Lslash" unicode="&#x141;" horiz-adv-x="663" 
d="M252 800q14 0 80.5 2t97.5 2q17 0 17 -9q0 -10 -17 -10q-59 0 -83 -25.5t-24 -99.5v-207q0 -24 19 -17l188 65q17 7 19 -2q3 -9 -13 -16l-188 -65q-25 -10 -25 -41v-288q0 -38 14.5 -55.5t54.5 -17.5h30q60 0 107.5 54.5t107.5 194.5q6 18 15 18t6 -17q-37 -170 -37 -242
q0 -28 -26 -28q-15 0 -56 2t-77 2h-282q-14 0 -80 -2t-97 -2q-17 0 -17 9q0 10 17 10q58 0 82 25.5t24 99.5v172q0 25 -21 16l-59 -20q-9 -3 -12 4q-4 11 7 14l67 23q18 7 18 29v282q1 74 -23 99.5t-83 25.5q-17 0 -17 10q1 10 18 10q25 0 92 -2.5t85 -2.5h71z" />
    <glyph glyph-name="lslash" unicode="&#x142;" horiz-adv-x="368" 
d="M275 140q0 -73 20.5 -99t67.5 -26q15 0 15 -9q0 -10 -15 -10q-22 0 -64.5 2t-56.5 2h-114q-14 0 -56 -2t-66 -2q-16 0 -16 9q0 10 16 10q48 0 68.5 25.5t21.5 99.5v226q0 14 -4 17t-15 -2l-64 -30q-8 -3 -13 5q-3 8 6 13l64 30q17 8 21.5 16t4.5 25v259q0 64 -32 64
q-15 0 -35.5 -2.5t-24.5 -2.5q-14 -1 -14 9q0 9 18 12q37 5 130 28t123 23q24 0 24 -20q0 -32 -5 -132t-5 -160q0 -14 4.5 -17t14.5 2l64 30q8 3 13 -6q3 -6 -6 -12l-64 -30q-17 -8 -21.5 -16t-4.5 -25v-304zM261 830h1h-1z" />
    <glyph glyph-name="Nacute" unicode="&#x143;" horiz-adv-x="774" 
d="M597 -16q-18 0 -27 15l-365 567q-27 41 -27 -8v-418q-1 -74 32.5 -99.5t114.5 -26.5q23 0 23 -10t-24 -9q-26 0 -76.5 2.5t-78.5 2.5q-16 0 -60.5 -2t-65.5 -2q-19 0 -19 9q0 10 18 10q65 0 92 25.5t27 99.5v445q0 49 -27 90l-24 38q-21 32 -51.5 52t-62.5 20
q-19 0 -19 7q0 12 20 12q37 0 111 -2t142 -2q56 0 87 -45l292 -454q27 -41 27 8v351q1 74 -32.5 99.5t-114.5 26.5q-23 0 -23 10t24 9q26 0 76.5 -2.5t79.5 -2.5q13 0 53.5 2t60.5 2q17 0 17 -9q0 -10 -17 -10q-59 0 -83 -25.5t-24 -99.5v-658q0 -18 -17 -18h-59zM378 886
l45 130q8 26 28.5 43.5t49.5 17.5q45 0 54.5 -27.5t-22.5 -55.5l-121 -114q-17 -15 -26 -15q-15 0 -8 21z" />
    <glyph glyph-name="nacute" unicode="&#x144;" horiz-adv-x="700" 
d="M137 0q-15 0 -61.5 -2t-72.5 -2q-17 0 -17 9q0 10 17 10q53 0 75.5 25.5t22.5 99.5l1 288q0 63 -32 63q-15 0 -35.5 -2.5t-24.5 -2.5q-14 0 -14 9t18 12q37 5 130.5 28t123.5 23h2q20 0 20 -20q0 -7 -5 -62q-2 -23 5 -26t22 15q85 94 162 94q58 0 93 -40.5t35 -126.5
v-252q0 -73 23 -99t74 -26q18 0 18 -9q0 -10 -18 -10q-25 0 -72 2t-62 2h-116q-24 0 -54 -1t-42 -1h-1q-18 0 -46.5 1t-50.5 1h-118zM281 143q0 -67 16.5 -98.5t54.5 -31.5h1q37 0 53.5 31.5t16.5 98.5v253q0 68 -47 68q-36 0 -65.5 -19t-29.5 -65v-237zM342 642l45 130
q8 26 28.5 43.5t49.5 17.5q45 0 54.5 -27.5t-22.5 -55.5l-121 -114q-17 -15 -26 -15q-15 0 -8 21z" />
    <glyph glyph-name="uni0145" unicode="&#x145;" horiz-adv-x="774" 
d="M597 -16q-18 0 -27 15l-365 567q-27 41 -27 -8v-418q-1 -74 32.5 -99.5t114.5 -26.5q23 0 23 -10t-24 -9q-26 0 -76.5 2.5t-78.5 2.5q-16 0 -60.5 -2t-65.5 -2q-19 0 -19 9q0 10 18 10q65 0 92 25.5t27 99.5v445q0 49 -27 90l-24 38q-21 32 -51.5 52t-62.5 20
q-19 0 -19 7q0 12 20 12q37 0 111 -2t142 -2q56 0 87 -45l292 -454q27 -41 27 8v351q1 74 -32.5 99.5t-114.5 26.5q-23 0 -23 10t24 9q26 0 76.5 -2.5t79.5 -2.5q13 0 53.5 2t60.5 2q17 0 17 -9q0 -10 -17 -10q-59 0 -83 -25.5t-24 -99.5v-658q0 -18 -17 -18h-59zM344 -119
q0 30 21 47.5t52 17.5q35 0 55.5 -22t20.5 -58q0 -47 -32.5 -84t-77.5 -47q-26 -4 -26 12q0 14 20 22q28 10 44.5 17.5t31.5 20.5t15 27q0 15 -20 15q-10 0 -27.5 -12t-32.5 -12q-18 0 -31 15t-13 41z" />
    <glyph glyph-name="uni0146" unicode="&#x146;" horiz-adv-x="700" 
d="M137 0q-15 0 -61.5 -2t-72.5 -2q-17 0 -17 9q0 10 17 10q53 0 75.5 25.5t22.5 99.5l1 288q0 63 -32 63q-15 0 -35.5 -2.5t-24.5 -2.5q-14 0 -14 9t18 12q37 5 130.5 28t123.5 23h2q20 0 20 -20q0 -7 -5 -62q-2 -23 5 -26t22 15q85 94 162 94q58 0 93 -40.5t35 -126.5
v-252q0 -73 23 -99t74 -26q18 0 18 -9q0 -10 -18 -10q-25 0 -72 2t-62 2h-116q-24 0 -54 -1t-42 -1h-1q-18 0 -46.5 1t-50.5 1h-118zM270 -119q0 30 21 47.5t52 17.5q35 0 55.5 -22t20.5 -58q0 -47 -32.5 -84t-77.5 -47q-26 -4 -26 12q0 14 20 22q28 10 44.5 17.5t31.5 20.5
t15 27q0 15 -20 15q-10 0 -27.5 -12t-32.5 -12q-18 0 -31 15t-13 41zM281 143q0 -67 16.5 -98.5t54.5 -31.5h1q37 0 53.5 31.5t16.5 98.5v253q0 68 -47 68q-36 0 -65.5 -19t-29.5 -65v-237z" />
    <glyph glyph-name="Ncaron" unicode="&#x147;" horiz-adv-x="774" 
d="M597 -16q-18 0 -27 15l-365 567q-27 41 -27 -8v-418q-1 -74 32.5 -99.5t114.5 -26.5q23 0 23 -10t-24 -9q-26 0 -76.5 2.5t-78.5 2.5q-16 0 -60.5 -2t-65.5 -2q-19 0 -19 9q0 10 18 10q65 0 92 25.5t27 99.5v445q0 49 -27 90l-24 38q-21 32 -51.5 52t-62.5 20
q-19 0 -19 7q0 12 20 12q37 0 111 -2t142 -2q56 0 87 -45l292 -454q27 -41 27 8v351q1 74 -32.5 99.5t-114.5 26.5q-23 0 -23 10t24 9q26 0 76.5 -2.5t79.5 -2.5q13 0 53.5 2t60.5 2q17 0 17 -9q0 -10 -17 -10q-59 0 -83 -25.5t-24 -99.5v-658q0 -18 -17 -18h-59zM256 1052
q-6 11 2 11q7 0 27 -15l75 -59q39 -26 51 -26q16 0 51 26l75 59q22 15 28 15q8 0 2 -11l-69 -120q-36 -65 -87 -65q-47 0 -86 65z" />
    <glyph glyph-name="ncaron" unicode="&#x148;" horiz-adv-x="700" 
d="M137 0q-15 0 -61.5 -2t-72.5 -2q-17 0 -17 9q0 10 17 10q53 0 75.5 25.5t22.5 99.5l1 288q0 63 -32 63q-15 0 -35.5 -2.5t-24.5 -2.5q-14 0 -14 9t18 12q37 5 130.5 28t123.5 23h2q20 0 20 -20q0 -7 -5 -62q-2 -23 5 -26t22 15q85 94 162 94q58 0 93 -40.5t35 -126.5
v-252q0 -73 23 -99t74 -26q18 0 18 -9q0 -10 -18 -10q-25 0 -72 2t-62 2h-116q-24 0 -54 -1t-42 -1h-1q-18 0 -46.5 1t-50.5 1h-118zM219 808q-6 11 2 11q7 0 27 -15l75 -59q39 -26 51 -26q16 0 51 26l75 59q22 15 28 15q8 0 2 -11l-69 -120q-36 -65 -87 -65q-47 0 -86 65z
M281 143q0 -67 16.5 -98.5t54.5 -31.5h1q37 0 53.5 31.5t16.5 98.5v253q0 68 -47 68q-36 0 -65.5 -19t-29.5 -65v-237z" />
    <glyph glyph-name="Eng" unicode="&#x14a;" horiz-adv-x="774" 
d="M479 -236q-33 0 -50.5 21.5t-17.5 53.5q0 34 19 61t48 28q38 0 85 -32t56 -31q25 5 25 74q0 26 -15 46.5t-36 34t-52 42.5t-54 64l-283 440q-26 40 -26 -8v-418q-1 -74 32 -99.5t114 -26.5q14 0 19 -2t4 -8q0 -10 -23 -9q-26 0 -76.5 2.5t-79.5 2.5q-15 0 -58.5 -2
t-65.5 -2q-18 0 -18 9q0 10 18 10q64 0 90 25.5t26 99.5v445q0 49 -27 90l-24 38q-21 32 -51.5 52t-61.5 20q-20 0 -20 7q0 12 20 12q38 0 112 -2t141 -2q56 0 87 -45l292 -454q27 -41 27 8v351q1 74 -32.5 99.5t-114.5 26.5q-23 0 -23 10t24 9q26 0 76.5 -2.5t79.5 -2.5
q15 0 55 2t59 2q17 0 17 -9q0 -10 -17 -10q-58 0 -82 -25.5t-24 -99.5v-686q0 -51 -15.5 -91t-37.5 -61.5t-50.5 -35.5t-50 -18t-40.5 -4z" />
    <glyph glyph-name="eng" unicode="&#x14b;" horiz-adv-x="651" 
d="M421 396q0 68 -46 68q-36 0 -65 -19t-29 -65v-240q0 -74 17.5 -99.5t57.5 -25.5q13 0 13 -9q0 -10 -13 -10q-19 0 -55 2t-48 2h-116q-15 0 -61.5 -2t-72.5 -2q-17 0 -17 9q0 10 17 10q53 0 75.5 25.5t22.5 99.5l1 288q0 63 -32 63q-15 0 -35.5 -2.5t-24.5 -2.5
q-14 0 -14 9t18 12q37 5 130.5 28t123.5 23h2q20 0 20 -20q0 -8 -5 -61q-2 -23 5.5 -26t21.5 14q87 94 161 94q58 0 93 -40.5t35 -126.5v-204q0 -98 -31 -176.5t-74 -123t-94 -74t-86.5 -39.5t-55.5 -10q-33 0 -50.5 21t-17.5 53q0 35 18.5 62t48.5 27q29 0 61.5 -20
t56 -39.5t32.5 -18.5q12 3 12 35v511z" />
    <glyph glyph-name="Omacron" unicode="&#x14c;" horiz-adv-x="767" 
d="M387 -16q-164 0 -261.5 116.5t-97.5 298.5q0 180 99.5 296.5t252.5 116.5q164 0 262 -116.5t98 -298.5q0 -180 -100 -296.5t-253 -116.5zM196 932q0 6 6 7.5t25 1.5h307h15t8.5 -1t6 -3t1.5 -5q0 -11 -31 -11h-307q-31 0 -31 11zM237 593q0 -150 23.5 -283.5t68.5 -219.5
t102 -86q50 1 74.5 48t24.5 151q0 150 -23 283.5t-68 219t-102 85.5q-48 0 -74 -52t-26 -146z" />
    <glyph glyph-name="omacron" unicode="&#x14d;" horiz-adv-x="586" 
d="M293 -16q-124 0 -197 80.5t-73 203.5q0 131 72.5 210.5t197.5 79.5q123 0 196.5 -80.5t73.5 -202.5q0 -131 -72.5 -211t-197.5 -80zM98 691q0 6 6 7.5t25 1.5h307h15t8.5 -1t6 -3t1.5 -5q0 -11 -31 -11h-307q-31 0 -31 11zM201 407q0 -57 9 -123.5t25.5 -128t44 -102
t59.5 -40.5q46 0 46 118q0 56 -10.5 123.5t-27.5 128.5t-44 102t-56 41q-46 0 -46 -119z" />
    <glyph glyph-name="Ohungarumlaut" unicode="&#x150;" horiz-adv-x="767" 
d="M387 -16q-164 0 -261.5 116.5t-97.5 298.5q0 180 99.5 296.5t252.5 116.5q164 0 262 -116.5t98 -298.5q0 -180 -100 -296.5t-253 -116.5zM237 593q0 -150 23.5 -283.5t68.5 -219.5t102 -86q50 1 74.5 48t24.5 151q0 150 -23 283.5t-68 219t-102 85.5q-48 0 -74 -52
t-26 -146zM297 882l23 130q3 22 21.5 33.5t39.5 11.5q39 0 44.5 -15t-17.5 -47l-78 -119q-11 -15 -25 -15q-12 0 -8 21zM405 882l40 130q15 45 62 45q79 0 27 -62l-96 -119q-12 -15 -24 -15q-14 0 -9 21z" />
    <glyph glyph-name="ohungarumlaut" unicode="&#x151;" horiz-adv-x="586" 
d="M293 -16q-124 0 -197 80.5t-73 203.5q0 131 72.5 210.5t197.5 79.5q123 0 196.5 -80.5t73.5 -202.5q0 -131 -72.5 -211t-197.5 -80zM198 641l23 130q3 22 21.5 33.5t39.5 11.5q39 0 44.5 -15t-17.5 -47l-78 -119q-11 -15 -25 -15q-12 0 -8 21zM201 407q0 -57 9 -123.5
t25.5 -128t44 -102t59.5 -40.5q46 0 46 118q0 56 -10.5 123.5t-27.5 128.5t-44 102t-56 41q-46 0 -46 -119zM306 641l40 130q15 45 62 45q79 0 27 -62l-96 -119q-12 -15 -24 -15q-14 0 -9 21z" />
    <glyph glyph-name="OE" unicode="&#x152;" horiz-adv-x="1064" 
d="M414 -11q-178 0 -282 115t-104 293q0 179 103.5 296.5t282.5 117.5q47 0 115.5 -5.5t106.5 -5.5h265q23 0 47 2t33 2q26 0 26 -28q0 -10 -2.5 -34t-1.5 -41q0 -66 9 -137q3 -19 -7 -19q-8 0 -11 16q-9 42 -15 67t-16 54t-22 45t-29 30.5t-40 20.5t-54 6h-34
q-68 0 -68 -74v-239q0 -22 9.5 -35t26.5 -13h31q68 -1 91.5 23t23.5 83q0 18 9 18t9 -18l-3 -116q2 -76 2 -115q0 -17 -8 -17q-10 0 -10 17q0 59 -23 83.5t-91 24.5h-18q-49 0 -49 -36v-281q0 -37 14.5 -55t54.5 -18h32q88 0 138.5 53.5t78.5 177.5q4 18 13 18q11 0 8 -16
l-28 -125q-11 -51 -11 -100q0 -28 -26 -28q-16 0 -56 2t-76 2h-216q-41 0 -111.5 -5.5t-116.5 -5.5zM250 529q0 -259 39.5 -389t123.5 -130q39 0 63.5 30.5t24.5 83.5v436q0 229 -120 229q-36 0 -62.5 -21t-41 -59t-21 -82t-6.5 -98z" />
    <glyph glyph-name="oe" unicode="&#x153;" horiz-adv-x="886" 
d="M293 -16q-127 0 -198.5 75.5t-71.5 208.5q0 131 72.5 210.5t197.5 79.5q94 0 167 -71q32 -37 62 1q65 70 132 70q89 0 146.5 -47t57.5 -111q0 -42 -16.5 -55t-75.5 -13h-136q-21 0 -32.5 -10.5t-10.5 -29.5l1 -29q0 -74 33 -117t94 -43q39 0 77 29t58 94q5 14 11 14
q8 0 5 -15q-27 -127 -82 -184t-147 -57q-74 0 -131 67q-29 40 -59 2q-69 -69 -154 -69zM210 383q0 -127 26.5 -249t75.5 -122q23 0 38.5 25t20.5 56t5 65q0 127 -26.5 249.5t-75.5 122.5q-34 0 -49 -45t-15 -102zM588 388q-2 -44 39 -44h17q25 8 34.5 20t9.5 42q0 65 -9 94
t-37 29q-27 0 -38.5 -29t-15.5 -112z" />
    <glyph glyph-name="Racute" unicode="&#x154;" horiz-adv-x="795" 
d="M180 0q-14 0 -80 -2t-97 -2q-17 0 -17 9q0 10 17 10q58 0 82 25.5t24 99.5v520q1 74 -23 99.5t-83 25.5q-17 0 -17 10q1 10 18 10q25 0 92 -2.5t85 -2.5h212q162 0 236 -54t74 -157q0 -54 -19.5 -93.5t-53.5 -61t-71.5 -32t-80.5 -11.5q-16 0 -16 -9q0 -6 14 -8
q67 -18 114.5 -58.5t90.5 -140.5q43 -97 66.5 -128.5t59.5 -31.5q17 0 17 -9q0 -10 -17 -10q-73 1 -114 2.5t-80 8t-57.5 14t-37.5 26t-29.5 39t-26.5 57.5l-88 203q-20 47 -34 47q-17 0 -17 -31v-222q-1 -74 23 -99.5t82 -25.5q17 0 17 -10t-17 -10q-26 0 -93 2.5t-85 2.5
h-70zM323 439q0 -21 9 -27.5t28 -6.5q52 0 90 50.5t38 147.5q0 84 -28 131t-78 47q-26 0 -42.5 -13t-16.5 -51v-278zM330 882l45 130q8 26 28.5 43.5t49.5 17.5q45 0 54.5 -27.5t-22.5 -55.5l-121 -114q-17 -15 -26 -15q-15 0 -8 21z" />
    <glyph glyph-name="racute" unicode="&#x155;" horiz-adv-x="529" 
d="M137 0q-15 0 -61 -2t-71 -2q-18 0 -18 9q0 10 17 10q52 0 74.5 25.5t22.5 99.5l1 288q0 63 -32 63q-15 0 -35.5 -2.5t-24.5 -2.5q-14 0 -14 9t18 12q37 5 130.5 28t123.5 23h1q21 0 21 -20q0 -13 -3.5 -44t-4.5 -48q0 -12 1 -18t3.5 -6.5t6 4.5t8.5 15q27 51 63 84t75 33
q36 0 57.5 -22.5t21.5 -65.5q0 -49 -24 -77t-59 -28q-24 0 -39 11.5t-20 25.5t-16.5 25.5t-28.5 11.5q-20 0 -35 -30.5t-15 -67.5v-201q0 -74 33.5 -99.5t110.5 -25.5q26 0 26 -9q0 -10 -26 -10q-37 0 -106 2t-92 2h-90zM261 641l45 130q8 26 28.5 43.5t49.5 17.5
q45 0 54.5 -27t-22.5 -56l-121 -114q-17 -15 -26 -15q-15 0 -8 21z" />
    <glyph glyph-name="uni0156" unicode="&#x156;" horiz-adv-x="795" 
d="M180 0q-14 0 -80 -2t-97 -2q-17 0 -17 9q0 10 17 10q58 0 82 25.5t24 99.5v520q1 74 -23 99.5t-83 25.5q-17 0 -17 10q1 10 18 10q25 0 92 -2.5t85 -2.5h212q162 0 236 -54t74 -157q0 -54 -19.5 -93.5t-53.5 -61t-71.5 -32t-80.5 -11.5q-16 0 -16 -9q0 -6 14 -8
q67 -18 114.5 -58.5t90.5 -140.5q43 -97 66.5 -128.5t59.5 -31.5q17 0 17 -9q0 -10 -17 -10q-73 1 -114 2.5t-80 8t-57.5 14t-37.5 26t-29.5 39t-26.5 57.5l-88 203q-20 47 -34 47q-17 0 -17 -31v-222q-1 -74 23 -99.5t82 -25.5q17 0 17 -10t-17 -10q-26 0 -93 2.5t-85 2.5
h-70zM323 439q0 -21 9 -27.5t28 -6.5q52 0 90 50.5t38 147.5q0 84 -28 131t-78 47q-26 0 -42.5 -13t-16.5 -51v-278zM396 -119q0 30 21 47.5t52 17.5q35 0 55.5 -22t20.5 -58q0 -47 -32.5 -84t-77.5 -47q-26 -4 -26 12q0 14 20 22q28 10 44.5 17.5t31.5 20.5t15 27
q0 15 -20 15q-10 0 -27.5 -12t-32.5 -12q-18 0 -31 15t-13 41z" />
    <glyph glyph-name="uni0157" unicode="&#x157;" horiz-adv-x="529" 
d="M137 0q-15 0 -61 -2t-71 -2q-18 0 -18 9q0 10 17 10q52 0 74.5 25.5t22.5 99.5l1 288q0 63 -32 63q-15 0 -35.5 -2.5t-24.5 -2.5q-14 0 -14 9t18 12q37 5 130.5 28t123.5 23h1q21 0 21 -20q0 -13 -3.5 -44t-4.5 -48q0 -12 1 -18t3.5 -6.5t6 4.5t8.5 15q27 51 63 84t75 33
q36 0 57.5 -22.5t21.5 -65.5q0 -49 -24 -77t-59 -28q-24 0 -39 11.5t-20 25.5t-16.5 25.5t-28.5 11.5q-20 0 -35 -30.5t-15 -67.5v-201q0 -74 33.5 -99.5t110.5 -25.5q26 0 26 -9q0 -10 -26 -10q-37 0 -106 2t-92 2h-90zM115 -119q0 30 21 47.5t52 17.5q35 0 55.5 -22
t20.5 -58q0 -47 -32.5 -84t-77.5 -47q-26 -4 -26 12q0 14 20 22q28 10 44.5 17.5t31.5 20.5t15 27q0 15 -20 15q-10 0 -27.5 -12t-32.5 -12q-18 0 -31 15t-13 41z" />
    <glyph glyph-name="Rcaron" unicode="&#x158;" horiz-adv-x="795" 
d="M180 0q-14 0 -80 -2t-97 -2q-17 0 -17 9q0 10 17 10q58 0 82 25.5t24 99.5v520q1 74 -23 99.5t-83 25.5q-17 0 -17 10q1 10 18 10q25 0 92 -2.5t85 -2.5h212q162 0 236 -54t74 -157q0 -54 -19.5 -93.5t-53.5 -61t-71.5 -32t-80.5 -11.5q-16 0 -16 -9q0 -6 14 -8
q67 -18 114.5 -58.5t90.5 -140.5q43 -97 66.5 -128.5t59.5 -31.5q17 0 17 -9q0 -10 -17 -10q-73 1 -114 2.5t-80 8t-57.5 14t-37.5 26t-29.5 39t-26.5 57.5l-88 203q-20 47 -34 47q-17 0 -17 -31v-222q-1 -74 23 -99.5t82 -25.5q17 0 17 -10t-17 -10q-26 0 -93 2.5t-85 2.5
h-70zM208 1048q-6 11 2 11q7 0 27 -15l75 -59q39 -26 51 -26q16 0 51 26l75 59q22 15 28 15q8 0 2 -11l-69 -120q-36 -65 -87 -65q-47 0 -86 65zM323 439q0 -21 9 -27.5t28 -6.5q52 0 90 50.5t38 147.5q0 84 -28 131t-78 47q-26 0 -42.5 -13t-16.5 -51v-278z" />
    <glyph glyph-name="rcaron" unicode="&#x159;" horiz-adv-x="529" 
d="M137 0q-15 0 -61 -2t-71 -2q-18 0 -18 9q0 10 17 10q52 0 74.5 25.5t22.5 99.5l1 288q0 63 -32 63q-15 0 -35.5 -2.5t-24.5 -2.5q-14 0 -14 9t18 12q37 5 130.5 28t123.5 23h1q21 0 21 -20q0 -13 -3.5 -44t-4.5 -48q0 -12 1 -18t3.5 -6.5t6 4.5t8.5 15q27 51 63 84t75 33
q36 0 57.5 -22.5t21.5 -65.5q0 -49 -24 -77t-59 -28q-24 0 -39 11.5t-20 25.5t-16.5 25.5t-28.5 11.5q-20 0 -35 -30.5t-15 -67.5v-201q0 -74 33.5 -99.5t110.5 -25.5q26 0 26 -9q0 -10 -26 -10q-37 0 -106 2t-92 2h-90zM139 807q-6 11 2 11q7 0 27 -15l75 -59
q39 -26 51 -26q16 0 51 26l75 59q22 15 28 15q8 0 2 -11l-69 -120q-36 -65 -87 -65q-47 0 -86 65z" />
    <glyph glyph-name="Sacute" unicode="&#x15a;" horiz-adv-x="586" 
d="M300 -16q-34 0 -84.5 4t-59.5 4q-16 0 -41 -4t-32 -4q-15 0 -15 19q0 6 -12 298q0 12 7 12q9 0 12 -14q38 -167 91.5 -231t151.5 -64q49 0 74 28.5t25 63.5q0 62 -45 114.5t-121 110.5q-55 41 -83.5 65t-60 58.5t-44.5 70t-13 78.5q0 105 68 164t167 59q37 0 82 -4t51 -4
q16 0 38 3.5t28 3.5q16 0 16 -22q0 -138 12 -230q3 -21 -5 -21t-14 17q-38 128 -82 182.5t-134 54.5q-48 0 -73 -27.5t-25 -61.5q0 -45 43 -89t138 -114q100 -74 143 -133t43 -143q0 -115 -69.5 -179.5t-176.5 -64.5zM259 882l45 130q8 26 28.5 43.5t49.5 17.5
q45 0 54.5 -27.5t-22.5 -55.5l-121 -114q-17 -15 -26 -15q-15 0 -8 21z" />
    <glyph glyph-name="sacute" unicode="&#x15b;" horiz-adv-x="436" 
d="M231 -16q-28 0 -71 6.5t-55 6.5q-11 0 -28.5 -4t-24.5 -4q-15 0 -15 15q0 32 -18 212q-1 12 7 12q5 0 8 -10q60 -206 211 -206q70 0 70 50q0 47 -156 154q-71 47 -99 86.5t-28 88.5q0 77 50 122t120 45q26 0 63 -5.5t52 -5.5q17 0 33 3.5t22 3.5q15 0 15 -16
q0 -36 11 -184q1 -14 -7 -14q-6 0 -10 12q-21 79 -77.5 128t-111.5 49q-25 0 -38.5 -14t-13.5 -35q0 -23 32.5 -52.5t100.5 -75.5q78 -54 110.5 -95t32.5 -104q0 -84 -53 -126.5t-132 -42.5zM194 643l45 130q8 26 28.5 43.5t49.5 17.5q45 0 54.5 -27t-22.5 -56l-121 -114
q-17 -15 -26 -15q-15 0 -8 21z" />
    <glyph glyph-name="Scedilla" unicode="&#x15e;" horiz-adv-x="586" 
d="M222 -277q-53 0 -53 12q0 8 32 8q62 0 98.5 26.5t36.5 74.5q0 26 -14 43t-36 17q-15 0 -35 -9.5t-25 -9.5q-22 0 -1 28q3 4 7 8l57 63q-31 1 -77 4.5t-56 3.5q-16 0 -41 -4t-32 -4q-15 0 -15 19q0 6 -12 298q0 12 7 12q9 0 12 -14q38 -167 91.5 -231t151.5 -64
q49 0 74 28.5t25 63.5q0 62 -45 114.5t-121 110.5q-55 41 -83.5 65t-60 58.5t-44.5 70t-13 78.5q0 105 68 164t167 59q37 0 82 -4t51 -4q16 0 38 3.5t28 3.5q16 0 16 -22q0 -138 12 -230q3 -21 -5 -21t-14 17q-38 128 -82 182.5t-134 54.5q-48 0 -73 -27.5t-25 -61.5
q0 -45 43 -89t138 -114q100 -74 143 -133t43 -143q0 -111 -65 -175t-167 -69l-12 -19q-10 -15 0 -21.5t28 -6.5q17 0 35.5 -4.5t38 -14.5t32 -31t12.5 -49q0 -36 -24.5 -61t-64 -35.5t-72 -14.5t-65.5 -4z" />
    <glyph glyph-name="scedilla" unicode="&#x15f;" horiz-adv-x="436" 
d="M231 -16h-7l-6 -10q-10 -15 0 -21.5t28 -6.5q17 0 35.5 -4.5t38 -14.5t32 -31t12.5 -49q0 -36 -24.5 -61t-64 -35.5t-72 -14.5t-65.5 -4q-53 0 -53 12q0 8 32 8q62 0 98.5 26.5t36.5 74.5q0 26 -14 43t-36 17q-15 0 -35 -9.5t-25 -9.5q-22 0 -1 28q3 4 7 8l51 56
q-18 1 -50 6t-44 5q-11 0 -28.5 -4t-24.5 -4q-15 0 -15 15q0 32 -18 212q-1 12 7 12q5 0 8 -10q60 -206 211 -206q70 0 70 50q0 47 -156 154q-71 47 -99 86.5t-28 88.5q0 77 50 122t120 45q26 0 63 -5.5t52 -5.5q17 0 33 3.5t22 3.5q15 0 15 -16q0 -36 11 -184q1 -14 -7 -14
q-6 0 -10 12q-21 79 -77.5 128t-111.5 49q-25 0 -38.5 -14t-13.5 -35q0 -23 32.5 -52.5t100.5 -75.5q78 -54 110.5 -95t32.5 -104q0 -84 -53 -126.5t-132 -42.5z" />
    <glyph glyph-name="Scaron" unicode="&#x160;" horiz-adv-x="586" 
d="M300 -16q-34 0 -84.5 4t-59.5 4q-16 0 -41 -4t-32 -4q-15 0 -15 19q0 6 -12 298q0 12 7 12q9 0 12 -14q38 -167 91.5 -231t151.5 -64q49 0 74 28.5t25 63.5q0 62 -45 114.5t-121 110.5q-55 41 -83.5 65t-60 58.5t-44.5 70t-13 78.5q0 105 68 164t167 59q37 0 82 -4t51 -4
q16 0 38 3.5t28 3.5q16 0 16 -22q0 -138 12 -230q3 -21 -5 -21t-14 17q-38 128 -82 182.5t-134 54.5q-48 0 -73 -27.5t-25 -61.5q0 -45 43 -89t138 -114q100 -74 143 -133t43 -143q0 -115 -69.5 -179.5t-176.5 -64.5zM137 1049q-6 11 2 11q7 0 27 -15l75 -59q39 -26 51 -26
q16 0 51 26l75 59q22 15 28 15q8 0 2 -11l-69 -120q-36 -65 -87 -65q-47 0 -86 65z" />
    <glyph glyph-name="scaron" unicode="&#x161;" horiz-adv-x="436" 
d="M231 -16q-28 0 -71 6.5t-55 6.5q-11 0 -28.5 -4t-24.5 -4q-15 0 -15 15q0 32 -18 212q-1 12 7 12q5 0 8 -10q60 -206 211 -206q70 0 70 50q0 47 -156 154q-71 47 -99 86.5t-28 88.5q0 77 50 122t120 45q26 0 63 -5.5t52 -5.5q17 0 33 3.5t22 3.5q15 0 15 -16
q0 -36 11 -184q1 -14 -7 -14q-6 0 -10 12q-21 79 -77.5 128t-111.5 49q-25 0 -38.5 -14t-13.5 -35q0 -23 32.5 -52.5t100.5 -75.5q78 -54 110.5 -95t32.5 -104q0 -84 -53 -126.5t-132 -42.5zM72 809q-6 11 2 11q7 0 27 -15l75 -59q39 -26 51 -26q16 0 51 26l75 59
q22 15 28 15q8 0 2 -11l-69 -120q-36 -65 -87 -65q-47 0 -86 65z" />
    <glyph glyph-name="uni0162" unicode="&#x162;" horiz-adv-x="729" 
d="M331 0q-15 0 -83.5 -2t-100.5 -2q-18 0 -18 9q0 10 18 10q61 0 85.5 25.5t24.5 99.5v606q0 38 -30 38h-17q-33 0 -62.5 -33t-50.5 -78.5t-46 -118.5q-6 -17 -12 -17q-9 0 -7 17q1 34 1 125q0 28 -5 62.5t-5 37.5q0 14 5.5 19.5t19.5 5.5q18 0 70.5 -2t79.5 -2h333
q27 0 79.5 2t71.5 2q25 0 25 -25q0 -3 -5.5 -37.5t-5.5 -62.5q0 -91 1 -125q2 -17 -7 -17q-5 0 -12 17q-39 112 -75 171t-84 59h-17q-30 0 -30 -38v-606q-1 -74 24 -99.5t85 -25.5q18 -1 18 -10q0 -10 -18 -10q-27 0 -96.5 2.5t-87.5 2.5h-12l-4 -7q-10 -15 0 -21.5t28 -6.5
q17 0 35.5 -4.5t38 -14.5t32 -31t12.5 -49q0 -36 -24.5 -61t-64 -35.5t-72 -14.5t-65.5 -4q-53 0 -53 12q0 8 32 8q62 0 98.5 26.5t36.5 74.5q0 26 -14 43t-36 17q-15 0 -35 -9.5t-25 -9.5q-22 0 -1 28q3 4 7 8l46 51h-26z" />
    <glyph glyph-name="uni0163" unicode="&#x163;" horiz-adv-x="448" 
d="M415 249q1 14 9 14q7 0 6 -14q-14 -139 -56 -202t-131 -63q-11 0 -16 1q-3 -11 7 -15.5t25 -4.5q17 0 35.5 -4.5t38 -14.5t32 -31t12.5 -49q0 -36 -24.5 -61t-64 -35.5t-72 -14.5t-65.5 -4q-53 0 -53 12q0 8 32 8q62 0 98.5 26.5t36.5 74.5q0 26 -14 43t-36 17
q-15 0 -35 -9.5t-25 -9.5q-22 0 -1 28q3 4 7 8l36 40q-109 24 -109 200v287q0 37 -37 37h-44q-17 0 -17 9q0 11 17 11q47 0 94.5 15.5t86 51t47.5 83.5q4 15 7 20t10 5q11 0 11 -24v-113q0 -21 14 -30.5t32 -9.5q17 0 47 6t36 6q18 0 18 -14q0 -16 -21 -16h-84
q-37 0 -37 -37v-279q0 -59 17 -89.5t43 -30.5q28 0 51 45t36 127z" />
    <glyph glyph-name="Tcaron" unicode="&#x164;" horiz-adv-x="729" 
d="M331 0q-15 0 -83.5 -2t-100.5 -2q-18 0 -18 9q0 10 18 10q61 0 85.5 25.5t24.5 99.5v606q0 38 -30 38h-17q-33 0 -62.5 -33t-50.5 -78.5t-46 -118.5q-6 -17 -12 -17q-9 0 -7 17q1 34 1 125q0 28 -5 62.5t-5 37.5q0 14 5.5 19.5t19.5 5.5q18 0 70.5 -2t79.5 -2h333
q27 0 79.5 2t71.5 2q25 0 25 -25q0 -3 -5.5 -37.5t-5.5 -62.5q0 -91 1 -125q2 -17 -7 -17q-5 0 -12 17q-39 112 -75 171t-84 59h-17q-30 0 -30 -38v-606q-1 -74 24 -99.5t85 -25.5q18 -1 18 -10q0 -10 -18 -10q-27 0 -96.5 2.5t-87.5 2.5h-66zM202 1048q-6 11 2 11
q7 0 27 -15l75 -59q39 -26 51 -26q16 0 51 26l75 59q22 15 28 15q8 0 2 -11l-69 -120q-36 -65 -87 -65q-47 0 -86 65z" />
    <glyph glyph-name="tcaron" unicode="&#x165;" horiz-adv-x="448" 
d="M415 249q1 14 9 14q7 0 6 -14q-14 -139 -56 -202t-131 -63q-76 0 -115.5 47.5t-39.5 157.5v287q0 37 -37 37h-44q-17 0 -17 9q0 11 17 11q47 0 94.5 15.5t86 51t47.5 83.5q4 15 7 20t10 5q11 0 11 -24v-113q0 -21 14 -30.5t32 -9.5q17 0 47 6t36 6q18 0 18 -14
q0 -16 -21 -16h-84q-37 0 -37 -37v-279q0 -59 17 -89.5t43 -30.5q28 0 51 45t36 127zM315 600v149q0 22 16.5 34.5t45.5 12.5q31 0 45 -13.5t2 -34.5l-89 -149q-11 -18 -15 -18q-5 0 -5 19z" />
    <glyph glyph-name="Tbar" unicode="&#x166;" horiz-adv-x="729" 
d="M331 0q-15 0 -83.5 -2t-100.5 -2q-18 0 -18 9q0 10 18 10q61 0 85.5 25.5t24.5 99.5v223q0 21 -23 21h-105q-10 0 -10 10t10 10h105q23 0 23 21v321q0 38 -30 38h-17q-33 0 -62.5 -33t-50.5 -78.5t-46 -118.5q-6 -17 -12 -17q-9 0 -7 17q1 34 1 125q0 28 -5 62.5t-5 37.5
q0 14 5.5 19.5t19.5 5.5q18 0 70.5 -2t79.5 -2h333q27 0 79.5 2t71.5 2q25 0 25 -25q0 -3 -5.5 -37.5t-5.5 -62.5q0 -91 1 -125q2 -17 -7 -17q-5 0 -12 17q-39 112 -75 171t-84 59h-17q-30 0 -30 -38v-321q0 -21 23 -21h105q10 0 10 -10t-10 -10h-105q-23 0 -23 -21v-223
q-1 -74 24 -99.5t85 -25.5q18 -1 18 -10q0 -10 -18 -10q-27 0 -96.5 2.5t-87.5 2.5h-66z" />
    <glyph glyph-name="tbar" unicode="&#x167;" horiz-adv-x="403" 
d="M415 249q1 14 9 14q7 0 6 -14q-14 -139 -56 -202t-131 -63q-76 0 -115.5 47.5t-39.5 157.5v119q0 14 -22 14h-59q-10 0 -10 9q0 10 10 10h61q20 0 20 13v122q0 37 -37 37h-44q-17 0 -17 9q0 11 17 11q47 0 94.5 15.5t86 51t47.5 83.5q4 15 7 20t10 5q11 0 11 -24v-113
q0 -21 14 -30.5t32 -9.5q17 0 47 6t36 6q18 0 18 -14q0 -16 -21 -16h-84q-37 0 -37 -37v-114q0 -21 24 -21h108q10 0 10 -10q0 -9 -10 -9h-108q-24 0 -24 -21v-104q0 -59 17 -89.5t43 -30.5q28 0 51 45t36 127z" />
    <glyph glyph-name="Umacron" unicode="&#x16a;" horiz-adv-x="802" 
d="M415 -16q-146 0 -223.5 80t-77.5 240v356q1 74 -23 99.5t-83 25.5q-17 0 -17 10q1 10 18 10q25 0 92 -2.5t85 -2.5h71q14 0 80.5 2t97.5 2q17 0 17 -9q0 -10 -17 -10q-59 0 -83 -25.5t-24 -99.5v-356q0 -127 43 -183.5t131 -56.5q168 0 168 247v349q1 74 -23 99.5
t-83 25.5q-17 0 -17 10q1 10 18 10q92 -3 115 -4q57 3 114 3q17 0 17 -9q0 -10 -17 -10q-58 0 -82 -25.5t-24 -99.5v-349q0 -75 -11.5 -130t-40.5 -102t-84.5 -71t-136.5 -24zM307 932q0 6 6 7.5t25 1.5h307h15t8.5 -1t6 -3t1.5 -5q0 -11 -31 -11h-307q-31 0 -31 11z" />
    <glyph glyph-name="umacron" unicode="&#x16b;" horiz-adv-x="656" 
d="M200 -16q-59 0 -90.5 37t-31.5 110v297q0 63 -32 63q-15 0 -35.5 -2.5t-24.5 -2.5q-14 0 -14 10q0 8 18 11q37 5 130.5 28.5t123.5 23.5h2q21 0 21 -23q0 -21 -5 -90t-5 -103v-179q0 -41 10.5 -58.5t35.5 -17.5q31 0 59.5 29t28.5 71v266q0 23 -5.5 30t-17.5 7
q-11 0 -26.5 -2.5t-18.5 -2.5q-10 0 -10 10q0 8 13 11q11 2 95.5 27t137.5 25q21 0 21 -23q0 -21 -4.5 -90t-4.5 -104v-202q0 -74 22 -99.5t74 -25.5q17 0 17 -10q0 -9 -17 -9t-67.5 2t-81.5 2q-39 0 -87 -8t-49 -8q-8 0 -10.5 6.5t-0.5 19t5.5 25.5t6.5 30t3 30
q0 10 -4.5 13.5t-10.5 1t-10 -9.5q-75 -116 -161 -116zM145 691q0 6 6 7.5t25 1.5h307h15t8.5 -1t6 -3t1.5 -5q0 -11 -31 -11h-307q-31 0 -31 11z" />
    <glyph glyph-name="Uring" unicode="&#x16e;" horiz-adv-x="802" 
d="M415 -16q-146 0 -223.5 80t-77.5 240v356q1 74 -23 99.5t-83 25.5q-17 0 -17 10q1 10 18 10q25 0 92 -2.5t85 -2.5h71q14 0 80.5 2t97.5 2q17 0 17 -9q0 -10 -17 -10q-59 0 -83 -25.5t-24 -99.5v-356q0 -127 43 -183.5t131 -56.5q168 0 168 247v349q1 74 -23 99.5
t-83 25.5q-17 0 -17 10q1 10 18 10q92 -3 115 -4q57 3 114 3q17 0 17 -9q0 -10 -17 -10q-58 0 -82 -25.5t-24 -99.5v-349q0 -75 -11.5 -130t-40.5 -102t-84.5 -71t-136.5 -24zM400 966q0 39 25 63.5t67 24.5q41 0 66 -24.5t25 -63.5t-25 -64t-66 -25t-66.5 25t-25.5 64z
M429 966q0 -30 17.5 -49.5t45.5 -19.5q27 0 44.5 19.5t17.5 49.5t-17.5 49t-44.5 19q-28 0 -45.5 -18.5t-17.5 -49.5z" />
    <glyph glyph-name="uring" unicode="&#x16f;" horiz-adv-x="656" 
d="M200 -16q-59 0 -90.5 37t-31.5 110v297q0 63 -32 63q-15 0 -35.5 -2.5t-24.5 -2.5q-14 0 -14 10q0 8 18 11q37 5 130.5 28.5t123.5 23.5h2q21 0 21 -23q0 -21 -5 -90t-5 -103v-179q0 -41 10.5 -58.5t35.5 -17.5q31 0 59.5 29t28.5 71v266q0 23 -5.5 30t-17.5 7
q-11 0 -26.5 -2.5t-18.5 -2.5q-10 0 -10 10q0 8 13 11q11 2 95.5 27t137.5 25q21 0 21 -23q0 -21 -4.5 -90t-4.5 -104v-202q0 -74 22 -99.5t74 -25.5q17 0 17 -10q0 -9 -17 -9t-67.5 2t-81.5 2q-39 0 -87 -8t-49 -8q-8 0 -10.5 6.5t-0.5 19t5.5 25.5t6.5 30t3 30
q0 10 -4.5 13.5t-10.5 1t-10 -9.5q-75 -116 -161 -116zM238 725q0 39 25 63.5t67 24.5q41 0 66 -24.5t25 -63.5t-25 -64t-66 -25t-66.5 25t-25.5 64zM267 725q0 -30 17.5 -49.5t45.5 -19.5q27 0 44.5 19.5t17.5 49.5t-17.5 49t-44.5 19q-28 0 -45.5 -18.5t-17.5 -49.5z" />
    <glyph glyph-name="Uhungarumlaut" unicode="&#x170;" horiz-adv-x="802" 
d="M415 -16q-146 0 -223.5 80t-77.5 240v356q1 74 -23 99.5t-83 25.5q-17 0 -17 10q1 10 18 10q25 0 92 -2.5t85 -2.5h71q14 0 80.5 2t97.5 2q17 0 17 -9q0 -10 -17 -10q-59 0 -83 -25.5t-24 -99.5v-356q0 -127 43 -183.5t131 -56.5q168 0 168 247v349q1 74 -23 99.5
t-83 25.5q-17 0 -17 10q1 10 18 10q92 -3 115 -4q57 3 114 3q17 0 17 -9q0 -10 -17 -10q-58 0 -82 -25.5t-24 -99.5v-349q0 -75 -11.5 -130t-40.5 -102t-84.5 -71t-136.5 -24zM407 882l23 130q3 22 21.5 33.5t39.5 11.5q39 0 44.5 -15t-17.5 -47l-78 -119q-11 -15 -25 -15
q-12 0 -8 21zM515 882l40 130q15 45 62 45q79 0 27 -62l-96 -119q-12 -15 -24 -15q-14 0 -9 21z" />
    <glyph glyph-name="uhungarumlaut" unicode="&#x171;" horiz-adv-x="656" 
d="M200 -16q-59 0 -90.5 37t-31.5 110v297q0 63 -32 63q-15 0 -35.5 -2.5t-24.5 -2.5q-14 0 -14 10q0 8 18 11q37 5 130.5 28.5t123.5 23.5h2q21 0 21 -23q0 -21 -5 -90t-5 -103v-179q0 -41 10.5 -58.5t35.5 -17.5q31 0 59.5 29t28.5 71v266q0 23 -5.5 30t-17.5 7
q-11 0 -26.5 -2.5t-18.5 -2.5q-10 0 -10 10q0 8 13 11q11 2 95.5 27t137.5 25q21 0 21 -23q0 -21 -4.5 -90t-4.5 -104v-202q0 -74 22 -99.5t74 -25.5q17 0 17 -10q0 -9 -17 -9t-67.5 2t-81.5 2q-39 0 -87 -8t-49 -8q-8 0 -10.5 6.5t-0.5 19t5.5 25.5t6.5 30t3 30
q0 10 -4.5 13.5t-10.5 1t-10 -9.5q-75 -116 -161 -116zM246 641l23 130q3 22 21.5 33.5t39.5 11.5q39 0 44.5 -15t-17.5 -47l-78 -119q-11 -15 -25 -15q-12 0 -8 21zM354 641l40 130q15 45 62 45q79 0 27 -62l-96 -119q-12 -15 -24 -15q-14 0 -9 21z" />
    <glyph glyph-name="Uogonek" unicode="&#x172;" horiz-adv-x="802" 
d="M415 -16q-146 0 -223.5 80t-77.5 240v356q1 74 -23 99.5t-83 25.5q-17 0 -17 10q1 10 18 10q25 0 92 -2.5t85 -2.5h71q14 0 80.5 2t97.5 2q17 0 17 -9q0 -10 -17 -10q-59 0 -83 -25.5t-24 -99.5v-356q0 -127 43 -183.5t131 -56.5q168 0 168 247v349q1 74 -23 99.5
t-83 25.5q-17 0 -17 10q1 10 18 10q92 -3 115 -4q57 3 114 3q17 0 17 -9q0 -10 -17 -10q-58 0 -82 -25.5t-24 -99.5v-349q0 -65 -9 -115t-30 -94.5t-61.5 -72.5t-98.5 -39q-31 -35 -44 -61.5t-13 -57.5q0 -62 58 -62q39 0 87 23q21 11 21 2q0 -7 -15 -21q-71 -69 -147 -69
q-49 0 -85.5 23.5t-36.5 68.5q0 19 7 37t15.5 30t25.5 26t27.5 20.5t31 19t26.5 16.5q-10 -1 -32 -1z" />
    <glyph glyph-name="uogonek" unicode="&#x173;" horiz-adv-x="656" 
d="M200 -16q-59 0 -90.5 37t-31.5 110v297q0 63 -32 63q-15 0 -35.5 -2.5t-24.5 -2.5q-14 0 -14 10q0 8 18 11q37 5 130.5 28.5t123.5 23.5h2q21 0 21 -23q0 -21 -5 -90t-5 -103v-179q0 -41 10.5 -58.5t35.5 -17.5q31 0 59.5 29t28.5 71v266q0 23 -5.5 30t-17.5 7
q-11 0 -26.5 -2.5t-18.5 -2.5q-10 0 -10 10q0 8 13 11q11 2 95.5 27t137.5 25q21 0 21 -23q0 -21 -4.5 -90t-4.5 -104v-202q0 -74 22 -99.5t74 -25.5q17 0 17 -10q0 -9 -17 -9q-18 0 -60 2t-64 2q-33 -38 -47 -64.5t-14 -58.5q0 -62 58 -62q39 0 87 23q21 11 21 2
q0 -7 -15 -21q-71 -69 -147 -69q-49 0 -85.5 23.5t-36.5 68.5q0 30 17.5 57t36.5 41t50 33.5t41 26.5q-37 -1 -81 -8.5t-46 -7.5q-8 0 -10.5 6.5t-0.5 19t5.5 25.5t6.5 30t3 30q0 10 -4.5 13.5t-10.5 1t-10 -9.5q-75 -116 -161 -116z" />
    <glyph glyph-name="Wcircumflex" unicode="&#x174;" horiz-adv-x="1139" 
d="M755 -16q-17 0 -22 17l-133 486q-4 15 -8.5 20t-9 0t-8.5 -20l-141 -486q-5 -17 -23 -17h-45q-17 0 -23 17l-202 665q-21 71 -51 95t-83 24q-15 0 -15 9q0 10 15 10q28 0 87 -2t71 -2h94q12 0 69.5 2t83.5 2h7h6q26 0 83.5 -2t69.5 -2h91q14 0 76 2t90 2q16 0 16 -9
q0 -10 -16 -10q-54 0 -68.5 -23t1.5 -99l92 -387q11 -47 24 0l110 389q19 74 6 97t-67 23q-16 0 -16 9q0 10 16 10t50.5 -2t57.5 -2q16 0 48.5 2t46.5 2q13 0 13 -9q0 -10 -13 -10q-48 0 -75.5 -24.5t-47.5 -95.5l-189 -664q-5 -17 -23 -17h-45zM357 665l110 -396
q13 -46 27 0l77 267q15 47 -1 93l-12 37q-22 70 -52 94.5t-82 24.5h-7h-6q-50 0 -61.5 -23t7.5 -97zM494 874l69 120q39 65 86 65q51 0 87 -65l69 -120q6 -11 -2 -11q-6 0 -28 15l-75 59q-35 26 -51 26q-12 0 -51 -26l-75 -59q-20 -15 -27 -15q-8 0 -2 11z" />
    <glyph glyph-name="wcircumflex" unicode="&#x175;" horiz-adv-x="907" 
d="M562 -15q-22 0 -28 22l-75 269q-12 46 -28 1l-87 -271q-6 -21 -29 -21h-52q-22 0 -30 21l-131 399q-23 69 -46 93.5t-54 24.5q-10 0 -10 9q0 10 10 10q14 0 41 -2t36 -2h149q15 0 43 1t43 1q18 0 46.5 -1t50.5 -1h130q31 0 72.5 1t64.5 1q18 0 46.5 -1t41.5 -1h2
q15 0 60 2t69 2q17 0 17 -9q0 -10 -16 -10q-52 0 -83 -24.5t-53 -94.5l-121 -398q-6 -21 -29 -21h-50zM295 403l68 -194q5 -14 10.5 -19t11 0t9.5 20l33 103q15 49 -2 93l-10 27q-9 25 -14 37t-15.5 27.5t-25.5 21.5t-37 6q-40 0 -46 -29.5t18 -92.5zM316 633l69 120
q39 65 86 65q51 0 87 -65l69 -120q6 -11 -2 -11q-6 0 -28 15l-75 59q-35 26 -51 26q-12 0 -51 -26l-75 -59q-20 -15 -27 -15q-8 0 -2 11zM609 403l50 -196q12 -45 26 0l57 186q20 65 2.5 98.5t-67.5 33.5q-100 0 -68 -122z" />
    <glyph glyph-name="Ycircumflex" unicode="&#x176;" horiz-adv-x="786" 
d="M509 140q-1 -74 28 -99.5t99 -26.5q20 0 20 -9q0 -10 -21 -10q-37 0 -116.5 2.5t-96.5 2.5h-42q-17 0 -96.5 -2t-116.5 -2q-20 0 -20 9q0 10 20 10q70 0 99 25.5t29 99.5v163q0 48 -23 92l-142 280q-33 64 -63.5 87t-68.5 23q-12 0 -12 9q0 10 12 10q17 0 50 -2t44 -2
h118q17 0 97.5 2t117.5 2q21 0 21 -9q0 -10 -21 -10q-47 0 -67 -8t-22.5 -33t22.5 -70l112 -230q10 -21 21 -21t21 21l110 229q32 70 21.5 91t-68.5 21q-18 0 -18 9q0 10 18 10q19 0 57.5 -2t60.5 -2q12 0 44.5 2t48.5 2q14 0 14 -9q0 -10 -14 -10q-48 0 -81 -23t-64 -89
l-111 -230q-21 -45 -21 -92v-211zM302 872l69 120q39 65 86 65q51 0 87 -65l69 -120q6 -11 -2 -11q-6 0 -28 15l-75 59q-35 26 -51 26q-12 0 -51 -26l-75 -59q-20 -15 -27 -15q-8 0 -2 11z" />
    <glyph glyph-name="ycircumflex" unicode="&#x177;" horiz-adv-x="603" 
d="M172 -235q-46 0 -75 30t-29 63q0 30 24 38q12 4 45 12.5t58 16t53 17.5t43.5 22.5t16.5 25.5q0 8 -3.5 19.5t-9 23.5t-18.5 40.5t-25 56.5l-115 278q-28 67 -58.5 91t-72.5 24q-14 0 -14 9q0 10 14 10q20 0 57 -2t49 -2h120q38 0 87.5 1t69.5 1h2h3h3h1q30 0 118 -2
q2 0 34 2t49 2q12 0 12 -9q0 -10 -12 -10q-38 0 -65.5 -24t-53.5 -92l-157 -417q-46 -120 -78 -172.5t-73 -52.5zM195 631l69 120q39 65 86 65q51 0 87 -65l69 -120q6 -11 -2 -11q-6 0 -28 15l-75 59q-35 26 -51 26q-12 0 -51 -26l-75 -59q-20 -15 -27 -15q-8 0 -2 11z
M329 405l53 -133q5 -14 11 -19t12 0t11 19l48 132q23 61 7 90.5t-77 30.5q-61 -1 -75.5 -30t10.5 -90z" />
    <glyph glyph-name="Ydieresis" unicode="&#x178;" horiz-adv-x="786" 
d="M509 140q-1 -74 28 -99.5t99 -26.5q20 0 20 -9q0 -10 -21 -10q-37 0 -116.5 2.5t-96.5 2.5h-42q-17 0 -96.5 -2t-116.5 -2q-20 0 -20 9q0 10 20 10q70 0 99 25.5t29 99.5v163q0 48 -23 92l-142 280q-33 64 -63.5 87t-68.5 23q-12 0 -12 9q0 10 12 10q17 0 50 -2t44 -2
h118q17 0 97.5 2t117.5 2q21 0 21 -9q0 -10 -21 -10q-47 0 -67 -8t-22.5 -33t22.5 -70l112 -230q10 -21 21 -21t21 21l110 229q32 70 21.5 91t-68.5 21q-18 0 -18 9q0 10 18 10q19 0 57.5 -2t60.5 -2q12 0 44.5 2t48.5 2q14 0 14 -9q0 -10 -14 -10q-48 0 -81 -23t-64 -89
l-111 -230q-21 -45 -21 -92v-211zM260 958q0 34 25 59t59 25t59 -25t25 -59t-25 -59t-59 -25t-59 25t-25 59zM485 958q0 34 24.5 59t59.5 25t59.5 -25t24.5 -59t-24.5 -59t-59.5 -25t-59.5 25t-24.5 59z" />
    <glyph glyph-name="Zacute" unicode="&#x179;" horiz-adv-x="676" 
d="M603 804q10 0 14 -8t-1 -17l-333 -719q-20 -44 28 -44h63q50 0 82 11t62 46t53 80.5t61 133.5q6 13 12 13q8 0 8 -16q-8 -170 -40 -248q-6 -15 -8 -19t-8 -11t-14.5 -8.5t-23.5 -1.5t-69 2t-92 2h-171q-38 0 -96.5 -2t-77.5 -2t-22.5 8t4.5 24l344 712q20 44 -27 44h-64
q-93 0 -140.5 -67t-67.5 -200q-1 -15 -12 -15q-7 0 -7 14q0 10 3.5 64t3.5 91q0 25 -1.5 61t-1.5 45q0 27 25 27q16 0 56.5 -2t76.5 -2h242q34 0 82 2t57 2zM336 882l45 130q8 26 28.5 43.5t49.5 17.5q45 0 54.5 -27.5t-22.5 -55.5l-121 -114q-17 -15 -26 -15q-15 0 -8 21z
" />
    <glyph glyph-name="zacute" unicode="&#x17a;" horiz-adv-x="481" 
d="M425 -10q-2 0 -61 5t-124 5q-62 0 -123.5 -2.5t-62.5 -2.5q-15 0 -20.5 12t3.5 35l210 446q17 36 -23 36h-26q-73 0 -109.5 -59.5t-37.5 -161.5q0 -20 -9 -20q-6 0 -7.5 4t-0.5 16q5 91 5 219q0 16 6 21t19 5q1 0 71 -5t139 -5q46 0 101.5 2.5t59.5 2.5q16 0 21 -11.5
t-5 -34.5l-209 -447q-17 -36 23 -36h26q72 0 104.5 56.5t38.5 169.5q0 20 9 20q10 0 8 -20q-1 -32 -1 -223q0 -16 -6 -21.5t-19 -5.5zM243 641l45 130q8 26 28.5 43.5t49.5 17.5q45 0 54.5 -27t-22.5 -56l-121 -114q-17 -15 -26 -15q-15 0 -8 21z" />
    <glyph glyph-name="Zdotaccent" unicode="&#x17b;" horiz-adv-x="676" 
d="M603 804q10 0 14 -8t-1 -17l-333 -719q-20 -44 28 -44h63q50 0 82 11t62 46t53 80.5t61 133.5q6 13 12 13q8 0 8 -16q-8 -170 -40 -248q-6 -15 -8 -19t-8 -11t-14.5 -8.5t-23.5 -1.5t-69 2t-92 2h-171q-38 0 -96.5 -2t-77.5 -2t-22.5 8t4.5 24l344 712q20 44 -27 44h-64
q-93 0 -140.5 -67t-67.5 -200q-1 -15 -12 -15q-7 0 -7 14q0 10 3.5 64t3.5 91q0 25 -1.5 61t-1.5 45q0 27 25 27q16 0 56.5 -2t76.5 -2h242q34 0 82 2t57 2zM285 949q0 35 24.5 59.5t59.5 24.5t59.5 -24.5t24.5 -59.5t-24.5 -59.5t-59.5 -24.5t-59.5 24.5t-24.5 59.5z" />
    <glyph glyph-name="zdotaccent" unicode="&#x17c;" horiz-adv-x="481" 
d="M425 -10q-2 0 -61 5t-124 5q-62 0 -123.5 -2.5t-62.5 -2.5q-15 0 -20.5 12t3.5 35l210 446q17 36 -23 36h-26q-73 0 -109.5 -59.5t-37.5 -161.5q0 -20 -9 -20q-6 0 -7.5 4t-0.5 16q5 91 5 219q0 16 6 21t19 5q1 0 71 -5t139 -5q46 0 101.5 2.5t59.5 2.5q16 0 21 -11.5
t-5 -34.5l-209 -447q-17 -36 23 -36h26q72 0 104.5 56.5t38.5 169.5q0 20 9 20q10 0 8 -20q-1 -32 -1 -223q0 -16 -6 -21.5t-19 -5.5zM192 708q0 34 25 59t59 25t59 -25t25 -59t-25 -59t-59 -25t-59 25t-25 59z" />
    <glyph glyph-name="Zcaron" unicode="&#x17d;" horiz-adv-x="676" 
d="M603 804q10 0 14 -8t-1 -17l-333 -719q-20 -44 28 -44h63q50 0 82 11t62 46t53 80.5t61 133.5q6 13 12 13q8 0 8 -16q-8 -170 -40 -248q-6 -15 -8 -19t-8 -11t-14.5 -8.5t-23.5 -1.5t-69 2t-92 2h-171q-38 0 -96.5 -2t-77.5 -2t-22.5 8t4.5 24l344 712q20 44 -27 44h-64
q-93 0 -140.5 -67t-67.5 -200q-1 -15 -12 -15q-7 0 -7 14q0 10 3.5 64t3.5 91q0 25 -1.5 61t-1.5 45q0 27 25 27q16 0 56.5 -2t76.5 -2h242q34 0 82 2t57 2zM213 1048q-6 11 2 11q7 0 27 -15l75 -59q39 -26 51 -26q16 0 51 26l75 59q22 15 28 15q8 0 2 -11l-69 -120
q-36 -65 -87 -65q-47 0 -86 65z" />
    <glyph glyph-name="zcaron" unicode="&#x17e;" horiz-adv-x="481" 
d="M425 -10q-2 0 -61 5t-124 5q-62 0 -123.5 -2.5t-62.5 -2.5q-15 0 -20.5 12t3.5 35l210 446q17 36 -23 36h-26q-73 0 -109.5 -59.5t-37.5 -161.5q0 -20 -9 -20q-6 0 -7.5 4t-0.5 16q5 91 5 219q0 16 6 21t19 5q1 0 71 -5t139 -5q46 0 101.5 2.5t59.5 2.5q16 0 21 -11.5
t-5 -34.5l-209 -447q-17 -36 23 -36h26q72 0 104.5 56.5t38.5 169.5q0 20 9 20q10 0 8 -20q-1 -32 -1 -223q0 -16 -6 -21.5t-19 -5.5zM121 807q-6 11 2 11q7 0 27 -15l75 -59q39 -26 51 -26q16 0 51 26l75 59q22 15 28 15q8 0 2 -11l-69 -120q-36 -65 -87 -65q-47 0 -86 65z
" />
    <glyph glyph-name="uni0218" unicode="&#x218;" horiz-adv-x="586" 
d="M300 -16q-34 0 -84.5 4t-59.5 4q-16 0 -41 -4t-32 -4q-15 0 -15 19q0 6 -12 298q0 12 7 12q9 0 12 -14q38 -167 91.5 -231t151.5 -64q49 0 74 28.5t25 63.5q0 62 -45 114.5t-121 110.5q-55 41 -83.5 65t-60 58.5t-44.5 70t-13 78.5q0 105 68 164t167 59q37 0 82 -4t51 -4
q16 0 38 3.5t28 3.5q16 0 16 -22q0 -138 12 -230q3 -21 -5 -21t-14 17q-38 128 -82 182.5t-134 54.5q-48 0 -73 -27.5t-25 -61.5q0 -45 43 -89t138 -114q100 -74 143 -133t43 -143q0 -115 -69.5 -179.5t-176.5 -64.5zM219 -146q0 30 21 47.5t52 17.5q35 0 55.5 -22t20.5 -58
q0 -47 -32.5 -84t-77.5 -47q-26 -4 -26 12q0 14 20 22q28 10 44.5 17.5t31.5 20.5t15 27q0 15 -20 15q-10 0 -27.5 -12t-32.5 -12q-18 0 -31 15t-13 41z" />
    <glyph glyph-name="uni0219" unicode="&#x219;" horiz-adv-x="436" 
d="M231 -16q-28 0 -71 6.5t-55 6.5q-11 0 -28.5 -4t-24.5 -4q-15 0 -15 15q0 32 -18 212q-1 12 7 12q5 0 8 -10q60 -206 211 -206q70 0 70 50q0 47 -156 154q-71 47 -99 86.5t-28 88.5q0 77 50 122t120 45q26 0 63 -5.5t52 -5.5q17 0 33 3.5t22 3.5q15 0 15 -16
q0 -36 11 -184q1 -14 -7 -14q-6 0 -10 12q-21 79 -77.5 128t-111.5 49q-25 0 -38.5 -14t-13.5 -35q0 -23 32.5 -52.5t100.5 -75.5q78 -54 110.5 -95t32.5 -104q0 -84 -53 -126.5t-132 -42.5zM135 -138q0 30 21 47.5t52 17.5q35 0 55.5 -22t20.5 -58q0 -47 -32.5 -84
t-77.5 -47q-26 -4 -26 12q0 14 20 22q28 10 44.5 17.5t31.5 20.5t15 27q0 15 -20 15q-10 0 -27.5 -12t-32.5 -12q-18 0 -31 15t-13 41z" />
    <glyph glyph-name="uni021A" unicode="&#x21a;" horiz-adv-x="729" 
d="M331 0q-15 0 -83.5 -2t-100.5 -2q-18 0 -18 9q0 10 18 10q61 0 85.5 25.5t24.5 99.5v606q0 38 -30 38h-17q-33 0 -62.5 -33t-50.5 -78.5t-46 -118.5q-6 -17 -12 -17q-9 0 -7 17q1 34 1 125q0 28 -5 62.5t-5 37.5q0 14 5.5 19.5t19.5 5.5q18 0 70.5 -2t79.5 -2h333
q27 0 79.5 2t71.5 2q25 0 25 -25q0 -3 -5.5 -37.5t-5.5 -62.5q0 -91 1 -125q2 -17 -7 -17q-5 0 -12 17q-39 112 -75 171t-84 59h-17q-30 0 -30 -38v-606q-1 -74 24 -99.5t85 -25.5q18 -1 18 -10q0 -10 -18 -10q-27 0 -96.5 2.5t-87.5 2.5h-66zM298 -119q0 30 21 47.5
t52 17.5q35 0 55.5 -22t20.5 -58q0 -47 -32.5 -84t-77.5 -47q-26 -4 -26 12q0 14 20 22q28 10 44.5 17.5t31.5 20.5t15 27q0 15 -20 15q-10 0 -27.5 -12t-32.5 -12q-18 0 -31 15t-13 41z" />
    <glyph glyph-name="uni021B" unicode="&#x21b;" horiz-adv-x="448" 
d="M415 249q1 14 9 14q7 0 6 -14q-14 -139 -56 -202t-131 -63q-76 0 -115.5 47.5t-39.5 157.5v287q0 37 -37 37h-44q-17 0 -17 9q0 11 17 11q47 0 94.5 15.5t86 51t47.5 83.5q4 15 7 20t10 5q11 0 11 -24v-113q0 -21 14 -30.5t32 -9.5q17 0 47 6t36 6q18 0 18 -14
q0 -16 -21 -16h-84q-37 0 -37 -37v-279q0 -59 17 -89.5t43 -30.5q28 0 51 45t36 127zM160 -119q0 30 21 47.5t52 17.5q35 0 55.5 -22t20.5 -58q0 -47 -32.5 -84t-77.5 -47q-26 -4 -26 12q0 14 20 22q28 10 44.5 17.5t31.5 20.5t15 27q0 15 -20 15q-10 0 -27.5 -12t-32.5 -12
q-18 0 -31 15t-13 41z" />
    <glyph glyph-name="uni0237" unicode="&#x237;" horiz-adv-x="354" 
d="M-46 -236q-33 0 -50 21t-17 51q0 35 18 58.5t49 23.5q21 0 70.5 -18t68.5 -16q13 2 17 12t4 41v491q0 36 -7.5 49.5t-24.5 13.5q-15 0 -35 -2.5t-24 -2.5q-14 0 -14 10q0 8 18 11q37 5 130 28t123 24q23 0 23 -27q0 -23 -4.5 -118.5t-4.5 -144.5v-81q0 -82 -42.5 -164
t-100 -136.5t-112.5 -89t-85 -34.5zM279 559h1h1h-2z" />
    <glyph glyph-name="circumflex" unicode="&#x2c6;" horiz-adv-x="437" 
d="M132 751q39 65 86 65q51 0 87 -65l69 -120q6 -11 -2 -11q-6 0 -28 15l-75 59q-35 26 -51 26q-12 0 -51 -26l-75 -59q-20 -15 -27 -15q-8 0 -2 11z" />
    <glyph glyph-name="caron" unicode="&#x2c7;" horiz-adv-x="437" 
d="M63 807q-6 11 2 11q7 0 27 -15l75 -59q39 -26 51 -26q16 0 51 26l75 59q22 15 28 15q8 0 2 -11l-69 -120q-36 -65 -87 -65q-47 0 -86 65z" />
    <glyph glyph-name="breve" unicode="&#x2d8;" horiz-adv-x="435" 
d="M386 801q-19 -177 -168 -177q-150 0 -169 177q-2 19 7 19q2 0 3.5 -0.5t2.5 -1.5t2 -3l1.5 -3t1.5 -5t2 -6q21 -69 149 -69q58 0 97 14t51 55q1 3 2 7t1.5 5.5t1.5 3.5t2.5 2.5t4.5 0.5q10 0 8 -19z" />
    <glyph glyph-name="dotaccent" unicode="&#x2d9;" horiz-adv-x="268" 
d="M134 624q-34 0 -59 25t-25 59t25 59t59 25t59 -25t25 -59t-25 -59t-59 -25z" />
    <glyph glyph-name="ring" unicode="&#x2da;" horiz-adv-x="324" 
d="M163 636q-41 0 -66.5 25t-25.5 64t25 63.5t67 24.5q41 0 66 -24.5t25 -63.5t-25 -64t-66 -25zM100 725q0 -30 17.5 -49.5t45.5 -19.5q27 0 44.5 19.5t17.5 49.5t-17.5 49t-44.5 19q-28 0 -45.5 -18.5t-17.5 -49.5z" />
    <glyph glyph-name="ogonek" unicode="&#x2db;" horiz-adv-x="371" 
d="M238 -10q-36 -41 -51 -68.5t-15 -60.5q0 -62 58 -62q39 0 87 23q21 11 21 2q0 -7 -15 -21q-71 -69 -147 -69q-49 0 -85.5 23.5t-36.5 68.5q0 41 26.5 71.5t72 57.5t54.5 35h31z" />
    <glyph glyph-name="tilde" unicode="&#x2dc;" horiz-adv-x="475" 
d="M314 622q-35 0 -86.5 37t-81.5 37q-32 0 -53 -18.5t-27 -46.5q-3 -16 -10 -16q-8 0 -5 16q17 90 35 123q28 51 75 51q35 0 86.5 -37t82.5 -37q33 0 56.5 19t24.5 46q1 17 8 17t7 -17q0 -24 -6.5 -52t-18.5 -56.5t-35 -47t-52 -18.5z" />
    <glyph glyph-name="hungarumlaut" unicode="&#x2dd;" horiz-adv-x="361" 
d="M82 771q3 22 21.5 33.5t39.5 11.5q39 0 44.5 -15t-17.5 -47l-78 -119q-11 -15 -25 -15q-12 0 -8 21zM167 641l40 130q15 45 62 45q79 0 27 -62l-96 -119q-12 -15 -24 -15q-14 0 -9 21z" />
    <glyph glyph-name="gravecomb" unicode="&#x300;" horiz-adv-x="0" 
d="M200 641q7 -21 -8 -21q-9 0 -26 15l-121 114q-32 29 -22.5 56t54.5 27q29 0 49.5 -17.5t28.5 -43.5z" />
    <glyph glyph-name="acutecomb" unicode="&#x301;" horiz-adv-x="0" 
d="M105 771q8 26 28.5 43.5t49.5 17.5q45 0 54.5 -27t-22.5 -56l-121 -114q-17 -15 -26 -15q-15 0 -8 21z" />
    <glyph glyph-name="uni0302" unicode="&#x302;" horiz-adv-x="0" 
d="M132 751q39 65 86 65q51 0 87 -65l69 -120q6 -11 -2 -11q-6 0 -28 15l-75 59q-35 26 -51 26q-12 0 -51 -26l-75 -59q-20 -15 -27 -15q-8 0 -2 11z" />
    <glyph glyph-name="tildecomb" unicode="&#x303;" horiz-adv-x="0" 
d="M314 622q-35 0 -86.5 37t-81.5 37q-32 0 -53 -18.5t-27 -46.5q-3 -16 -10 -16q-8 0 -5 16q17 90 35 123q28 51 75 51q35 0 86.5 -37t82.5 -37q33 0 56.5 19t24.5 46q1 17 8 17t7 -17q0 -24 -6.5 -52t-18.5 -56.5t-35 -47t-52 -18.5z" />
    <glyph glyph-name="uni0304" unicode="&#x304;" horiz-adv-x="0" 
d="M401 700h15t8.5 -1t6 -3t1.5 -5q0 -11 -31 -11h-307q-31 0 -31 11q0 6 6 7.5t25 1.5h307z" />
    <glyph glyph-name="uni0306" unicode="&#x306;" horiz-adv-x="0" 
d="M386 801q-19 -177 -168 -177q-150 0 -169 177q-2 19 7 19q2 0 3.5 -0.5t2.5 -1.5t2 -3l1.5 -3t1.5 -5t2 -6q21 -69 149 -69q58 0 97 14t51 55q1 3 2 7t1.5 5.5t1.5 3.5t2.5 2.5t4.5 0.5q10 0 8 -19z" />
    <glyph glyph-name="uni0307" unicode="&#x307;" horiz-adv-x="0" 
d="M134 624q-34 0 -59 25t-25 59t25 59t59 25t59 -25t25 -59t-25 -59t-59 -25z" />
    <glyph glyph-name="uni0308" unicode="&#x308;" horiz-adv-x="0" 
d="M145 633q-35 0 -59.5 24.5t-24.5 59.5t24.5 59.5t59.5 24.5t59.5 -24.5t24.5 -59.5t-24.5 -59.5t-59.5 -24.5zM286 717q0 35 25 59.5t59 24.5t59 -24.5t25 -59.5t-25 -59.5t-59 -24.5t-59 24.5t-25 59.5z" />
    <glyph glyph-name="uni030A" unicode="&#x30a;" horiz-adv-x="0" 
d="M163 636q-41 0 -66.5 25t-25.5 64t25 63.5t67 24.5q41 0 66 -24.5t25 -63.5t-25 -64t-66 -25zM100 725q0 -30 17.5 -49.5t45.5 -19.5q27 0 44.5 19.5t17.5 49.5t-17.5 49t-44.5 19q-28 0 -45.5 -18.5t-17.5 -49.5z" />
    <glyph glyph-name="uni030B" unicode="&#x30b;" horiz-adv-x="0" 
d="M82 771q3 22 21.5 33.5t39.5 11.5q39 0 44.5 -15t-17.5 -47l-78 -119q-11 -15 -25 -15q-12 0 -8 21zM167 641l40 130q15 45 62 45q79 0 27 -62l-96 -119q-12 -15 -24 -15q-14 0 -9 21z" />
    <glyph glyph-name="uni030C" unicode="&#x30c;" horiz-adv-x="0" 
d="M63 807q-6 11 2 11q7 0 27 -15l75 -59q39 -26 51 -26q16 0 51 26l75 59q22 15 28 15q8 0 2 -11l-69 -120q-36 -65 -87 -65q-47 0 -86 65z" />
    <glyph glyph-name="uni0312" unicode="&#x312;" horiz-adv-x="0" 
d="M157 764q18 0 31 -15t13 -41q0 -30 -21 -47.5t-52 -17.5q-35 0 -55.5 22t-20.5 58q0 47 32.5 84t77.5 47q26 4 26 -12q0 -14 -20 -22q-28 -10 -44.5 -17.5t-31.5 -20.5t-15 -27q0 -15 20 -15q10 0 27.5 12t32.5 12z" />
    <glyph glyph-name="uni0326" unicode="&#x326;" horiz-adv-x="0" 
d="M79 -175q-18 0 -31 15t-13 41q0 30 21 47.5t52 17.5q35 0 55.5 -22t20.5 -58q0 -47 -32.5 -84t-77.5 -47q-26 -4 -26 12q0 14 20 22q28 10 44.5 17.5t31.5 20.5t15 27q0 15 -20 15q-10 0 -27.5 -12t-32.5 -12z" />
    <glyph glyph-name="uni0327" unicode="&#x327;" horiz-adv-x="0" 
d="M69 -249q-53 0 -53 12q0 8 32 8q62 0 98.5 26.5t36.5 74.5q0 26 -14 43t-36 17q-15 0 -35 -9.5t-25 -9.5q-22 0 -1 28q3 4 7 8l72 79h20l-22 -35q-10 -15 0 -21.5t28 -6.5q17 0 35.5 -4.5t38 -14.5t32 -31t12.5 -49q0 -36 -24.5 -61t-64 -35.5t-72 -14.5t-65.5 -4z" />
    <glyph glyph-name="uni0328" unicode="&#x328;" horiz-adv-x="0" 
d="M238 -10q-36 -41 -51 -68.5t-15 -60.5q0 -62 58 -62q39 0 87 23q21 11 21 2q0 -7 -15 -21q-71 -69 -147 -69q-49 0 -85.5 23.5t-36.5 68.5q0 41 26.5 71.5t72 57.5t54.5 35h31z" />
    <glyph glyph-name="Wgrave" unicode="&#x1e80;" horiz-adv-x="1139" 
d="M755 -16q-17 0 -22 17l-133 486q-4 15 -8.5 20t-9 0t-8.5 -20l-141 -486q-5 -17 -23 -17h-45q-17 0 -23 17l-202 665q-21 71 -51 95t-83 24q-15 0 -15 9q0 10 15 10q28 0 87 -2t71 -2h94q12 0 69.5 2t83.5 2h7h6q26 0 83.5 -2t69.5 -2h91q14 0 76 2t90 2q16 0 16 -9
q0 -10 -16 -10q-54 0 -68.5 -23t1.5 -99l92 -387q11 -47 24 0l110 389q19 74 6 97t-67 23q-16 0 -16 9q0 10 16 10t50.5 -2t57.5 -2q16 0 48.5 2t46.5 2q13 0 13 -9q0 -10 -13 -10q-48 0 -75.5 -24.5t-47.5 -95.5l-189 -664q-5 -17 -23 -17h-45zM357 665l110 -396
q13 -46 27 0l77 267q15 47 -1 93l-12 37q-22 70 -52 94.5t-82 24.5h-7h-6q-50 0 -61.5 -23t7.5 -97zM524 992q-32 28 -22.5 55.5t54.5 27.5q29 0 49.5 -17.5t28.5 -43.5l45 -130q7 -21 -8 -21q-9 0 -26 15z" />
    <glyph glyph-name="wgrave" unicode="&#x1e81;" horiz-adv-x="907" 
d="M562 -15q-22 0 -28 22l-75 269q-12 46 -28 1l-87 -271q-6 -21 -29 -21h-52q-22 0 -30 21l-131 399q-23 69 -46 93.5t-54 24.5q-10 0 -10 9q0 10 10 10q14 0 41 -2t36 -2h149q15 0 43 1t43 1q18 0 46.5 -1t50.5 -1h130q31 0 72.5 1t64.5 1q18 0 46.5 -1t41.5 -1h2
q15 0 60 2t69 2q17 0 17 -9q0 -10 -16 -10q-52 0 -83 -24.5t-53 -94.5l-121 -398q-6 -21 -29 -21h-50zM295 403l68 -194q5 -14 10.5 -19t11 0t9.5 20l33 103q15 49 -2 93l-10 27q-9 25 -14 37t-15.5 27.5t-25.5 21.5t-37 6q-40 0 -46 -29.5t18 -92.5zM346 751
q-32 29 -22.5 56t54.5 27q29 0 49.5 -17.5t28.5 -43.5l45 -130q7 -21 -8 -21q-9 0 -26 15zM609 403l50 -196q12 -45 26 0l57 186q20 65 2.5 98.5t-67.5 33.5q-100 0 -68 -122z" />
    <glyph glyph-name="Wacute" unicode="&#x1e82;" horiz-adv-x="1139" 
d="M755 -16q-17 0 -22 17l-133 486q-4 15 -8.5 20t-9 0t-8.5 -20l-141 -486q-5 -17 -23 -17h-45q-17 0 -23 17l-202 665q-21 71 -51 95t-83 24q-15 0 -15 9q0 10 15 10q28 0 87 -2t71 -2h94q12 0 69.5 2t83.5 2h7h6q26 0 83.5 -2t69.5 -2h91q14 0 76 2t90 2q16 0 16 -9
q0 -10 -16 -10q-54 0 -68.5 -23t1.5 -99l92 -387q11 -47 24 0l110 389q19 74 6 97t-67 23q-16 0 -16 9q0 10 16 10t50.5 -2t57.5 -2q16 0 48.5 2t46.5 2q13 0 13 -9q0 -10 -13 -10q-48 0 -75.5 -24.5t-47.5 -95.5l-189 -664q-5 -17 -23 -17h-45zM357 665l110 -396
q13 -46 27 0l77 267q15 47 -1 93l-12 37q-22 70 -52 94.5t-82 24.5h-7h-6q-50 0 -61.5 -23t7.5 -97zM616 884l45 130q8 26 28.5 43.5t49.5 17.5q45 0 54.5 -27.5t-22.5 -55.5l-121 -114q-17 -15 -26 -15q-15 0 -8 21z" />
    <glyph glyph-name="wacute" unicode="&#x1e83;" horiz-adv-x="907" 
d="M562 -15q-22 0 -28 22l-75 269q-12 46 -28 1l-87 -271q-6 -21 -29 -21h-52q-22 0 -30 21l-131 399q-23 69 -46 93.5t-54 24.5q-10 0 -10 9q0 10 10 10q14 0 41 -2t36 -2h149q15 0 43 1t43 1q18 0 46.5 -1t50.5 -1h130q31 0 72.5 1t64.5 1q18 0 46.5 -1t41.5 -1h2
q15 0 60 2t69 2q17 0 17 -9q0 -10 -16 -10q-52 0 -83 -24.5t-53 -94.5l-121 -398q-6 -21 -29 -21h-50zM295 403l68 -194q5 -14 10.5 -19t11 0t9.5 20l33 103q15 49 -2 93l-10 27q-9 25 -14 37t-15.5 27.5t-25.5 21.5t-37 6q-40 0 -46 -29.5t18 -92.5zM438 643l45 130
q8 26 28.5 43.5t49.5 17.5q45 0 54.5 -27t-22.5 -56l-121 -114q-17 -15 -26 -15q-15 0 -8 21zM609 403l50 -196q12 -45 26 0l57 186q20 65 2.5 98.5t-67.5 33.5q-100 0 -68 -122z" />
    <glyph glyph-name="Wdieresis" unicode="&#x1e84;" horiz-adv-x="1139" 
d="M755 -16q-17 0 -22 17l-133 486q-4 15 -8.5 20t-9 0t-8.5 -20l-141 -486q-5 -17 -23 -17h-45q-17 0 -23 17l-202 665q-21 71 -51 95t-83 24q-15 0 -15 9q0 10 15 10q28 0 87 -2t71 -2h94q12 0 69.5 2t83.5 2h7h6q26 0 83.5 -2t69.5 -2h91q14 0 76 2t90 2q16 0 16 -9
q0 -10 -16 -10q-54 0 -68.5 -23t1.5 -99l92 -387q11 -47 24 0l110 389q19 74 6 97t-67 23q-16 0 -16 9q0 10 16 10t50.5 -2t57.5 -2q16 0 48.5 2t46.5 2q13 0 13 -9q0 -10 -13 -10q-48 0 -75.5 -24.5t-47.5 -95.5l-189 -664q-5 -17 -23 -17h-45zM357 665l110 -396
q13 -46 27 0l77 267q15 47 -1 93l-12 37q-22 70 -52 94.5t-82 24.5h-7h-6q-50 0 -61.5 -23t7.5 -97zM453 960q0 34 24.5 59t59.5 25t59.5 -25t24.5 -59t-24.5 -59t-59.5 -25t-59.5 25t-24.5 59zM678 960q0 34 25 59t59 25t59 -25t25 -59t-25 -59t-59 -25t-59 25t-25 59z" />
    <glyph glyph-name="wdieresis" unicode="&#x1e85;" horiz-adv-x="907" 
d="M562 -15q-22 0 -28 22l-75 269q-12 46 -28 1l-87 -271q-6 -21 -29 -21h-52q-22 0 -30 21l-131 399q-23 69 -46 93.5t-54 24.5q-10 0 -10 9q0 10 10 10q14 0 41 -2t36 -2h149q15 0 43 1t43 1q18 0 46.5 -1t50.5 -1h130q31 0 72.5 1t64.5 1q18 0 46.5 -1t41.5 -1h2
q15 0 60 2t69 2q17 0 17 -9q0 -10 -16 -10q-52 0 -83 -24.5t-53 -94.5l-121 -398q-6 -21 -29 -21h-50zM275 719q0 35 24.5 59.5t59.5 24.5t59.5 -24.5t24.5 -59.5t-24.5 -59.5t-59.5 -24.5t-59.5 24.5t-24.5 59.5zM295 403l68 -194q5 -14 10.5 -19t11 0t9.5 20l33 103
q15 49 -2 93l-10 27q-9 25 -14 37t-15.5 27.5t-25.5 21.5t-37 6q-40 0 -46 -29.5t18 -92.5zM500 719q0 35 25 59.5t59 24.5t59 -24.5t25 -59.5t-25 -59.5t-59 -24.5t-59 24.5t-25 59.5zM609 403l50 -196q12 -45 26 0l57 186q20 65 2.5 98.5t-67.5 33.5q-100 0 -68 -122z" />
    <glyph glyph-name="Ygrave" unicode="&#x1ef2;" horiz-adv-x="786" 
d="M509 140q-1 -74 28 -99.5t99 -26.5q20 0 20 -9q0 -10 -21 -10q-37 0 -116.5 2.5t-96.5 2.5h-42q-17 0 -96.5 -2t-116.5 -2q-20 0 -20 9q0 10 20 10q70 0 99 25.5t29 99.5v163q0 48 -23 92l-142 280q-33 64 -63.5 87t-68.5 23q-12 0 -12 9q0 10 12 10q17 0 50 -2t44 -2
h118q17 0 97.5 2t117.5 2q21 0 21 -9q0 -10 -21 -10q-47 0 -67 -8t-22.5 -33t22.5 -70l112 -230q10 -21 21 -21t21 21l110 229q32 70 21.5 91t-68.5 21q-18 0 -18 9q0 10 18 10q19 0 57.5 -2t60.5 -2q12 0 44.5 2t48.5 2q14 0 14 -9q0 -10 -14 -10q-48 0 -81 -23t-64 -89
l-111 -230q-21 -45 -21 -92v-211zM332 990q-32 28 -22.5 55.5t54.5 27.5q29 0 49.5 -17.5t28.5 -43.5l45 -130q7 -21 -8 -21q-9 0 -26 15z" />
    <glyph glyph-name="ygrave" unicode="&#x1ef3;" horiz-adv-x="603" 
d="M172 -235q-46 0 -75 30t-29 63q0 30 24 38q12 4 45 12.5t58 16t53 17.5t43.5 22.5t16.5 25.5q0 8 -3.5 19.5t-9 23.5t-18.5 40.5t-25 56.5l-115 278q-28 67 -58.5 91t-72.5 24q-14 0 -14 9q0 10 14 10q20 0 57 -2t49 -2h120q38 0 87.5 1t69.5 1h2h3h3h1q30 0 118 -2
q2 0 34 2t49 2q12 0 12 -9q0 -10 -12 -10q-38 0 -65.5 -24t-53.5 -92l-157 -417q-46 -120 -78 -172.5t-73 -52.5zM225 749q-32 29 -22.5 56t54.5 27q29 0 49.5 -17.5t28.5 -43.5l45 -130q7 -21 -8 -21q-9 0 -26 15zM329 405l53 -133q5 -14 11 -19t12 0t11 19l48 132
q23 61 7 90.5t-77 30.5q-61 -1 -75.5 -30t10.5 -90z" />
    <glyph glyph-name="endash" unicode="&#x2013;" horiz-adv-x="677" 
d="M57 255q-17 0 -17 14q0 13 17 13h563q17 0 17 -13q0 -14 -17 -14h-563z" />
    <glyph glyph-name="emdash" unicode="&#x2014;" horiz-adv-x="1274" 
d="M57 255q-17 0 -17 13q0 14 17 14h1160q17 0 17 -14q0 -13 -17 -13h-1160z" />
    <glyph glyph-name="quoteleft" unicode="&#x2018;" horiz-adv-x="287" 
d="M161 672q41 0 63 -25t22 -59q0 -39 -26 -65t-73 -26q-46 0 -76 33.5t-30 87.5q0 65 37.5 118t96.5 70q25 7 40 -7t15 -30q0 -8 -8 -12q-27 -9 -35.5 -12t-33.5 -12.5t-35 -16t-25 -17.5t-21 -23t-6 -26q0 -24 15 -24q5 0 13 11.5t25 23t42 11.5z" />
    <glyph glyph-name="quoteright" unicode="&#x2019;" horiz-adv-x="287" 
d="M126 636q-41 0 -63 25t-22 59q0 39 26 65t73 26q46 0 76 -33.5t30 -87.5q0 -65 -37.5 -118t-96.5 -70q-25 -7 -40 7t-15 30q0 8 8 12q27 9 35.5 12t33.5 12.5t35 16t25 17.5t21 23t6 26q0 24 -15 24q-5 0 -13 -11.5t-25 -23t-42 -11.5z" />
    <glyph glyph-name="quotesinglbase" unicode="&#x201a;" horiz-adv-x="287" 
d="M126 -21q-41 0 -63 25t-22 59q0 39 26 65t73 26q46 0 76 -33.5t30 -87.5q0 -65 -37.5 -118t-96.5 -70q-25 -7 -40 7t-15 30q0 8 8 12q27 9 35.5 12t33.5 12.5t35 16t25 17.5t21 23t6 26q0 24 -15 24q-5 0 -13 -11.5t-25 -23t-42 -11.5z" />
    <glyph glyph-name="quotedblleft" unicode="&#x201c;" horiz-adv-x="502" 
d="M163 671q45 0 66 -39q10 -22 16 2q19 66 56 111t89 60q25 7 40 -7t15 -30q0 -8 -8 -12q-27 -9 -35.5 -12t-33.5 -12.5t-35 -16t-25 -17.5t-21 -23t-6 -26q0 -24 15 -24q5 0 13 11.5t25 23t42 11.5q41 0 63 -25t22 -59q0 -39 -26 -65t-73 -26q-59 0 -102 68q-13 22 -21 -2
q-29 -66 -91 -66q-45 0 -76 33.5t-31 87.5q0 64 38 117t97 71q25 7 40 -7t15 -30q0 -8 -8 -12q-99 -33 -129 -56q-28 -23 -28 -51q0 -24 16 -24q5 0 13.5 11.5t25.5 23t42 11.5z" />
    <glyph glyph-name="quotedblright" unicode="&#x201d;" horiz-adv-x="502" 
d="M339 638q-45 0 -66 39q-10 22 -16 -2q-19 -66 -56 -110.5t-89 -60.5q-25 -7 -40 7t-15 30q0 8 8 12q27 9 35.5 12t33.5 12.5t35 16t25 17.5t21 23t6 26q0 24 -15 24q-5 0 -13 -11.5t-25 -23t-42 -11.5q-41 0 -63 25t-22 59q0 39 26 65t73 26q59 0 102 -68q13 -22 21 2
q29 66 91 66q45 0 76 -33.5t31 -87.5q0 -64 -38 -117t-97 -71q-25 -7 -40 7t-15 30q0 8 8 12q99 33 129 56q28 23 28 51q0 24 -16 24q-5 0 -13.5 -11.5t-25.5 -23t-42 -11.5z" />
    <glyph glyph-name="quotedblbase" unicode="&#x201e;" horiz-adv-x="502" 
d="M339 -21q-45 0 -66 39q-10 22 -16 -2q-19 -66 -56 -110.5t-89 -60.5q-25 -7 -40 7t-15 30q0 8 8 12q27 9 35.5 12t33.5 12.5t35 16t25 17.5t21 23t6 26q0 24 -15 24q-5 0 -13 -11.5t-25 -23t-42 -11.5q-41 0 -63 25t-22 59q0 39 26 65t73 26q59 0 102 -68q13 -22 21 2
q29 66 91 66q45 0 76 -33.5t31 -87.5q0 -64 -38 -117t-97 -71q-25 -7 -40 7t-15 30q0 8 8 12q99 33 129 56q28 23 28 51q0 24 -16 24q-5 0 -13.5 -11.5t-25.5 -23t-42 -11.5z" />
    <glyph glyph-name="dagger" unicode="&#x2020;" horiz-adv-x="567" 
d="M283 -220q-15 0 -15 22q0 44 4 131.5t4 135.5q0 93 -18.5 164t-36.5 109.5t-18 50.5t32 50t39 78q1 11 -5 17t-17 5q-28 -6 -69.5 -36.5t-65.5 -30.5q-29 0 -49 21t-20 57t20.5 58t48.5 22q24 0 65.5 -32t69.5 -38q11 -2 17 4t5 18q-5 33 -37 80.5t-32 83.5t23 57.5
t56 21.5t56 -21.5t23 -57.5t-32 -83.5t-38 -80.5q-1 -12 5 -18t17 -4q29 6 70.5 38t64.5 32q28 0 49 -22t21 -58t-20.5 -57t-49.5 -21q-24 0 -65 30.5t-70 36.5q-11 1 -17 -5t-5 -17q7 -40 39 -78t32 -50t-18 -50.5t-36.5 -109.5t-18.5 -164q0 -48 4 -135.5t4 -131.5
q0 -22 -16 -22z" />
    <glyph glyph-name="daggerdbl" unicode="&#x2021;" horiz-adv-x="567" 
d="M48 -12q0 36 20 57t49 21q24 0 65 -30.5t70 -36.5q11 -1 17 4.5t5 17.5q-5 30 -23 56t-33 43t-15 29q0 17 18.5 34.5t37 39.5t18.5 48t-18.5 48t-37 39.5t-18.5 34.5q0 12 32 50t39 78q1 11 -5 17t-17 5q-29 -6 -70 -36.5t-65 -30.5q-29 0 -49 21t-20 57t20.5 58t48.5 22
q23 0 64.5 -32t70.5 -38q11 -2 17 4t5 18q-5 38 -37 83.5t-32 80.5q0 36 23 57.5t56 21.5t56 -21.5t23 -57.5q0 -35 -32.5 -80.5t-37.5 -83.5q-1 -12 5 -18t17 -4q29 6 70.5 38t64.5 32q28 0 49 -22t21 -58t-20.5 -57t-49.5 -21q-23 0 -64.5 30.5t-70.5 36.5q-11 1 -17 -5
t-5 -17q7 -40 39 -78t32 -50q0 -17 -18.5 -34.5t-37 -39.5t-18.5 -48t18.5 -48t37 -39.5t18.5 -34.5q0 -12 -15 -29t-33 -43t-23 -56q-1 -12 5 -17.5t17 -4.5q29 6 70.5 36.5t64.5 30.5q29 0 49.5 -21t20.5 -57q0 -37 -20.5 -58.5t-49.5 -21.5q-23 0 -64.5 31.5t-70.5 38.5
q-11 1 -17 -5t-5 -17q5 -39 37.5 -84t32.5 -80q0 -36 -23 -57.5t-56 -21.5t-56 21.5t-23 57.5q0 35 32 80t37 84q1 11 -5 17t-17 5q-29 -7 -70 -38.5t-65 -31.5q-28 0 -48.5 21.5t-20.5 58.5z" />
    <glyph glyph-name="bullet" unicode="&#x2022;" horiz-adv-x="377" 
d="M194 219q-61 0 -102.5 41.5t-41.5 102.5q0 59 42 101.5t102 42.5q59 0 101.5 -42.5t42.5 -101.5q0 -60 -42 -102t-102 -42z" />
    <glyph glyph-name="ellipsis" unicode="&#x2026;" horiz-adv-x="811" 
d="M134 -16q-35 0 -59.5 24.5t-24.5 59.5t24.5 59.5t59.5 24.5q34 0 59 -25t25 -59q0 -35 -24.5 -59.5t-59.5 -24.5zM322 68q0 35 24.5 59.5t59.5 24.5q34 0 59 -25t25 -59q0 -35 -24.5 -59.5t-59.5 -24.5t-59.5 24.5t-24.5 59.5zM593 68q0 35 24.5 59.5t59.5 24.5t59.5 -25
t24.5 -59q0 -35 -24.5 -59.5t-59.5 -24.5t-59.5 24.5t-24.5 59.5z" />
    <glyph glyph-name="perthousand" unicode="&#x2030;" horiz-adv-x="1160" 
d="M179 -16q-9 1 -8 8.5t10 21.5q265 414 467 749q17 27 -10 21q-4 -1 -26 -7.5t-38 -10.5t-39 -8t-39 -4q-62 0 -152 23q-20 5 -18 -4q1 -7 12 -21q43 -63 43 -143q0 -88 -49.5 -148.5t-115.5 -60.5q-67 0 -116.5 60.5t-49.5 148.5q0 89 49.5 150t116.5 61
q36 0 130.5 -22.5t149.5 -22.5q29 0 74 10.5t79 20.5t38 10q10 0 11 -8.5t-7 -21.5q-252 -394 -489 -786q-10 -16 -23 -16zM168 609q0 -190 48 -190q47 0 47 190q0 192 -47 192q-48 0 -48 -192zM485 194q0 89 50 150t117 61q45 0 84.5 -31t61.5 -82q22 51 62 82t85 31
q67 0 116 -61t49 -150q0 -88 -49 -149t-116 -61q-73 0 -123 70q-24 43 -48 0q-50 -70 -122 -70q-67 0 -117 61t-50 149zM604 194q0 -191 48 -191q46 0 46 191q0 192 -46 192q-48 0 -48 -192zM897 194q0 -191 48 -191q47 0 47 191q0 192 -47 192q-48 0 -48 -192z" />
    <glyph glyph-name="guilsinglleft" unicode="&#x2039;" horiz-adv-x="319" 
d="M195 293q0 -9 5 -28.5t16 -49.5t19 -51.5t22.5 -60t19.5 -50.5q4 -11 -2 -11t-20 11q-73 61 -143.5 135.5t-70.5 104.5t70.5 104.5t143.5 135.5q24 19 24 7q0 -3 -2 -7q-5 -12 -19.5 -50.5t-22.5 -60t-19 -51.5t-16 -49.5t-5 -28.5z" />
    <glyph glyph-name="guilsinglright" unicode="&#x203a;" horiz-adv-x="319" 
d="M124 293q0 9 -5 28.5t-16 49.5t-19 51.5t-22.5 60t-19.5 50.5q-4 11 2 11t20 -11q73 -61 143.5 -135.5t70.5 -104.5t-70.5 -104.5t-143.5 -135.5q-24 -19 -24 -7q0 3 2 7q5 12 19.5 50.5t22.5 60t19 51.5t16 49.5t5 28.5z" />
    <glyph glyph-name="fraction" unicode="&#x2044;" horiz-adv-x="455" 
d="M465 797q12 19 27 19q24 0 4 -31q-271 -422 -482 -779q-10 -18 -27 -18q-23 0 -4 30q249 386 482 779z" />
    <glyph glyph-name="Euro" unicode="&#x20ac;" horiz-adv-x="763" 
d="M104 402v13q0 20 -19 20h-37q-10 0 -11 6q-1 9 14 12q3 1 7 1h28q19 0 22 20q18 155 111 248.5t248 93.5q41 0 87.5 -5t51.5 -5q22 0 39.5 4.5t20.5 4.5q8 0 10.5 -4t2.5 -18q-3 -22 -1.5 -103t12.5 -158q3 -19 -7 -19q-9 0 -12 15q-58 268 -195 268q-129 0 -140 -322
q-1 -9 4.5 -14.5t14.5 -5.5h167q10 0 11 -6q1 -9 -14 -12q-3 -1 -7 -1h-157q-20 0 -20 -20v-12v-18q2 -20 21 -20h136q10 0 11 -6q1 -9 -14 -12q-3 -1 -7 -1h-125q-21 0 -18 -20q10 -111 50.5 -181.5t106.5 -70.5q78 0 127.5 69t67.5 192q3 13 9 13q7 0 6 -14
q-7 -72 -27 -133t-54 -110.5t-87 -78t-121 -28.5q-143 0 -219.5 91t-90.5 251q-2 20 -22 20h-37q-10 0 -11 6q-1 9 14 12q3 1 7 1h26q20 0 20 20v17z" />
    <glyph glyph-name="trademark" unicode="&#x2122;" horiz-adv-x="1263" 
d="M674 706q-1 4 -4.5 6t-6.5 0.5t-3 -6.5v-206q0 -74 16.5 -99.5t57.5 -25.5q12 0 12 -10q0 -9 -12 -9q-6 0 -87 3q-84 -3 -88 -3q-12 0 -12 9q0 10 12 10q41 0 58 25.5t17 99.5v163q0 64 -15 88.5t-47 24.5h-126q-25 0 -35.5 -14.5t-10.5 -48.5v-212q0 -74 23 -99.5
t80 -25.5q17 -1 17 -10q0 -10 -17 -10q-23 0 -55 1t-65.5 2.5t-45.5 1.5q-152 -4 -169 -4q-18 0 -18 9q0 10 17 10q59 0 83 25.5t24 99.5v212q0 33 -10.5 48t-34.5 15h-27q-33 0 -47.5 -32.5t-38.5 -136.5q-3 -16 -10 -16t-7 17q0 11 0.5 34t0.5 42q0 26 -5 59t-5 37
q0 24 25 24q18 0 49.5 -2t53.5 -2h510q27 0 41 -10t23 -35l88 -227q6 -16 13 -2l101 236q15 38 44 38h47q9 0 56 2t68 2q12 0 12 -9q0 -10 -12 -10q-41 0 -57.5 -25.5t-16.5 -99.5v-160q-1 -74 16 -99.5t57 -25.5q12 0 12 -10q0 -9 -12 -9q-21 0 -67.5 2t-56.5 2h-26
q-10 0 -57 -2t-68 -2q-12 0 -12 9q0 10 12 10q41 0 58 25.5t17 99.5v206q0 4 -2.5 6t-5.5 0.5t-5 -6.5l-152 -355q-5 -11 -14 -11t-14 11z" />
    <glyph glyph-name="oneeighth" unicode="&#x215b;" 
d="M275 440q0 -59 14.5 -79.5t47.5 -20.5q11 0 11 -7q0 -8 -11 -8q-16 0 -46 1.5t-40 1.5h-83q-11 0 -43.5 -1.5t-50.5 -1.5q-12 0 -12 7q0 8 12 8q37 0 52.5 20.5t16.5 79.5v228q0 45 -18.5 53.5t-67.5 -13.5q-14 -6 -18 1q-4 8 11 15q123 55 158 71q53 21 56 21
q11 0 11 -33v-343zM204 18q249 386 482 779q12 19 27 19q24 0 4 -31q-271 -422 -482 -779q-11 -18 -27 -18q-23 0 -4 30zM558 89q0 66 100 104q23 8 4 23q-92 77 -92 141q0 58 47.5 94t117.5 36q67 0 107.5 -26.5t40.5 -72.5q0 -54 -91 -90q-21 -8 -3 -23q56 -43 83 -77
t27 -73q0 -61 -51 -97.5t-126 -36.5q-70 0 -117 26t-47 72zM656 113q0 -36 18 -71t49 -35q24 0 38.5 21.5t14.5 52.5q0 22 -14.5 41t-56.5 57q-19 16 -33 -3q-16 -28 -16 -63zM689 407q0 -24 12 -43t45 -52q18 -16 32 3q12 20 12 51q0 55 -15.5 80.5t-39.5 25.5
q-18 0 -32 -20t-14 -45z" />
    <glyph glyph-name="threeeighths" unicode="&#x215c;" horiz-adv-x="1011" 
d="M77 385q0 18 12.5 29.5t31.5 11.5t28.5 -8.5t20.5 -26.5q3 -5 9 -17l10 -20t12.5 -14.5t18.5 -6.5t20.5 11t19 40t8.5 72q0 56 -30 84.5t-76 28.5q-12 0 -12 9t12 9q103 2 103 91q0 29 -17 46.5t-51 17.5q-64 0 -80 -59q-2 -9 -8.5 -7.5t-5.5 14.5q7 56 46 91t104 35
q58 0 96.5 -29t38.5 -81q0 -45 -34.5 -66.5t-102.5 -37.5q-14 -4 -7 -13q4 -5 16 -7q143 -20 143 -116q0 -71 -57 -109t-140 -38q-54 0 -91.5 17t-37.5 49zM273 18q249 386 482 779q12 19 27 19q24 0 4 -31q-271 -422 -482 -779q-10 -18 -27 -18q-23 0 -4 30zM632 89
q0 66 100 104q23 8 4 23q-92 77 -92 141q0 58 47.5 94t117.5 36q67 0 107.5 -26.5t40.5 -72.5q0 -54 -91 -90q-21 -8 -3 -23q56 -43 83 -77t27 -73q0 -61 -51 -97.5t-126 -36.5q-70 0 -117 26t-47 72zM730 113q0 -36 18 -71t49 -35q24 0 38.5 21.5t14.5 52.5q0 22 -14.5 41
t-56.5 57q-19 16 -33 -3q-16 -28 -16 -63zM763 407q0 -24 12 -43t45 -52q18 -16 32 3q12 20 12 51q0 55 -15.5 80.5t-39.5 25.5q-18 0 -32 -20t-14 -45z" />
    <glyph glyph-name="fiveeighths" unicode="&#x215d;" horiz-adv-x="985" 
d="M194 319q-50 0 -86.5 17t-36.5 49q0 19 12 30.5t32 11.5q18 0 29 -9t22 -27q3 -5 8 -17t8.5 -19t11 -13.5t15.5 -6.5q20 0 34.5 37t14.5 102q0 114 -69 114q-37 0 -48 -25q-5 -12 -13 -12q-9 0 -6 15l48 187q1 3 2.5 11t2.5 13.5t3.5 12t6 10t8.5 3.5q7 0 26 -1.5
t27 -1.5h89q12 0 27 3t20 3q11 0 11 -24q0 -32 -16.5 -56t-34.5 -24h-149q-12 0 -17.5 -3.5t-8.5 -15.5l-16 -63q-3 -12 5 -11q6 1 15 8q33 24 77 24q57 0 101.5 -36.5t44.5 -115.5q0 -86 -59 -128t-141 -42zM247 18q249 386 482 779q12 19 27 19q24 0 4 -31
q-271 -422 -482 -779q-10 -18 -27 -18q-23 0 -4 30zM605 89q0 66 100 104q23 8 4 23q-92 77 -92 141q0 58 47.5 94t117.5 36q67 0 107.5 -26.5t40.5 -72.5q0 -54 -91 -90q-21 -8 -3 -23q56 -43 83 -77t27 -73q0 -61 -51 -97.5t-126 -36.5q-70 0 -117 26t-47 72zM703 113
q0 -36 18 -71t49 -35q24 0 38.5 21.5t14.5 52.5q0 22 -14.5 41t-56.5 57q-19 16 -33 -3q-16 -28 -16 -63zM736 407q0 -24 12 -43t45 -52q18 -16 32 3q12 20 12 51q0 55 -15.5 80.5t-39.5 25.5q-18 0 -32 -20t-14 -45z" />
    <glyph glyph-name="seveneighths" unicode="&#x215e;" horiz-adv-x="918" 
d="M220 319q-37 0 -46.5 15.5t9.5 44.5l188 297q17 27 -18 27h-150q-39 0 -56.5 -17t-18.5 -68q0 -13 -9 -13q-8 0 -6 14q6 75 6 93q0 11 -1.5 39.5t-0.5 35.5q3 18 18 18q5 0 25 -2.5t42 -2.5h154q16 0 35 1.5t22 1.5q11 0 11 -9q0 -3 -11 -32l-140 -401q-9 -24 -20.5 -33
t-32.5 -9zM180 18q249 386 482 779q12 19 27 19q24 0 4 -31q-271 -422 -482 -779q-11 -18 -27 -18q-23 0 -4 30zM538 89q0 66 100 104q23 8 4 23q-92 77 -92 141q0 58 47.5 94t117.5 36q67 0 107.5 -26.5t40.5 -72.5q0 -54 -91 -90q-21 -8 -3 -23q56 -43 83 -77t27 -73
q0 -61 -51 -97.5t-126 -36.5q-70 0 -117 26t-47 72zM636 113q0 -36 18 -71t49 -35q24 0 38.5 21.5t14.5 52.5q0 22 -14.5 41t-56.5 57q-19 16 -33 -3q-16 -28 -16 -63zM669 407q0 -24 12 -43t45 -52q18 -16 32 3q12 20 12 51q0 55 -15.5 80.5t-39.5 25.5q-18 0 -32 -20
t-14 -45z" />
    <glyph glyph-name="arrowleft" unicode="&#x2190;" horiz-adv-x="919" 
d="M829 228q-133 0 -263.5 6.5t-258 16.5t-145.5 11q-46 2 -3 -15q168 -68 225 -146q9 -12 9 -26q0 -24 -21.5 -46t-43.5 -22q-19 0 -30 20q-48 89 -99.5 137t-131.5 74q-31 8 -31 31q0 25 31 33q80 26 132 74.5t99 137.5q11 20 30 20q22 0 43.5 -22.5t21.5 -46.5
q0 -15 -9 -25q-56 -79 -224 -147q-44 -17 3 -15q16 1 144.5 11t259 16.5t262.5 6.5q41 0 41 -43q0 -41 -41 -41z" />
    <glyph glyph-name="arrowup" unicode="&#x2191;" horiz-adv-x="650" 
d="M367 -52q0 -41 -41 -41q-43 0 -43 41q0 132 6.5 262.5t16.5 259t11 144.5q1 46 -15 3q-68 -168 -147 -224q-11 -9 -25 -9q-24 0 -46.5 21.5t-22.5 43.5q0 19 20 30q89 47 137.5 99t74.5 132q8 31 33 31q23 0 31 -31q26 -80 74 -131.5t137 -99.5q20 -11 20 -30
q0 -22 -22 -43.5t-46 -21.5q-14 0 -26 9q-78 57 -146 225q-16 44 -15 -3q1 -18 11 -145.5t16.5 -258t6.5 -263.5z" />
    <glyph glyph-name="arrowright" unicode="&#x2192;" horiz-adv-x="919" 
d="M90 228q-41 0 -41 41q0 43 41 43q132 0 262.5 -6.5t259 -16.5t144.5 -11q46 -2 3 15q-168 68 -224 147q-9 10 -9 25q0 24 21.5 46.5t43.5 22.5q19 0 30 -20q47 -89 99 -137.5t132 -74.5q31 -8 31 -33q0 -23 -31 -31q-80 -26 -131.5 -74t-99.5 -137q-11 -20 -30 -20
q-22 0 -43.5 22t-21.5 46q0 14 9 26q57 78 225 146q44 17 -3 15q-18 -1 -145.5 -11t-258 -16.5t-263.5 -6.5z" />
    <glyph glyph-name="arrowdown" unicode="&#x2193;" horiz-adv-x="650" 
d="M367 618q0 -133 -6.5 -263.5t-16.5 -258t-11 -145.5q-1 -47 15 -3q68 168 146 225q12 9 26 9q24 0 46 -21.5t22 -43.5q0 -19 -20 -30q-89 -48 -137 -99.5t-74 -131.5q-8 -31 -31 -31q-25 0 -33 31q-26 80 -74.5 132t-137.5 99q-20 11 -20 30q0 22 22.5 43.5t46.5 21.5
q14 0 25 -9q79 -56 147 -224q16 -43 15 3q-1 16 -11 144.5t-16.5 259t-6.5 262.5q0 41 43 41q41 0 41 -41z" />
    <glyph glyph-name="arrowboth" unicode="&#x2194;" horiz-adv-x="1299" 
d="M328 7q-19 0 -30 20q-48 89 -99.5 137t-131.5 74q-31 8 -31 31q0 25 31 33q80 26 131.5 74.5t99.5 137.5q11 20 30 20q22 0 43.5 -22.5t21.5 -46.5q0 -15 -9 -25q-56 -79 -224 -147q-42 -16 -10 -16q31 2 128.5 11.5t195.5 16.5t180 7q81 0 173.5 -6.5t182 -16
t126.5 -11.5q46 -2 3 15q-168 68 -224 147q-9 10 -9 25q0 24 21.5 46.5t43.5 22.5q19 0 30 -20q47 -89 99 -137.5t132 -74.5q31 -8 31 -33q0 -23 -31 -31q-80 -26 -131.5 -74t-99.5 -137q-11 -20 -30 -20q-22 0 -43.5 22t-21.5 46q0 14 9 26q56 78 224 146q43 17 -3 15
q-27 -2 -122.5 -11.5t-185.5 -16t-169 -6.5q-83 0 -178.5 6.5t-188.5 16t-129 11.5q-34 1 -26 -5q3 -3 11 -6q175 -67 236 -150q8 -11 8 -26q0 -24 -21 -46t-43 -22z" />
    <glyph glyph-name="arrowupdn" unicode="&#x2195;" horiz-adv-x="633" 
d="M53 585q0 19 20 30q89 48 137 99.5t74 131.5q8 31 31 31q25 0 33 -31q26 -80 74.5 -131.5t137.5 -99.5q20 -11 20 -30q0 -22 -22.5 -43.5t-46.5 -21.5q-15 0 -25 9q-79 56 -147 224q-16 42 -16 10q2 -31 11.5 -128.5t16.5 -195.5t7 -180q0 -81 -6.5 -173.5t-16 -182
t-11.5 -126.5q-2 -47 15 -3q68 168 147 224q10 9 25 9q24 0 46.5 -21.5t22.5 -43.5q0 -19 -20 -30q-89 -47 -137.5 -99t-74.5 -132q-8 -31 -33 -31q-23 0 -31 31q-26 80 -74 131.5t-137 99.5q-20 11 -20 30q0 22 22 43.5t46 21.5q14 0 26 -9q78 -56 146 -224q17 -44 15 3
q-2 27 -11.5 122.5t-16 185.5t-6.5 169q0 83 6.5 178.5t16 188.5t11.5 129q1 34 -5 26q-3 -3 -6 -11q-67 -175 -150 -236q-11 -8 -26 -8q-24 0 -46 21t-22 43z" />
    <glyph glyph-name="uni2196" unicode="&#x2196;" horiz-adv-x="738" 
d="M588 -3q-94 94 -181.5 190t-172 195t-94.5 110q-16 17 -19 15t6 -23q72 -167 56 -263q-2 -15 -12 -24q-17 -18 -48 -18t-46 16q-14 14 -7 35q29 93 26.5 165.5t-40.5 146.5q-15 29 0 44q16 18 45 2q75 -39 148.5 -41.5t164.5 27.5q22 7 36 -7q15 -15 14.5 -46t-17.5 -49
q-12 -10 -24 -11q-97 -15 -262 55q-22 9 -24 6t15 -19q11 -10 109.5 -94.5t195 -172t190.5 -180.5q29 -29 -1 -59q-29 -29 -58 0z" />
    <glyph glyph-name="uni2197" unicode="&#x2197;" horiz-adv-x="738" 
d="M150 -3q-29 -29 -58 0q-30 30 -1 59q94 93 190.5 180.5t195 172t109.5 94.5q17 16 15 19t-23 -6q-167 -70 -263 -55q-12 1 -24 11q-17 18 -17.5 49t14.5 46q14 14 36 7q91 -30 164.5 -27.5t148.5 41.5q29 16 45 -2q16 -16 0 -44q-38 -74 -40.5 -146.5t26.5 -165.5
q7 -21 -7 -35q-15 -16 -46 -16t-48 18q-11 11 -12 24q-16 96 56 263q9 21 6 23t-19 -15q-10 -11 -94.5 -110t-172 -195t-181.5 -190z" />
    <glyph glyph-name="uni2198" unicode="&#x2198;" horiz-adv-x="738" 
d="M150 543q94 -94 181.5 -190t172 -195t94.5 -110q16 -17 19 -15t-6 23q-72 167 -56 263q1 13 12 24q17 18 48 18t46 -16q14 -14 7 -35q-29 -93 -26.5 -165.5t40.5 -146.5q16 -28 0 -44q-16 -18 -45 -2q-75 39 -148.5 41.5t-164.5 -27.5q-22 -7 -36 7q-15 15 -14.5 46
t17.5 49q12 10 24 11q96 15 263 -55q21 -9 23 -6t-15 19q-11 10 -109.5 94.5t-195 172t-190.5 180.5q-29 29 1 59q29 29 58 0z" />
    <glyph glyph-name="uni2199" unicode="&#x2199;" horiz-adv-x="738" 
d="M588 543q29 29 58 0q30 -30 1 -59q-94 -93 -190.5 -180.5t-195 -172t-109.5 -94.5q-17 -16 -15 -19t24 6q165 70 262 55q12 -1 24 -11q17 -18 17.5 -49t-14.5 -46q-14 -14 -36 -7q-91 30 -164.5 27.5t-148.5 -41.5q-29 -16 -45 2q-15 15 0 44q38 74 40.5 146.5
t-26.5 165.5q-7 21 7 35q15 16 46 16t48 -18q10 -9 12 -24q16 -96 -56 -263q-9 -21 -6 -23t19 15q10 11 94.5 110t172 195t181.5 190z" />
    <glyph glyph-name="partialdiff" unicode="&#x2202;" horiz-adv-x="637" 
d="M297 -10q-107 0 -177 75.5t-70 193.5q0 117 72 194.5t196 77.5q113 0 195 -91q14 -18 22 -15.5t8 25.5q-1 9 -1 26q0 88 -52 138t-142 50q-56 0 -115 -21.5t-90 -57.5q-10 -13 -21 -13q-9 0 -5 13q16 51 33.5 88t45 70t67 50t90.5 17q112 0 163.5 -90t51.5 -268
q0 -95 -13.5 -173.5t-43 -145.5t-84 -105t-130.5 -38zM235 222q0 -198 100 -198q78 0 136 84.5t69 214.5q3 48 -24 90q-45 57 -104 57q-53 0 -95.5 -42t-62 -97.5t-19.5 -108.5z" />
    <glyph glyph-name="emptyset" unicode="&#x2205;" horiz-adv-x="616" 
d="M308 60q-79 0 -144 46q-22 18 -43 -3l-40 -43q-13 -13 -23.5 -2.5t2.5 23.5l43 41q21 19 3 42q-46 65 -46 144q0 103 72.5 175.5t175.5 72.5q79 0 144 -46q23 -18 42 3l41 43q13 13 23.5 2.5t-2.5 -23.5l-43 -40q-21 -21 -3 -43q46 -65 46 -144q0 -103 -72.5 -175.5
t-175.5 -72.5zM151 308q0 -53 10 -94q8 -28 29 -7l227 227q21 21 7 46q-40 60 -116 60q-83 0 -120 -65t-37 -167zM192 136q40 -60 116 -60q83 0 120 65t37 167q0 53 -10 94q-8 28 -29 7l-227 -227q-21 -21 -7 -46z" />
    <glyph glyph-name="product" unicode="&#x220f;" horiz-adv-x="978" 
d="M745 800q14 0 80.5 2t97.5 2q17 0 17 -9q0 -10 -17 -10q-58 0 -82 -25.5t-24 -99.5v-700q-1 -74 23 -99.5t82 -25.5q17 0 17 -10t-17 -10q-26 0 -93 2.5t-85 2.5h-40q-15 0 -86 -2t-104 -2q-18 0 -18 9q0 10 18 10q62 0 88 25.5t26 99.5v784q0 37 -49 37h-180
q-23 0 -35.5 -13t-12.5 -36v-772q-1 -74 24.5 -99.5t88.5 -26.5q18 0 18 -9q0 -10 -19 -10q-27 0 -99 2.5t-91 2.5h-40q-14 0 -80.5 -2t-96.5 -2q-17 0 -17 9q0 10 17 10q58 0 82 25.5t24 99.5v700q0 74 -24 99.5t-82 25.5q-17 0 -17 10t18 10q25 0 92 -2.5t85 -2.5h511z
" />
    <glyph glyph-name="summation" unicode="&#x2211;" horiz-adv-x="788" 
d="M575 -184q-15 0 -56 2t-77 2h-224q-36 0 -95 -2t-78 -2q-41 0 -19 32l283 381q30 39 4 81l-280 469q-6 9 -2 17t15 8q9 0 56.5 -2t81.5 -2h257q36 0 76.5 2t56.5 2q25 0 25 -27q0 -9 -2 -45t-2 -61q0 -37 3.5 -91t3.5 -64q0 -14 -6 -14q-9 0 -10 15q-21 135 -69 201
t-141 66h-73q-49 0 -30 -31l177 -295q24 -41 4 -66l-241 -330q-28 -39 20 -39h162q48 0 81 7t65.5 26.5t54.5 60.5t36 104q3 13 8 13q10 0 7 -12q-6 -29 -21.5 -127.5t-19.5 -141.5q-5 -38 -5 -110q0 -27 -26 -27z" />
    <glyph glyph-name="minus" unicode="&#x2212;" horiz-adv-x="440" 
d="M60 286q-15 0 -15 14t15 14h320q15 0 15 -14t-15 -14h-320z" />
    <glyph glyph-name="radical" unicode="&#x221a;" horiz-adv-x="521" 
d="M507 847q-128 -838 -129 -847q-3 -16 -18 -16q-12 0 -18 16l-176 458q-16 39 -52 22l-78 -37q-16 -8 -21 2q-3 8 12 15l123 58q84 40 127 40q18 0 31 -15.5t30 -52.5l51 -121q7 -15 15 -15t11 16q47 321 67 477q1 11 10 11q6 0 11 -3t4 -8z" />
    <glyph glyph-name="infinity" unicode="&#x221e;" horiz-adv-x="1128" 
d="M855 193q-141 0 -256 110q-31 33 -68 4q-128 -94 -261 -94q-102 0 -161 56.5t-59 155.5q0 92 56 149.5t143 57.5q131 0 244 -113q30 -34 66 -3q83 72 143.5 104t133.5 32q111 0 176.5 -62t65.5 -172q0 -101 -63 -163t-160 -62zM70 420q0 -61 42 -96.5t116 -35.5
q43 0 86.5 26.5t124.5 97.5q35 30 5 65q-52 62 -97.5 93t-100.5 31q-76 0 -126 -50.5t-50 -130.5zM646 411q-33 -32 -3 -67q106 -119 216 -119q86 0 142.5 55.5t56.5 144.5q0 71 -48 111.5t-130 40.5q-13 0 -25 -1.5t-24.5 -7t-21.5 -9t-23.5 -14.5t-22 -17.5t-25 -23.5
t-26.5 -25.5t-31.5 -32t-34.5 -35.5z" />
    <glyph glyph-name="integral" unicode="&#x222b;" horiz-adv-x="594" 
d="M428 33q0 -111 -51 -162t-153 -51q-80 0 -127 29.5t-47 80.5q0 62 60 62q59 0 61 -60q1 -25 2.5 -37t6 -25t12.5 -17.5t21 -4.5q61 0 61 141q0 96 -54 321t-54 315q0 215 209 215q78 0 123.5 -29.5t45.5 -81.5q0 -61 -60 -61q-59 0 -61 60q-1 25 -2.5 37t-6 25
t-12.5 17.5t-21 4.5q-61 0 -61 -147q0 -101 54 -318.5t54 -313.5z" />
    </font>
</defs>
</svg>
